%TF.GenerationSoftware,KiCad,Pcbnew,6.0.2+dfsg-1*%
%TF.CreationDate,2023-10-20T16:05:58+09:00*%
%TF.ProjectId,Hibot_agostiniLuca,4869626f-745f-4616-976f-7374696e694c,rev?*%
%TF.SameCoordinates,Original*%
%TF.FileFunction,Paste,Top*%
%TF.FilePolarity,Positive*%
%FSLAX46Y46*%
G04 Gerber Fmt 4.6, Leading zero omitted, Abs format (unit mm)*
G04 Created by KiCad (PCBNEW 6.0.2+dfsg-1) date 2023-10-20 16:05:58*
%MOMM*%
%LPD*%
G01*
G04 APERTURE LIST*
G04 Aperture macros list*
%AMRoundRect*
0 Rectangle with rounded corners*
0 $1 Rounding radius*
0 $2 $3 $4 $5 $6 $7 $8 $9 X,Y pos of 4 corners*
0 Add a 4 corners polygon primitive as box body*
4,1,4,$2,$3,$4,$5,$6,$7,$8,$9,$2,$3,0*
0 Add four circle primitives for the rounded corners*
1,1,$1+$1,$2,$3*
1,1,$1+$1,$4,$5*
1,1,$1+$1,$6,$7*
1,1,$1+$1,$8,$9*
0 Add four rect primitives between the rounded corners*
20,1,$1+$1,$2,$3,$4,$5,0*
20,1,$1+$1,$4,$5,$6,$7,0*
20,1,$1+$1,$6,$7,$8,$9,0*
20,1,$1+$1,$8,$9,$2,$3,0*%
G04 Aperture macros list end*
%ADD10C,0.010000*%
%ADD11RoundRect,0.200000X0.275000X-0.200000X0.275000X0.200000X-0.275000X0.200000X-0.275000X-0.200000X0*%
%ADD12RoundRect,0.200000X-0.275000X0.200000X-0.275000X-0.200000X0.275000X-0.200000X0.275000X0.200000X0*%
%ADD13R,0.350000X0.375000*%
%ADD14R,0.375000X0.350000*%
%ADD15RoundRect,0.200000X-0.200000X-0.275000X0.200000X-0.275000X0.200000X0.275000X-0.200000X0.275000X0*%
%ADD16RoundRect,0.250000X0.475000X-0.250000X0.475000X0.250000X-0.475000X0.250000X-0.475000X-0.250000X0*%
%ADD17RoundRect,0.079500X0.079500X0.100500X-0.079500X0.100500X-0.079500X-0.100500X0.079500X-0.100500X0*%
%ADD18R,0.800000X0.900000*%
%ADD19RoundRect,0.225000X0.225000X0.250000X-0.225000X0.250000X-0.225000X-0.250000X0.225000X-0.250000X0*%
%ADD20RoundRect,0.250000X-0.250000X-0.475000X0.250000X-0.475000X0.250000X0.475000X-0.250000X0.475000X0*%
%ADD21RoundRect,0.243750X0.243750X0.456250X-0.243750X0.456250X-0.243750X-0.456250X0.243750X-0.456250X0*%
%ADD22RoundRect,0.200000X0.200000X0.275000X-0.200000X0.275000X-0.200000X-0.275000X0.200000X-0.275000X0*%
%ADD23RoundRect,0.207500X-0.207500X-0.207500X0.207500X-0.207500X0.207500X0.207500X-0.207500X0.207500X0*%
%ADD24RoundRect,0.062500X-0.375000X-0.062500X0.375000X-0.062500X0.375000X0.062500X-0.375000X0.062500X0*%
%ADD25RoundRect,0.062500X-0.062500X-0.375000X0.062500X-0.375000X0.062500X0.375000X-0.062500X0.375000X0*%
%ADD26RoundRect,0.150000X0.150000X-0.512500X0.150000X0.512500X-0.150000X0.512500X-0.150000X-0.512500X0*%
%ADD27RoundRect,0.225000X-0.225000X-0.250000X0.225000X-0.250000X0.225000X0.250000X-0.225000X0.250000X0*%
%ADD28R,1.700000X0.900000*%
%ADD29RoundRect,0.150000X0.587500X0.150000X-0.587500X0.150000X-0.587500X-0.150000X0.587500X-0.150000X0*%
G04 APERTURE END LIST*
D10*
%TO.C,U6*%
X140055000Y-105925000D02*
X140055000Y-104895000D01*
X140055000Y-104895000D02*
X140545000Y-104895000D01*
X140545000Y-104895000D02*
X140545000Y-105925000D01*
X140545000Y-105925000D02*
X140055000Y-105925000D01*
G36*
X140545000Y-105925000D02*
G01*
X140055000Y-105925000D01*
X140055000Y-104895000D01*
X140545000Y-104895000D01*
X140545000Y-105925000D01*
G37*
X140545000Y-105925000D02*
X140055000Y-105925000D01*
X140055000Y-104895000D01*
X140545000Y-104895000D01*
X140545000Y-105925000D01*
X141400000Y-105855500D02*
X141400000Y-105525500D01*
X141400000Y-105525500D02*
X141680000Y-105525500D01*
X141680000Y-105525500D02*
X141680000Y-105855500D01*
X141680000Y-105855500D02*
X141400000Y-105855500D01*
G36*
X141680000Y-105855500D02*
G01*
X141400000Y-105855500D01*
X141400000Y-105525500D01*
X141680000Y-105525500D01*
X141680000Y-105855500D01*
G37*
X141680000Y-105855500D02*
X141400000Y-105855500D01*
X141400000Y-105525500D01*
X141680000Y-105525500D01*
X141680000Y-105855500D01*
X139650000Y-105855500D02*
X139650000Y-105525500D01*
X139650000Y-105525500D02*
X139930000Y-105525500D01*
X139930000Y-105525500D02*
X139930000Y-105855500D01*
X139930000Y-105855500D02*
X139650000Y-105855500D01*
G36*
X139930000Y-105855500D02*
G01*
X139650000Y-105855500D01*
X139650000Y-105525500D01*
X139930000Y-105525500D01*
X139930000Y-105855500D01*
G37*
X139930000Y-105855500D02*
X139650000Y-105855500D01*
X139650000Y-105525500D01*
X139930000Y-105525500D01*
X139930000Y-105855500D01*
X139650000Y-105205500D02*
X139650000Y-104875500D01*
X139650000Y-104875500D02*
X139930000Y-104875500D01*
X139930000Y-104875500D02*
X139930000Y-105205500D01*
X139930000Y-105205500D02*
X139650000Y-105205500D01*
G36*
X139930000Y-105205500D02*
G01*
X139650000Y-105205500D01*
X139650000Y-104875500D01*
X139930000Y-104875500D01*
X139930000Y-105205500D01*
G37*
X139930000Y-105205500D02*
X139650000Y-105205500D01*
X139650000Y-104875500D01*
X139930000Y-104875500D01*
X139930000Y-105205500D01*
X140795000Y-105925000D02*
X140795000Y-104895000D01*
X140795000Y-104895000D02*
X141285000Y-104895000D01*
X141285000Y-104895000D02*
X141285000Y-105925000D01*
X141285000Y-105925000D02*
X140795000Y-105925000D01*
G36*
X141285000Y-105925000D02*
G01*
X140795000Y-105925000D01*
X140795000Y-104895000D01*
X141285000Y-104895000D01*
X141285000Y-105925000D01*
G37*
X141285000Y-105925000D02*
X140795000Y-105925000D01*
X140795000Y-104895000D01*
X141285000Y-104895000D01*
X141285000Y-105925000D01*
X139650000Y-106505500D02*
X139650000Y-106175500D01*
X139650000Y-106175500D02*
X139930000Y-106175500D01*
X139930000Y-106175500D02*
X139930000Y-106505500D01*
X139930000Y-106505500D02*
X139650000Y-106505500D01*
G36*
X139930000Y-106505500D02*
G01*
X139650000Y-106505500D01*
X139650000Y-106175500D01*
X139930000Y-106175500D01*
X139930000Y-106505500D01*
G37*
X139930000Y-106505500D02*
X139650000Y-106505500D01*
X139650000Y-106175500D01*
X139930000Y-106175500D01*
X139930000Y-106505500D01*
X140265000Y-106555000D02*
X140265000Y-106295000D01*
X140265000Y-106295000D02*
X141075000Y-106295000D01*
X141075000Y-106295000D02*
X141075000Y-106555000D01*
X141075000Y-106555000D02*
X140265000Y-106555000D01*
G36*
X141075000Y-106555000D02*
G01*
X140265000Y-106555000D01*
X140265000Y-106295000D01*
X141075000Y-106295000D01*
X141075000Y-106555000D01*
G37*
X141075000Y-106555000D02*
X140265000Y-106555000D01*
X140265000Y-106295000D01*
X141075000Y-106295000D01*
X141075000Y-106555000D01*
X141400000Y-105205500D02*
X141400000Y-104875500D01*
X141400000Y-104875500D02*
X141680000Y-104875500D01*
X141680000Y-104875500D02*
X141680000Y-105205500D01*
X141680000Y-105205500D02*
X141400000Y-105205500D01*
G36*
X141680000Y-105205500D02*
G01*
X141400000Y-105205500D01*
X141400000Y-104875500D01*
X141680000Y-104875500D01*
X141680000Y-105205500D01*
G37*
X141680000Y-105205500D02*
X141400000Y-105205500D01*
X141400000Y-104875500D01*
X141680000Y-104875500D01*
X141680000Y-105205500D01*
X141400000Y-106505500D02*
X141400000Y-106175500D01*
X141400000Y-106175500D02*
X141680000Y-106175500D01*
X141680000Y-106175500D02*
X141680000Y-106505500D01*
X141680000Y-106505500D02*
X141400000Y-106505500D01*
G36*
X141680000Y-106505500D02*
G01*
X141400000Y-106505500D01*
X141400000Y-106175500D01*
X141680000Y-106175500D01*
X141680000Y-106505500D01*
G37*
X141680000Y-106505500D02*
X141400000Y-106505500D01*
X141400000Y-106175500D01*
X141680000Y-106175500D01*
X141680000Y-106505500D01*
%TD*%
D11*
%TO.C,R7*%
X152500000Y-96150000D03*
X152500000Y-94500000D03*
%TD*%
D12*
%TO.C,R2*%
X131500000Y-100675000D03*
X131500000Y-102325000D03*
%TD*%
D11*
%TO.C,R3*%
X142500000Y-92625000D03*
X142500000Y-90975000D03*
%TD*%
D13*
%TO.C,U2*%
X148250000Y-110625000D03*
X148750000Y-110625000D03*
X149250000Y-110625000D03*
X149750000Y-110625000D03*
D14*
X149762500Y-110112500D03*
X149762500Y-109612500D03*
D13*
X149750000Y-109100000D03*
X149250000Y-109100000D03*
X148750000Y-109100000D03*
X148250000Y-109100000D03*
D14*
X148237500Y-109612500D03*
X148237500Y-110112500D03*
%TD*%
D15*
%TO.C,R6*%
X136550000Y-105100000D03*
X138200000Y-105100000D03*
%TD*%
D16*
%TO.C,C10*%
X142500000Y-89000000D03*
X142500000Y-87100000D03*
%TD*%
D17*
%TO.C,L1*%
X128295000Y-95000000D03*
X127605000Y-95000000D03*
%TD*%
D18*
%TO.C,Y1*%
X134625000Y-102325000D03*
X134625000Y-100675000D03*
X133375000Y-100675000D03*
X133375000Y-102325000D03*
%TD*%
D19*
%TO.C,C14*%
X129775000Y-102500000D03*
X128225000Y-102500000D03*
%TD*%
D20*
%TO.C,C3*%
X151600000Y-109862500D03*
X153500000Y-109862500D03*
%TD*%
D21*
%TO.C,D3*%
X144875000Y-104000000D03*
X143000000Y-104000000D03*
%TD*%
D22*
%TO.C,R1*%
X153500000Y-111862500D03*
X151850000Y-111862500D03*
%TD*%
D23*
%TO.C,U4*%
X140000000Y-100500000D03*
X137940000Y-100500000D03*
X137940000Y-98440000D03*
X138970000Y-100500000D03*
X140000000Y-99470000D03*
X137940000Y-99470000D03*
X138970000Y-99470000D03*
X140000000Y-98440000D03*
X138970000Y-98440000D03*
D24*
X136532500Y-97720000D03*
X136532500Y-98220000D03*
X136532500Y-98720000D03*
X136532500Y-99220000D03*
X136532500Y-99720000D03*
X136532500Y-100220000D03*
X136532500Y-100720000D03*
X136532500Y-101220000D03*
D25*
X137220000Y-101907500D03*
X137720000Y-101907500D03*
X138220000Y-101907500D03*
X138720000Y-101907500D03*
X139220000Y-101907500D03*
X139720000Y-101907500D03*
X140220000Y-101907500D03*
X140720000Y-101907500D03*
D24*
X141407500Y-101220000D03*
X141407500Y-100720000D03*
X141407500Y-100220000D03*
X141407500Y-99720000D03*
X141407500Y-99220000D03*
X141407500Y-98720000D03*
X141407500Y-98220000D03*
X141407500Y-97720000D03*
D25*
X140720000Y-97032500D03*
X140220000Y-97032500D03*
X139720000Y-97032500D03*
X139220000Y-97032500D03*
X138720000Y-97032500D03*
X138220000Y-97032500D03*
X137720000Y-97032500D03*
X137220000Y-97032500D03*
%TD*%
D26*
%TO.C,U1*%
X148050000Y-105000000D03*
X149000000Y-105000000D03*
X149950000Y-105000000D03*
X149950000Y-102725000D03*
X148050000Y-102725000D03*
%TD*%
D19*
%TO.C,C13*%
X129775000Y-100500000D03*
X128225000Y-100500000D03*
%TD*%
D27*
%TO.C,C6*%
X144025000Y-99400000D03*
X145575000Y-99400000D03*
%TD*%
D28*
%TO.C,SW1*%
X139000000Y-89700000D03*
X139000000Y-86300000D03*
%TD*%
D11*
%TO.C,R4*%
X145500000Y-92825000D03*
X145500000Y-91175000D03*
%TD*%
D29*
%TO.C,Q2*%
X149875000Y-92450000D03*
X149875000Y-90550000D03*
X148000000Y-91500000D03*
%TD*%
%TO.C,Q1*%
X149937500Y-97450000D03*
X149937500Y-95550000D03*
X148062500Y-96500000D03*
%TD*%
D19*
%TO.C,C5*%
X134775000Y-98500000D03*
X133225000Y-98500000D03*
%TD*%
D11*
%TO.C,R8*%
X152500000Y-92825000D03*
X152500000Y-91175000D03*
%TD*%
D20*
%TO.C,C12*%
X128000000Y-97000000D03*
X129900000Y-97000000D03*
%TD*%
D12*
%TO.C,R5*%
X145500000Y-94675000D03*
X145500000Y-96325000D03*
%TD*%
M02*
