%TF.GenerationSoftware,KiCad,Pcbnew,6.0.2+dfsg-1*%
%TF.CreationDate,2023-10-20T16:05:58+09:00*%
%TF.ProjectId,Hibot_agostiniLuca,4869626f-745f-4616-976f-7374696e694c,rev?*%
%TF.SameCoordinates,Original*%
%TF.FileFunction,Copper,L2,Bot*%
%TF.FilePolarity,Positive*%
%FSLAX46Y46*%
G04 Gerber Fmt 4.6, Leading zero omitted, Abs format (unit mm)*
G04 Created by KiCad (PCBNEW 6.0.2+dfsg-1) date 2023-10-20 16:05:58*
%MOMM*%
%LPD*%
G01*
G04 APERTURE LIST*
G04 Aperture macros list*
%AMRoundRect*
0 Rectangle with rounded corners*
0 $1 Rounding radius*
0 $2 $3 $4 $5 $6 $7 $8 $9 X,Y pos of 4 corners*
0 Add a 4 corners polygon primitive as box body*
4,1,4,$2,$3,$4,$5,$6,$7,$8,$9,$2,$3,0*
0 Add four circle primitives for the rounded corners*
1,1,$1+$1,$2,$3*
1,1,$1+$1,$4,$5*
1,1,$1+$1,$6,$7*
1,1,$1+$1,$8,$9*
0 Add four rect primitives between the rounded corners*
20,1,$1+$1,$2,$3,$4,$5,0*
20,1,$1+$1,$4,$5,$6,$7,0*
20,1,$1+$1,$6,$7,$8,$9,0*
20,1,$1+$1,$8,$9,$2,$3,0*%
G04 Aperture macros list end*
%TA.AperFunction,ComponentPad*%
%ADD10C,1.600000*%
%TD*%
%TA.AperFunction,ComponentPad*%
%ADD11R,2.200000X2.200000*%
%TD*%
%TA.AperFunction,ComponentPad*%
%ADD12C,2.200000*%
%TD*%
%TA.AperFunction,ComponentPad*%
%ADD13C,3.800000*%
%TD*%
%TA.AperFunction,SMDPad,CuDef*%
%ADD14C,1.000000*%
%TD*%
%TA.AperFunction,SMDPad,CuDef*%
%ADD15RoundRect,0.250000X0.425000X1.425000X-0.425000X1.425000X-0.425000X-1.425000X0.425000X-1.425000X0*%
%TD*%
%TA.AperFunction,SMDPad,CuDef*%
%ADD16RoundRect,0.225000X-0.225000X-0.250000X0.225000X-0.250000X0.225000X0.250000X-0.225000X0.250000X0*%
%TD*%
%TA.AperFunction,SMDPad,CuDef*%
%ADD17R,1.500000X2.000000*%
%TD*%
%TA.AperFunction,SMDPad,CuDef*%
%ADD18R,3.800000X2.000000*%
%TD*%
%TA.AperFunction,SMDPad,CuDef*%
%ADD19RoundRect,0.250000X1.075000X-0.400000X1.075000X0.400000X-1.075000X0.400000X-1.075000X-0.400000X0*%
%TD*%
%TA.AperFunction,SMDPad,CuDef*%
%ADD20RoundRect,0.250000X0.325000X0.650000X-0.325000X0.650000X-0.325000X-0.650000X0.325000X-0.650000X0*%
%TD*%
%TA.AperFunction,SMDPad,CuDef*%
%ADD21R,1.300000X1.700000*%
%TD*%
%TA.AperFunction,SMDPad,CuDef*%
%ADD22RoundRect,0.250000X0.250000X0.475000X-0.250000X0.475000X-0.250000X-0.475000X0.250000X-0.475000X0*%
%TD*%
%TA.AperFunction,SMDPad,CuDef*%
%ADD23RoundRect,0.112500X0.112500X-0.287500X0.112500X0.287500X-0.112500X0.287500X-0.112500X-0.287500X0*%
%TD*%
%TA.AperFunction,ComponentPad*%
%ADD24C,0.500000*%
%TD*%
%TA.AperFunction,SMDPad,CuDef*%
%ADD25R,2.900000X0.700000*%
%TD*%
%TA.AperFunction,ViaPad*%
%ADD26C,0.800000*%
%TD*%
%TA.AperFunction,Conductor*%
%ADD27C,0.250000*%
%TD*%
G04 APERTURE END LIST*
D10*
%TO.P,F1,1*%
%TO.N,Net-(D1-Pad1)*%
X153300000Y-104950000D03*
%TO.P,F1,2*%
%TO.N,VCC*%
X153300000Y-102450000D03*
%TD*%
D11*
%TO.P,J3,1,Pin_1*%
%TO.N,VCC*%
X134730000Y-111000000D03*
D12*
%TO.P,J3,2,Pin_2*%
%TO.N,Net-(J3-Pad2)*%
X137270000Y-111000000D03*
%TD*%
D11*
%TO.P,J2,1,Pin_1*%
%TO.N,+5V*%
X134815000Y-89000000D03*
D12*
%TO.P,J2,2,Pin_2*%
%TO.N,MC_RX*%
X132275000Y-89000000D03*
%TO.P,J2,3,Pin_3*%
%TO.N,MC_TX*%
X129735000Y-89000000D03*
%TO.P,J2,4,Pin_4*%
%TO.N,GND*%
X127195000Y-89000000D03*
%TD*%
D11*
%TO.P,J4,1,Pin_1*%
%TO.N,Net-(J4-Pad1)*%
X127730000Y-111000000D03*
D12*
%TO.P,J4,2,Pin_2*%
%TO.N,GND*%
X130270000Y-111000000D03*
%TD*%
D11*
%TO.P,J1,1,Pin_1*%
%TO.N,GND*%
X141730000Y-111000000D03*
D12*
%TO.P,J1,2,Pin_2*%
%TO.N,Net-(D1-Pad2)*%
X144270000Y-111000000D03*
%TD*%
D13*
%TO.P,H1,1*%
%TO.N,N/C*%
X152275000Y-87700000D03*
%TD*%
D14*
%TO.P,TP3,1,1*%
%TO.N,VCC*%
X127400000Y-99600000D03*
%TD*%
D15*
%TO.P,D1,1,K*%
%TO.N,Net-(D1-Pad1)*%
X153400000Y-109000000D03*
%TO.P,D1,2,A*%
%TO.N,Net-(D1-Pad2)*%
X147600000Y-109000000D03*
%TD*%
D16*
%TO.P,C8,1*%
%TO.N,+5V*%
X151725000Y-90850000D03*
%TO.P,C8,2*%
%TO.N,GND*%
X153275000Y-90850000D03*
%TD*%
D17*
%TO.P,U5,1,GND*%
%TO.N,GND*%
X138200000Y-88350000D03*
D18*
%TO.P,U5,2,VO*%
%TO.N,+1V8*%
X140500000Y-94650000D03*
D17*
X140500000Y-88350000D03*
%TO.P,U5,3,VI*%
%TO.N,+5V*%
X142800000Y-88350000D03*
%TD*%
D19*
%TO.P,FB1,1*%
%TO.N,+5VP*%
X148000000Y-94550000D03*
%TO.P,FB1,2*%
%TO.N,+5V*%
X148000000Y-91450000D03*
%TD*%
D20*
%TO.P,C2,1*%
%TO.N,VCC*%
X148975000Y-98250000D03*
%TO.P,C2,2*%
%TO.N,GND*%
X146025000Y-98250000D03*
%TD*%
D16*
%TO.P,C4,1*%
%TO.N,+5VP*%
X151725000Y-94850000D03*
%TO.P,C4,2*%
%TO.N,GND*%
X153275000Y-94850000D03*
%TD*%
D21*
%TO.P,D2,1,K*%
%TO.N,VCC*%
X149750000Y-103850000D03*
%TO.P,D2,2,A*%
%TO.N,GND*%
X146250000Y-103850000D03*
%TD*%
D20*
%TO.P,C1,1*%
%TO.N,VCC*%
X149000000Y-100850000D03*
%TO.P,C1,2*%
%TO.N,GND*%
X146050000Y-100850000D03*
%TD*%
D14*
%TO.P,TP5,1,1*%
%TO.N,+1V8*%
X127400000Y-102600000D03*
%TD*%
D22*
%TO.P,C11,1*%
%TO.N,+1V8*%
X143950000Y-97850000D03*
%TO.P,C11,2*%
%TO.N,GND*%
X142050000Y-97850000D03*
%TD*%
D14*
%TO.P,TP4,1,1*%
%TO.N,+5V*%
X127400000Y-96600000D03*
%TD*%
D16*
%TO.P,C7,1*%
%TO.N,+5VP*%
X151725000Y-92850000D03*
%TO.P,C7,2*%
%TO.N,GND*%
X153275000Y-92850000D03*
%TD*%
D23*
%TO.P,U3,1,GND*%
%TO.N,GND*%
X153700000Y-100375000D03*
%TO.P,U3,2,MODE/SYNC*%
X153100000Y-100375000D03*
%TO.P,U3,3,VIN*%
%TO.N,VCC*%
X152500000Y-100375000D03*
%TO.P,U3,4,EN*%
X151900000Y-100375000D03*
%TO.P,U3,5,PG*%
%TO.N,unconnected-(U3-Pad5)*%
X151300000Y-100375000D03*
%TO.P,U3,6,VOUT*%
%TO.N,+5VP*%
X151300000Y-97325000D03*
%TO.P,U3,7,FB*%
X151900000Y-97325000D03*
%TO.P,U3,8*%
%TO.N,unconnected-(U3-Pad8)*%
X152500000Y-97325000D03*
%TO.P,U3,9*%
%TO.N,unconnected-(U3-Pad9)*%
X153100000Y-97325000D03*
%TO.P,U3,10*%
%TO.N,unconnected-(U3-Pad10)*%
X153700000Y-97325000D03*
D24*
%TO.P,U3,11,GND*%
%TO.N,GND*%
X153530000Y-99025000D03*
X151470000Y-99025000D03*
D25*
X152500000Y-99025000D03*
D24*
X152500000Y-99025000D03*
%TD*%
D22*
%TO.P,C9,1*%
%TO.N,+5V*%
X148950000Y-88600000D03*
%TO.P,C9,2*%
%TO.N,GND*%
X147050000Y-88600000D03*
%TD*%
D26*
%TO.N,VCC*%
X134700000Y-105900000D03*
X144700000Y-105900000D03*
%TO.N,GND*%
X136300000Y-86900000D03*
X130400000Y-104500000D03*
X130300000Y-93200000D03*
X150400000Y-108000000D03*
X130300000Y-93200000D03*
X149000000Y-106624500D03*
X143100000Y-107200000D03*
X142900000Y-96400000D03*
X126900000Y-104500000D03*
X144882745Y-90252461D03*
X131500000Y-104500000D03*
X130300000Y-93200000D03*
%TO.N,+5V*%
X129500000Y-94800000D03*
X143775500Y-94002736D03*
X134800000Y-96600000D03*
X148000000Y-92900000D03*
%TO.N,+1V8*%
X150417581Y-96642180D03*
X131500000Y-99100000D03*
X132400000Y-94600000D03*
X148800000Y-113100000D03*
X151700000Y-103800000D03*
X151000000Y-106124598D03*
X143281274Y-90156221D03*
X140500000Y-94650000D03*
X148900000Y-107800000D03*
%TO.N,+5VA*%
X144000000Y-101600000D03*
X126100000Y-97600000D03*
%TO.N,SCL_5v*%
X143900000Y-93000000D03*
X138600000Y-92700000D03*
%TO.N,SDA_1.8V*%
X153900000Y-113200000D03*
X150000000Y-111775500D03*
%TO.N,SDA_5v*%
X139700000Y-91900000D03*
X143900000Y-91900000D03*
%TO.N,Net-(J4-Pad1)*%
X128800000Y-104000000D03*
X142850000Y-101600000D03*
%TD*%
D27*
%TO.N,VCC*%
X125600000Y-104900000D02*
X125600000Y-101400000D01*
X144700000Y-105900000D02*
X150200000Y-105900000D01*
X149000000Y-100850000D02*
X149600000Y-101450000D01*
X152350000Y-101450000D02*
X152500000Y-101300000D01*
X151900000Y-101200000D02*
X152150000Y-101450000D01*
X134700000Y-105900000D02*
X144700000Y-105900000D01*
X149750000Y-103850000D02*
X151050000Y-103850000D01*
X134700000Y-105900000D02*
X126600000Y-105900000D01*
X149600000Y-101450000D02*
X150350000Y-101450000D01*
X125600000Y-101400000D02*
X127400000Y-99600000D01*
X126600000Y-105900000D02*
X125600000Y-104900000D01*
X148975000Y-97850000D02*
X149550000Y-97850000D01*
X152250000Y-101450000D02*
X152150000Y-101450000D01*
X149950000Y-98250000D02*
X150350000Y-98650000D01*
X148975000Y-98250000D02*
X149950000Y-98250000D01*
X151050000Y-102550000D02*
X151050000Y-103850000D01*
X150350000Y-98650000D02*
X150350000Y-101450000D01*
X152150000Y-101450000D02*
X152350000Y-101450000D01*
X150350000Y-101450000D02*
X152150000Y-101450000D01*
X153200000Y-102400000D02*
X152250000Y-101450000D01*
X151050000Y-103850000D02*
X151050000Y-105050000D01*
X152150000Y-101450000D02*
X151050000Y-102550000D01*
X152500000Y-101300000D02*
X152500000Y-100375000D01*
X151900000Y-100375000D02*
X151900000Y-101200000D01*
X150200000Y-105900000D02*
X151050000Y-105050000D01*
%TO.N,GND*%
X153700000Y-99195000D02*
X153530000Y-99025000D01*
X154500000Y-98500000D02*
X154500000Y-111200000D01*
X154500000Y-96500000D02*
X154200000Y-96200000D01*
X153530000Y-99025000D02*
X153975000Y-99025000D01*
X146675500Y-106624500D02*
X146500000Y-106800000D01*
X153400000Y-111800000D02*
X152500000Y-110900000D01*
X149000000Y-106624500D02*
X146675500Y-106624500D01*
X152500000Y-110900000D02*
X151100000Y-110900000D01*
X154500000Y-98500000D02*
X154500000Y-96500000D01*
X153975000Y-99025000D02*
X154500000Y-98500000D01*
X154500000Y-111200000D02*
X153900000Y-111800000D01*
X153900000Y-111800000D02*
X153400000Y-111800000D01*
X147050000Y-88600000D02*
X146535206Y-88600000D01*
X153700000Y-100375000D02*
X153700000Y-99195000D01*
X146535206Y-88600000D02*
X144882745Y-90252461D01*
%TO.N,+5VP*%
X148500000Y-95900000D02*
X150675000Y-95900000D01*
X151300000Y-96500000D02*
X151300000Y-97325000D01*
X150700000Y-95900000D02*
X150750000Y-95950000D01*
X151900000Y-97325000D02*
X151900000Y-96400000D01*
X151900000Y-96400000D02*
X151450000Y-95950000D01*
X151725000Y-94850000D02*
X151725000Y-92850000D01*
X151450000Y-95950000D02*
X150750000Y-95950000D01*
X148000000Y-95400000D02*
X148500000Y-95900000D01*
X150675000Y-95900000D02*
X150700000Y-95900000D01*
X150750000Y-95950000D02*
X151300000Y-96500000D01*
X150675000Y-95900000D02*
X151725000Y-94850000D01*
X148000000Y-94550000D02*
X148000000Y-95400000D01*
%TO.N,+5V*%
X149475000Y-88600000D02*
X148950000Y-88600000D01*
X148000000Y-90500000D02*
X148400000Y-90100000D01*
X142300000Y-85600000D02*
X143100000Y-86400000D01*
X142800000Y-86700000D02*
X142800000Y-88350000D01*
X136100000Y-85600000D02*
X142300000Y-85600000D01*
X134815000Y-86885000D02*
X136100000Y-85600000D01*
X129200000Y-94800000D02*
X127400000Y-96600000D01*
X143775500Y-94002736D02*
X146259771Y-94002736D01*
X148000000Y-91450000D02*
X148000000Y-90500000D01*
X143100000Y-86400000D02*
X142800000Y-86700000D01*
X147362507Y-92900000D02*
X148000000Y-92900000D01*
X127400000Y-96600000D02*
X134800000Y-96600000D01*
X151675000Y-90900000D02*
X151725000Y-90850000D01*
X146259771Y-94002736D02*
X147362507Y-92900000D01*
X148400000Y-90100000D02*
X149800000Y-90100000D01*
X148950000Y-88600000D02*
X148950000Y-87550000D01*
X148000000Y-92900000D02*
X148000000Y-91450000D01*
X129500000Y-94800000D02*
X129200000Y-94800000D01*
X134815000Y-89000000D02*
X134815000Y-86885000D01*
X149800000Y-90100000D02*
X150600000Y-90900000D01*
X148950000Y-87550000D02*
X147800000Y-86400000D01*
X150600000Y-90900000D02*
X151675000Y-90900000D01*
X149800000Y-88925000D02*
X149475000Y-88600000D01*
X149800000Y-90100000D02*
X149800000Y-88925000D01*
X147800000Y-86400000D02*
X143100000Y-86400000D01*
%TO.N,+1V8*%
X132400000Y-94650000D02*
X141250000Y-94650000D01*
X145845327Y-96642180D02*
X144637507Y-97850000D01*
X151700000Y-105400000D02*
X151712299Y-105412299D01*
X144637507Y-97850000D02*
X143950000Y-97850000D01*
X140500000Y-88350000D02*
X140500000Y-89750000D01*
X140750000Y-90000000D02*
X140906221Y-90156221D01*
X150417581Y-96642180D02*
X145845327Y-96642180D01*
X143950000Y-95150000D02*
X143950000Y-97850000D01*
X151700000Y-103800000D02*
X151700000Y-105400000D01*
X140500000Y-94650000D02*
X143450000Y-94650000D01*
X140500000Y-89750000D02*
X140750000Y-90000000D01*
X148800000Y-113100000D02*
X148800000Y-108000000D01*
X127400000Y-102600000D02*
X130900000Y-99100000D01*
X143450000Y-94650000D02*
X143950000Y-95150000D01*
X130900000Y-99100000D02*
X131500000Y-99100000D01*
X151000000Y-106124598D02*
X151712299Y-105412299D01*
X148900000Y-107900000D02*
X148800000Y-108000000D01*
X140906221Y-90156221D02*
X143281274Y-90156221D01*
%TO.N,+5VA*%
X140500000Y-98100000D02*
X126600000Y-98100000D01*
X126600000Y-98100000D02*
X126100000Y-97600000D01*
X144000000Y-101600000D02*
X140500000Y-98100000D01*
%TO.N,Net-(D1-Pad1)*%
X151800000Y-108200000D02*
X152600000Y-109000000D01*
X151800000Y-106300000D02*
X151800000Y-108200000D01*
X153200000Y-104900000D02*
X151800000Y-106300000D01*
X152600000Y-109000000D02*
X153400000Y-109000000D01*
%TO.N,Net-(D1-Pad2)*%
X145100000Y-109000000D02*
X147600000Y-109000000D01*
X144270000Y-111000000D02*
X144270000Y-109830000D01*
X144270000Y-109830000D02*
X145100000Y-109000000D01*
%TO.N,SCL_5v*%
X142099022Y-92700000D02*
X142399022Y-93000000D01*
X142399022Y-93000000D02*
X143900000Y-93000000D01*
X138600000Y-92700000D02*
X142099022Y-92700000D01*
%TO.N,SDA_1.8V*%
X150000000Y-111775500D02*
X152475500Y-111775500D01*
X152475500Y-111775500D02*
X153900000Y-113200000D01*
%TO.N,SDA_5v*%
X139700000Y-91900000D02*
X143900000Y-91900000D01*
%TO.N,Net-(J4-Pad1)*%
X142850000Y-101600000D02*
X131200000Y-101600000D01*
X131200000Y-101600000D02*
X128800000Y-104000000D01*
%TD*%
%TA.AperFunction,Conductor*%
%TO.N,GND*%
G36*
X125707197Y-105903555D02*
G01*
X125713780Y-105909684D01*
X126096343Y-106292247D01*
X126103887Y-106300537D01*
X126108000Y-106307018D01*
X126113777Y-106312443D01*
X126157667Y-106353658D01*
X126160509Y-106356413D01*
X126180231Y-106376135D01*
X126183355Y-106378558D01*
X126183359Y-106378562D01*
X126183424Y-106378612D01*
X126192445Y-106386317D01*
X126224679Y-106416586D01*
X126231627Y-106420405D01*
X126231629Y-106420407D01*
X126242432Y-106426346D01*
X126258959Y-106437202D01*
X126268698Y-106444757D01*
X126268700Y-106444758D01*
X126274960Y-106449614D01*
X126315540Y-106467174D01*
X126326188Y-106472391D01*
X126364940Y-106493695D01*
X126372616Y-106495666D01*
X126372619Y-106495667D01*
X126384562Y-106498733D01*
X126403267Y-106505137D01*
X126421855Y-106513181D01*
X126429678Y-106514420D01*
X126429688Y-106514423D01*
X126465524Y-106520099D01*
X126477144Y-106522505D01*
X126512289Y-106531528D01*
X126519970Y-106533500D01*
X126540224Y-106533500D01*
X126559934Y-106535051D01*
X126579943Y-106538220D01*
X126587835Y-106537474D01*
X126623961Y-106534059D01*
X126635819Y-106533500D01*
X133991800Y-106533500D01*
X134059921Y-106553502D01*
X134079147Y-106569843D01*
X134079420Y-106569540D01*
X134084332Y-106573963D01*
X134088747Y-106578866D01*
X134094086Y-106582745D01*
X134209296Y-106666450D01*
X134243248Y-106691118D01*
X134249276Y-106693802D01*
X134249278Y-106693803D01*
X134411681Y-106766109D01*
X134417712Y-106768794D01*
X134511113Y-106788647D01*
X134598056Y-106807128D01*
X134598061Y-106807128D01*
X134604513Y-106808500D01*
X134795487Y-106808500D01*
X134801939Y-106807128D01*
X134801944Y-106807128D01*
X134888888Y-106788647D01*
X134982288Y-106768794D01*
X134988319Y-106766109D01*
X135150722Y-106693803D01*
X135150724Y-106693802D01*
X135156752Y-106691118D01*
X135190705Y-106666450D01*
X135305914Y-106582745D01*
X135311253Y-106578866D01*
X135315668Y-106573963D01*
X135320580Y-106569540D01*
X135321705Y-106570789D01*
X135375014Y-106537949D01*
X135408200Y-106533500D01*
X143991800Y-106533500D01*
X144059921Y-106553502D01*
X144079147Y-106569843D01*
X144079420Y-106569540D01*
X144084332Y-106573963D01*
X144088747Y-106578866D01*
X144094086Y-106582745D01*
X144209296Y-106666450D01*
X144243248Y-106691118D01*
X144249276Y-106693802D01*
X144249278Y-106693803D01*
X144411681Y-106766109D01*
X144417712Y-106768794D01*
X144511113Y-106788647D01*
X144598056Y-106807128D01*
X144598061Y-106807128D01*
X144604513Y-106808500D01*
X144795487Y-106808500D01*
X144801939Y-106807128D01*
X144801944Y-106807128D01*
X144888888Y-106788647D01*
X144982288Y-106768794D01*
X144988319Y-106766109D01*
X145150722Y-106693803D01*
X145150724Y-106693802D01*
X145156752Y-106691118D01*
X145190705Y-106666450D01*
X145305914Y-106582745D01*
X145311253Y-106578866D01*
X145315668Y-106573963D01*
X145320580Y-106569540D01*
X145321705Y-106570789D01*
X145375014Y-106537949D01*
X145408200Y-106533500D01*
X150114289Y-106533500D01*
X150182410Y-106553502D01*
X150223407Y-106596499D01*
X150260960Y-106661542D01*
X150265378Y-106666449D01*
X150265379Y-106666450D01*
X150384325Y-106798553D01*
X150388747Y-106803464D01*
X150543248Y-106915716D01*
X150549276Y-106918400D01*
X150549278Y-106918401D01*
X150691460Y-106981704D01*
X150717712Y-106993392D01*
X150808845Y-107012763D01*
X150898056Y-107031726D01*
X150898061Y-107031726D01*
X150904513Y-107033098D01*
X151040500Y-107033098D01*
X151108621Y-107053100D01*
X151155114Y-107106756D01*
X151166500Y-107159098D01*
X151166500Y-108121233D01*
X151165973Y-108132416D01*
X151164298Y-108139909D01*
X151164547Y-108147835D01*
X151164547Y-108147836D01*
X151166438Y-108207986D01*
X151166500Y-108211945D01*
X151166500Y-108239856D01*
X151166997Y-108243790D01*
X151166997Y-108243791D01*
X151167005Y-108243856D01*
X151167938Y-108255693D01*
X151169327Y-108299889D01*
X151174978Y-108319339D01*
X151178987Y-108338700D01*
X151181526Y-108358797D01*
X151184445Y-108366168D01*
X151184445Y-108366170D01*
X151197804Y-108399912D01*
X151201649Y-108411142D01*
X151213982Y-108453593D01*
X151218015Y-108460412D01*
X151218017Y-108460417D01*
X151224293Y-108471028D01*
X151232988Y-108488776D01*
X151240448Y-108507617D01*
X151245110Y-108514033D01*
X151245110Y-108514034D01*
X151266436Y-108543387D01*
X151272952Y-108553307D01*
X151287185Y-108577373D01*
X151295458Y-108591362D01*
X151309779Y-108605683D01*
X151322619Y-108620716D01*
X151334528Y-108637107D01*
X151340633Y-108642158D01*
X151340638Y-108642163D01*
X151368604Y-108665299D01*
X151377382Y-108673287D01*
X152096348Y-109392253D01*
X152103888Y-109400539D01*
X152108000Y-109407018D01*
X152113777Y-109412443D01*
X152157651Y-109453643D01*
X152160493Y-109456398D01*
X152179595Y-109475500D01*
X152213621Y-109537812D01*
X152216500Y-109564595D01*
X152216500Y-110475400D01*
X152216837Y-110478646D01*
X152216837Y-110478650D01*
X152219199Y-110501409D01*
X152227474Y-110581166D01*
X152283450Y-110748946D01*
X152376522Y-110899348D01*
X152381704Y-110904521D01*
X152404049Y-110926827D01*
X152438128Y-110989109D01*
X152433125Y-111059929D01*
X152390628Y-111116802D01*
X152324129Y-111141671D01*
X152315031Y-111142000D01*
X150708200Y-111142000D01*
X150640079Y-111121998D01*
X150620853Y-111105657D01*
X150620580Y-111105960D01*
X150615668Y-111101537D01*
X150611253Y-111096634D01*
X150504584Y-111019134D01*
X150462094Y-110988263D01*
X150462093Y-110988262D01*
X150456752Y-110984382D01*
X150450724Y-110981698D01*
X150450722Y-110981697D01*
X150288319Y-110909391D01*
X150288318Y-110909391D01*
X150282288Y-110906706D01*
X150188888Y-110886853D01*
X150101944Y-110868372D01*
X150101939Y-110868372D01*
X150095487Y-110867000D01*
X149904513Y-110867000D01*
X149898061Y-110868372D01*
X149898056Y-110868372D01*
X149811113Y-110886853D01*
X149717712Y-110906706D01*
X149610748Y-110954329D01*
X149540382Y-110963763D01*
X149476085Y-110933657D01*
X149438271Y-110873568D01*
X149433500Y-110839222D01*
X149433500Y-108599557D01*
X149453502Y-108531436D01*
X149485439Y-108497621D01*
X149505909Y-108482749D01*
X149505911Y-108482747D01*
X149511253Y-108478866D01*
X149552560Y-108432990D01*
X149634621Y-108341852D01*
X149634622Y-108341851D01*
X149639040Y-108336944D01*
X149734527Y-108171556D01*
X149793542Y-107989928D01*
X149813504Y-107800000D01*
X149793542Y-107610072D01*
X149734527Y-107428444D01*
X149639040Y-107263056D01*
X149511253Y-107121134D01*
X149388194Y-107031726D01*
X149362094Y-107012763D01*
X149362093Y-107012762D01*
X149356752Y-107008882D01*
X149350724Y-107006198D01*
X149350722Y-107006197D01*
X149188319Y-106933891D01*
X149188318Y-106933891D01*
X149182288Y-106931206D01*
X149088887Y-106911353D01*
X149001944Y-106892872D01*
X149001939Y-106892872D01*
X148995487Y-106891500D01*
X148804513Y-106891500D01*
X148798061Y-106892872D01*
X148798056Y-106892872D01*
X148677954Y-106918401D01*
X148617712Y-106931206D01*
X148611679Y-106933892D01*
X148611676Y-106933893D01*
X148567227Y-106953683D01*
X148496860Y-106963117D01*
X148449863Y-106945836D01*
X148353968Y-106886725D01*
X148353966Y-106886724D01*
X148347738Y-106882885D01*
X148187254Y-106829655D01*
X148186389Y-106829368D01*
X148186387Y-106829368D01*
X148179861Y-106827203D01*
X148173025Y-106826503D01*
X148173022Y-106826502D01*
X148129969Y-106822091D01*
X148075400Y-106816500D01*
X147124600Y-106816500D01*
X147121354Y-106816837D01*
X147121350Y-106816837D01*
X147025692Y-106826762D01*
X147025688Y-106826763D01*
X147018834Y-106827474D01*
X147012298Y-106829655D01*
X147012296Y-106829655D01*
X146974356Y-106842313D01*
X146851054Y-106883450D01*
X146700652Y-106976522D01*
X146575695Y-107101697D01*
X146571855Y-107107927D01*
X146571854Y-107107928D01*
X146560687Y-107126045D01*
X146482885Y-107252262D01*
X146427203Y-107420139D01*
X146416500Y-107524600D01*
X146416500Y-108240500D01*
X146396498Y-108308621D01*
X146342842Y-108355114D01*
X146290500Y-108366500D01*
X145178767Y-108366500D01*
X145167584Y-108365973D01*
X145160091Y-108364298D01*
X145152165Y-108364547D01*
X145152164Y-108364547D01*
X145092014Y-108366438D01*
X145088055Y-108366500D01*
X145060144Y-108366500D01*
X145056210Y-108366997D01*
X145056209Y-108366997D01*
X145056144Y-108367005D01*
X145044307Y-108367938D01*
X145012490Y-108368938D01*
X145008029Y-108369078D01*
X145000110Y-108369327D01*
X144982454Y-108374456D01*
X144980658Y-108374978D01*
X144961306Y-108378986D01*
X144954235Y-108379880D01*
X144941203Y-108381526D01*
X144933834Y-108384443D01*
X144933832Y-108384444D01*
X144900097Y-108397800D01*
X144888869Y-108401645D01*
X144846407Y-108413982D01*
X144839585Y-108418016D01*
X144839579Y-108418019D01*
X144828968Y-108424294D01*
X144811218Y-108432990D01*
X144799756Y-108437528D01*
X144799751Y-108437531D01*
X144792383Y-108440448D01*
X144785968Y-108445109D01*
X144756625Y-108466427D01*
X144746707Y-108472943D01*
X144735514Y-108479563D01*
X144708637Y-108495458D01*
X144694313Y-108509782D01*
X144679281Y-108522621D01*
X144662893Y-108534528D01*
X144647358Y-108553307D01*
X144634712Y-108568593D01*
X144626722Y-108577373D01*
X143877747Y-109326348D01*
X143869461Y-109333888D01*
X143862982Y-109338000D01*
X143857557Y-109343777D01*
X143816357Y-109387651D01*
X143813602Y-109390493D01*
X143793865Y-109410230D01*
X143791385Y-109413427D01*
X143783682Y-109422447D01*
X143753414Y-109454679D01*
X143753147Y-109454429D01*
X143703354Y-109493685D01*
X143612402Y-109531358D01*
X143542072Y-109560489D01*
X143542068Y-109560491D01*
X143537498Y-109562384D01*
X143533279Y-109564969D01*
X143533268Y-109564975D01*
X143412186Y-109639175D01*
X143343653Y-109657714D01*
X143275976Y-109636258D01*
X143245525Y-109607308D01*
X143198285Y-109544276D01*
X143185724Y-109531715D01*
X143083649Y-109455214D01*
X143068054Y-109446676D01*
X142947606Y-109401522D01*
X142932351Y-109397895D01*
X142881486Y-109392369D01*
X142874672Y-109392000D01*
X142002115Y-109392000D01*
X141986876Y-109396475D01*
X141985671Y-109397865D01*
X141984000Y-109405548D01*
X141984000Y-111128000D01*
X141963998Y-111196121D01*
X141910342Y-111242614D01*
X141858000Y-111254000D01*
X140140116Y-111254000D01*
X140124877Y-111258475D01*
X140123672Y-111259865D01*
X140122001Y-111267548D01*
X140122001Y-112144669D01*
X140122371Y-112151490D01*
X140127895Y-112202352D01*
X140131521Y-112217604D01*
X140176676Y-112338054D01*
X140185214Y-112353649D01*
X140261715Y-112455724D01*
X140274276Y-112468285D01*
X140376351Y-112544786D01*
X140391946Y-112553324D01*
X140512394Y-112598478D01*
X140527649Y-112602105D01*
X140578514Y-112607631D01*
X140585328Y-112608000D01*
X140859435Y-112608000D01*
X140927556Y-112628002D01*
X140974049Y-112681658D01*
X140984153Y-112751932D01*
X140956519Y-112814316D01*
X140882496Y-112903794D01*
X140848217Y-112945230D01*
X140845288Y-112950647D01*
X140845286Y-112950650D01*
X140752416Y-113122410D01*
X140752414Y-113122415D01*
X140749486Y-113127830D01*
X140688102Y-113326129D01*
X140687458Y-113332254D01*
X140687458Y-113332255D01*
X140681397Y-113389928D01*
X140666404Y-113532575D01*
X140685218Y-113739303D01*
X140686956Y-113745209D01*
X140686957Y-113745213D01*
X140696862Y-113778866D01*
X140743827Y-113938440D01*
X140839999Y-114122400D01*
X140969960Y-114284039D01*
X140970071Y-114284177D01*
X140970045Y-114284198D01*
X141002357Y-114344875D01*
X140996551Y-114415634D01*
X140953412Y-114472021D01*
X140886636Y-114496134D01*
X140879009Y-114496368D01*
X140074965Y-114496631D01*
X138119698Y-114497272D01*
X138051571Y-114477292D01*
X138005061Y-114423652D01*
X137994934Y-114353381D01*
X138022572Y-114290958D01*
X138151783Y-114134770D01*
X138155876Y-114127201D01*
X138247584Y-113957590D01*
X138247586Y-113957585D01*
X138250514Y-113952170D01*
X138311898Y-113753871D01*
X138313677Y-113736944D01*
X138332952Y-113553554D01*
X138332952Y-113553552D01*
X138333596Y-113547425D01*
X138319834Y-113396206D01*
X138315341Y-113346836D01*
X138315340Y-113346833D01*
X138314782Y-113340697D01*
X138312298Y-113332255D01*
X138269527Y-113186932D01*
X138256173Y-113141560D01*
X138160001Y-112957600D01*
X138029929Y-112795823D01*
X138025210Y-112791863D01*
X138025209Y-112791862D01*
X137894119Y-112681864D01*
X137854793Y-112622755D01*
X137853667Y-112551767D01*
X137891098Y-112491439D01*
X137926892Y-112468935D01*
X137957919Y-112456083D01*
X137997928Y-112439511D01*
X137997932Y-112439509D01*
X138002502Y-112437616D01*
X138218376Y-112305328D01*
X138410898Y-112140898D01*
X138575328Y-111948376D01*
X138707616Y-111732502D01*
X138804505Y-111498591D01*
X138835741Y-111368482D01*
X138862454Y-111257216D01*
X138862455Y-111257210D01*
X138863609Y-111252403D01*
X138883474Y-111000000D01*
X138863609Y-110747597D01*
X138862152Y-110741525D01*
X138858877Y-110727885D01*
X140122000Y-110727885D01*
X140126475Y-110743124D01*
X140127865Y-110744329D01*
X140135548Y-110746000D01*
X141457885Y-110746000D01*
X141473124Y-110741525D01*
X141474329Y-110740135D01*
X141476000Y-110732452D01*
X141476000Y-109410116D01*
X141471525Y-109394877D01*
X141470135Y-109393672D01*
X141462452Y-109392001D01*
X140585331Y-109392001D01*
X140578510Y-109392371D01*
X140527648Y-109397895D01*
X140512396Y-109401521D01*
X140391946Y-109446676D01*
X140376351Y-109455214D01*
X140274276Y-109531715D01*
X140261715Y-109544276D01*
X140185214Y-109646351D01*
X140176676Y-109661946D01*
X140131522Y-109782394D01*
X140127895Y-109797649D01*
X140122369Y-109848514D01*
X140122000Y-109855328D01*
X140122000Y-110727885D01*
X138858877Y-110727885D01*
X138805660Y-110506221D01*
X138804505Y-110501409D01*
X138707616Y-110267498D01*
X138575328Y-110051624D01*
X138410898Y-109859102D01*
X138406132Y-109855031D01*
X138320957Y-109782285D01*
X138218376Y-109694672D01*
X138002502Y-109562384D01*
X137997932Y-109560491D01*
X137997928Y-109560489D01*
X137773164Y-109467389D01*
X137773162Y-109467388D01*
X137768591Y-109465495D01*
X137683968Y-109445179D01*
X137527216Y-109407546D01*
X137527210Y-109407545D01*
X137522403Y-109406391D01*
X137270000Y-109386526D01*
X137017597Y-109406391D01*
X137012790Y-109407545D01*
X137012784Y-109407546D01*
X136856032Y-109445179D01*
X136771409Y-109465495D01*
X136766838Y-109467388D01*
X136766836Y-109467389D01*
X136542072Y-109560489D01*
X136542068Y-109560491D01*
X136537498Y-109562384D01*
X136533278Y-109564970D01*
X136412614Y-109638913D01*
X136344080Y-109657451D01*
X136276404Y-109635995D01*
X136245953Y-109607046D01*
X136214754Y-109565417D01*
X136193261Y-109536739D01*
X136076705Y-109449385D01*
X135940316Y-109398255D01*
X135878134Y-109391500D01*
X133581866Y-109391500D01*
X133519684Y-109398255D01*
X133383295Y-109449385D01*
X133266739Y-109536739D01*
X133179385Y-109653295D01*
X133128255Y-109789684D01*
X133121500Y-109851866D01*
X133121500Y-112148134D01*
X133128255Y-112210316D01*
X133179385Y-112346705D01*
X133266739Y-112463261D01*
X133383295Y-112550615D01*
X133519684Y-112601745D01*
X133581866Y-112608500D01*
X133859022Y-112608500D01*
X133927143Y-112628502D01*
X133973636Y-112682158D01*
X133983740Y-112752432D01*
X133956106Y-112814815D01*
X133848217Y-112945230D01*
X133845288Y-112950647D01*
X133845286Y-112950650D01*
X133752416Y-113122410D01*
X133752414Y-113122415D01*
X133749486Y-113127830D01*
X133688102Y-113326129D01*
X133687458Y-113332254D01*
X133687458Y-113332255D01*
X133681397Y-113389928D01*
X133666404Y-113532575D01*
X133685218Y-113739303D01*
X133686956Y-113745209D01*
X133686957Y-113745213D01*
X133696862Y-113778866D01*
X133743827Y-113938440D01*
X133839999Y-114122400D01*
X133843859Y-114127200D01*
X133843859Y-114127201D01*
X133966212Y-114279378D01*
X133966215Y-114279381D01*
X133970071Y-114284177D01*
X133971858Y-114285676D01*
X134004605Y-114347173D01*
X133998797Y-114417932D01*
X133955656Y-114474318D01*
X133888880Y-114498429D01*
X133881267Y-114498663D01*
X131117797Y-114499569D01*
X131049672Y-114479589D01*
X131003162Y-114425949D01*
X130993035Y-114355678D01*
X131020673Y-114293253D01*
X131151783Y-114134770D01*
X131155876Y-114127201D01*
X131247584Y-113957590D01*
X131247586Y-113957585D01*
X131250514Y-113952170D01*
X131311898Y-113753871D01*
X131313677Y-113736944D01*
X131332952Y-113553554D01*
X131332952Y-113553552D01*
X131333596Y-113547425D01*
X131319834Y-113396206D01*
X131315341Y-113346836D01*
X131315340Y-113346833D01*
X131314782Y-113340697D01*
X131312298Y-113332255D01*
X131269527Y-113186932D01*
X131256173Y-113141560D01*
X131160001Y-112957600D01*
X131029929Y-112795823D01*
X131025209Y-112791862D01*
X130893688Y-112681503D01*
X130854361Y-112622393D01*
X130853235Y-112551405D01*
X130890666Y-112491078D01*
X130926461Y-112468572D01*
X130997700Y-112439064D01*
X131006494Y-112434583D01*
X131201167Y-112315287D01*
X131210627Y-112304830D01*
X131206844Y-112296054D01*
X129999885Y-111089095D01*
X129965859Y-111026783D01*
X129967694Y-111001132D01*
X130634408Y-111001132D01*
X130634539Y-111002965D01*
X130638790Y-111009580D01*
X131563010Y-111933800D01*
X131575390Y-111940560D01*
X131583040Y-111934833D01*
X131704583Y-111736494D01*
X131709064Y-111727700D01*
X131802134Y-111503009D01*
X131805183Y-111493624D01*
X131861959Y-111257137D01*
X131863502Y-111247390D01*
X131882584Y-111004930D01*
X131882584Y-110995070D01*
X131863502Y-110752610D01*
X131861959Y-110742863D01*
X131805183Y-110506376D01*
X131802134Y-110496991D01*
X131709064Y-110272300D01*
X131704583Y-110263506D01*
X131585287Y-110068833D01*
X131574830Y-110059373D01*
X131566054Y-110063156D01*
X130642022Y-110987188D01*
X130634408Y-111001132D01*
X129967694Y-111001132D01*
X129970924Y-110955968D01*
X129999885Y-110910905D01*
X131203800Y-109706990D01*
X131210560Y-109694610D01*
X131204833Y-109686960D01*
X131006494Y-109565417D01*
X130997700Y-109560936D01*
X130773009Y-109467866D01*
X130763624Y-109464817D01*
X130527137Y-109408041D01*
X130517390Y-109406498D01*
X130274930Y-109387416D01*
X130265070Y-109387416D01*
X130022610Y-109406498D01*
X130012863Y-109408041D01*
X129776376Y-109464817D01*
X129766991Y-109467866D01*
X129542300Y-109560936D01*
X129533506Y-109565417D01*
X129412915Y-109639315D01*
X129344381Y-109657853D01*
X129276704Y-109636396D01*
X129246254Y-109607447D01*
X129198643Y-109543920D01*
X129198642Y-109543919D01*
X129193261Y-109536739D01*
X129076705Y-109449385D01*
X128940316Y-109398255D01*
X128878134Y-109391500D01*
X126581866Y-109391500D01*
X126519684Y-109398255D01*
X126383295Y-109449385D01*
X126266739Y-109536739D01*
X126179385Y-109653295D01*
X126128255Y-109789684D01*
X126121500Y-109851866D01*
X126121500Y-112148134D01*
X126128255Y-112210316D01*
X126179385Y-112346705D01*
X126266739Y-112463261D01*
X126383295Y-112550615D01*
X126519684Y-112601745D01*
X126581866Y-112608500D01*
X126859022Y-112608500D01*
X126927143Y-112628502D01*
X126973636Y-112682158D01*
X126983740Y-112752432D01*
X126956106Y-112814815D01*
X126848217Y-112945230D01*
X126845288Y-112950647D01*
X126845286Y-112950650D01*
X126752416Y-113122410D01*
X126752414Y-113122415D01*
X126749486Y-113127830D01*
X126688102Y-113326129D01*
X126687458Y-113332254D01*
X126687458Y-113332255D01*
X126681397Y-113389928D01*
X126666404Y-113532575D01*
X126685218Y-113739303D01*
X126686956Y-113745209D01*
X126686957Y-113745213D01*
X126696862Y-113778866D01*
X126743827Y-113938440D01*
X126839999Y-114122400D01*
X126970071Y-114284177D01*
X126973710Y-114287230D01*
X127006851Y-114349464D01*
X127001045Y-114420222D01*
X126957906Y-114476610D01*
X126891130Y-114500723D01*
X126883498Y-114500957D01*
X126813555Y-114500980D01*
X125839949Y-114501299D01*
X125820528Y-114499799D01*
X125811728Y-114498429D01*
X125805827Y-114497510D01*
X125805825Y-114497510D01*
X125796956Y-114496129D01*
X125788056Y-114497293D01*
X125779080Y-114497183D01*
X125779090Y-114496364D01*
X125757599Y-114496074D01*
X125743355Y-114493818D01*
X125720160Y-114490144D01*
X125682670Y-114477962D01*
X125636832Y-114454607D01*
X125604939Y-114431435D01*
X125568565Y-114395061D01*
X125545393Y-114363169D01*
X125542000Y-114356510D01*
X125522036Y-114317326D01*
X125509855Y-114279836D01*
X125509783Y-114279378D01*
X125504062Y-114243258D01*
X125502631Y-114223548D01*
X125503871Y-114215584D01*
X125499749Y-114184062D01*
X125498685Y-114167725D01*
X125498685Y-105998779D01*
X125518687Y-105930658D01*
X125572343Y-105884165D01*
X125642617Y-105874061D01*
X125707197Y-105903555D01*
G37*
%TD.AperFunction*%
%TA.AperFunction,Conductor*%
G36*
X154423233Y-111018094D02*
G01*
X154474835Y-111066856D01*
X154492000Y-111130345D01*
X154492000Y-112275075D01*
X154471998Y-112343196D01*
X154418342Y-112389689D01*
X154348068Y-112399793D01*
X154314751Y-112390182D01*
X154188319Y-112333891D01*
X154188318Y-112333891D01*
X154182288Y-112331206D01*
X154072690Y-112307910D01*
X154001944Y-112292872D01*
X154001939Y-112292872D01*
X153995487Y-112291500D01*
X153939595Y-112291500D01*
X153871474Y-112271498D01*
X153850500Y-112254595D01*
X152994500Y-111398595D01*
X152960474Y-111336283D01*
X152965539Y-111265468D01*
X153008086Y-111208632D01*
X153074606Y-111183821D01*
X153083595Y-111183500D01*
X153875400Y-111183500D01*
X153878646Y-111183163D01*
X153878650Y-111183163D01*
X153974308Y-111173238D01*
X153974312Y-111173237D01*
X153981166Y-111172526D01*
X153987702Y-111170345D01*
X153987704Y-111170345D01*
X154132616Y-111121998D01*
X154148946Y-111116550D01*
X154299348Y-111023478D01*
X154301049Y-111026226D01*
X154353460Y-111004971D01*
X154423233Y-111018094D01*
G37*
%TD.AperFunction*%
%TA.AperFunction,Conductor*%
G36*
X147851989Y-97295682D02*
G01*
X147898482Y-97349338D01*
X147908586Y-97419612D01*
X147905697Y-97431862D01*
X147905810Y-97431886D01*
X147904368Y-97438612D01*
X147902203Y-97445139D01*
X147901503Y-97451975D01*
X147901502Y-97451978D01*
X147900014Y-97466500D01*
X147891500Y-97549600D01*
X147891500Y-98950400D01*
X147891837Y-98953646D01*
X147891837Y-98953650D01*
X147901752Y-99049206D01*
X147902474Y-99056166D01*
X147904655Y-99062702D01*
X147904655Y-99062704D01*
X147908256Y-99073498D01*
X147958450Y-99223946D01*
X148051522Y-99374348D01*
X148125829Y-99448525D01*
X148150631Y-99473284D01*
X148184710Y-99535566D01*
X148179707Y-99606386D01*
X148150786Y-99651475D01*
X148075695Y-99726697D01*
X148071855Y-99732927D01*
X148071854Y-99732928D01*
X148019173Y-99818393D01*
X147982885Y-99877262D01*
X147978289Y-99891118D01*
X147939356Y-100008500D01*
X147927203Y-100045139D01*
X147916500Y-100149600D01*
X147916500Y-101550400D01*
X147916837Y-101553646D01*
X147916837Y-101553650D01*
X147926618Y-101647914D01*
X147927474Y-101656166D01*
X147983450Y-101823946D01*
X148076522Y-101974348D01*
X148201697Y-102099305D01*
X148207927Y-102103145D01*
X148207928Y-102103146D01*
X148345288Y-102187816D01*
X148352262Y-102192115D01*
X148432005Y-102218564D01*
X148513611Y-102245632D01*
X148513613Y-102245632D01*
X148520139Y-102247797D01*
X148526975Y-102248497D01*
X148526978Y-102248498D01*
X148570031Y-102252909D01*
X148624600Y-102258500D01*
X148934179Y-102258500D01*
X149002300Y-102278502D01*
X149048793Y-102332158D01*
X149058897Y-102402432D01*
X149029403Y-102467012D01*
X148978408Y-102502482D01*
X148861705Y-102546232D01*
X148861704Y-102546233D01*
X148853295Y-102549385D01*
X148736739Y-102636739D01*
X148649385Y-102753295D01*
X148598255Y-102889684D01*
X148591500Y-102951866D01*
X148591500Y-104748134D01*
X148598255Y-104810316D01*
X148649385Y-104946705D01*
X148685683Y-104995137D01*
X148736739Y-105063261D01*
X148734197Y-105065166D01*
X148760708Y-105113717D01*
X148755643Y-105184532D01*
X148713096Y-105241368D01*
X148646576Y-105266179D01*
X148637587Y-105266500D01*
X147361699Y-105266500D01*
X147293578Y-105246498D01*
X147247085Y-105192842D01*
X147236981Y-105122568D01*
X147263892Y-105063644D01*
X147262904Y-105062904D01*
X147266298Y-105058375D01*
X147266475Y-105057988D01*
X147267056Y-105057364D01*
X147344786Y-104953649D01*
X147353324Y-104938054D01*
X147398478Y-104817606D01*
X147402105Y-104802351D01*
X147407631Y-104751486D01*
X147408000Y-104744672D01*
X147408000Y-104122115D01*
X147403525Y-104106876D01*
X147402135Y-104105671D01*
X147394452Y-104104000D01*
X145110116Y-104104000D01*
X145094877Y-104108475D01*
X145093672Y-104109865D01*
X145092001Y-104117548D01*
X145092001Y-104744669D01*
X145092371Y-104751490D01*
X145097895Y-104802352D01*
X145101521Y-104817603D01*
X145118150Y-104861961D01*
X145123333Y-104932768D01*
X145089412Y-104995137D01*
X145027157Y-105029266D01*
X144973971Y-105029438D01*
X144801944Y-104992872D01*
X144801939Y-104992872D01*
X144795487Y-104991500D01*
X144604513Y-104991500D01*
X144598061Y-104992872D01*
X144598056Y-104992872D01*
X144511113Y-105011353D01*
X144417712Y-105031206D01*
X144411682Y-105033891D01*
X144411681Y-105033891D01*
X144249278Y-105106197D01*
X144249276Y-105106198D01*
X144243248Y-105108882D01*
X144088747Y-105221134D01*
X144084332Y-105226037D01*
X144079420Y-105230460D01*
X144078295Y-105229211D01*
X144024986Y-105262051D01*
X143991800Y-105266500D01*
X135408200Y-105266500D01*
X135340079Y-105246498D01*
X135320853Y-105230157D01*
X135320580Y-105230460D01*
X135315668Y-105226037D01*
X135311253Y-105221134D01*
X135156752Y-105108882D01*
X135150724Y-105106198D01*
X135150722Y-105106197D01*
X134988319Y-105033891D01*
X134988318Y-105033891D01*
X134982288Y-105031206D01*
X134888888Y-105011353D01*
X134801944Y-104992872D01*
X134801939Y-104992872D01*
X134795487Y-104991500D01*
X134604513Y-104991500D01*
X134598061Y-104992872D01*
X134598056Y-104992872D01*
X134511113Y-105011353D01*
X134417712Y-105031206D01*
X134411682Y-105033891D01*
X134411681Y-105033891D01*
X134249278Y-105106197D01*
X134249276Y-105106198D01*
X134243248Y-105108882D01*
X134088747Y-105221134D01*
X134084332Y-105226037D01*
X134079420Y-105230460D01*
X134078295Y-105229211D01*
X134024986Y-105262051D01*
X133991800Y-105266500D01*
X126914595Y-105266500D01*
X126846474Y-105246498D01*
X126825499Y-105229595D01*
X126270404Y-104674499D01*
X126236379Y-104612187D01*
X126233500Y-104585404D01*
X126233500Y-103057464D01*
X126253502Y-102989343D01*
X126307158Y-102942850D01*
X126377432Y-102932746D01*
X126442012Y-102962240D01*
X126471566Y-102999869D01*
X126548187Y-103148956D01*
X126671035Y-103303953D01*
X126675728Y-103307947D01*
X126675729Y-103307948D01*
X126798799Y-103412688D01*
X126821650Y-103432136D01*
X126994294Y-103528624D01*
X127182392Y-103589740D01*
X127378777Y-103613158D01*
X127384912Y-103612686D01*
X127384914Y-103612686D01*
X127569830Y-103598457D01*
X127569834Y-103598456D01*
X127575972Y-103597984D01*
X127766463Y-103544798D01*
X127771971Y-103542016D01*
X127777710Y-103539790D01*
X127778713Y-103542377D01*
X127836863Y-103531742D01*
X127902520Y-103558754D01*
X127943150Y-103616975D01*
X127945854Y-103687920D01*
X127943534Y-103695965D01*
X127906458Y-103810072D01*
X127886496Y-104000000D01*
X127906458Y-104189928D01*
X127965473Y-104371556D01*
X128060960Y-104536944D01*
X128065378Y-104541851D01*
X128065379Y-104541852D01*
X128128709Y-104612187D01*
X128188747Y-104678866D01*
X128343248Y-104791118D01*
X128349276Y-104793802D01*
X128349278Y-104793803D01*
X128511681Y-104866109D01*
X128517712Y-104868794D01*
X128611112Y-104888647D01*
X128698056Y-104907128D01*
X128698061Y-104907128D01*
X128704513Y-104908500D01*
X128895487Y-104908500D01*
X128901939Y-104907128D01*
X128901944Y-104907128D01*
X128988888Y-104888647D01*
X129082288Y-104868794D01*
X129088319Y-104866109D01*
X129250722Y-104793803D01*
X129250724Y-104793802D01*
X129256752Y-104791118D01*
X129411253Y-104678866D01*
X129471291Y-104612187D01*
X129534621Y-104541852D01*
X129534622Y-104541851D01*
X129539040Y-104536944D01*
X129634527Y-104371556D01*
X129693542Y-104189928D01*
X129710907Y-104024706D01*
X129737920Y-103959050D01*
X129747122Y-103948782D01*
X131425499Y-102270405D01*
X131487811Y-102236379D01*
X131514594Y-102233500D01*
X142141800Y-102233500D01*
X142209921Y-102253502D01*
X142229147Y-102269843D01*
X142229420Y-102269540D01*
X142234332Y-102273963D01*
X142238747Y-102278866D01*
X142244420Y-102282988D01*
X142377515Y-102379687D01*
X142393248Y-102391118D01*
X142399276Y-102393802D01*
X142399278Y-102393803D01*
X142561681Y-102466109D01*
X142567712Y-102468794D01*
X142652856Y-102486892D01*
X142748056Y-102507128D01*
X142748061Y-102507128D01*
X142754513Y-102508500D01*
X142945487Y-102508500D01*
X142951939Y-102507128D01*
X142951944Y-102507128D01*
X143047144Y-102486892D01*
X143132288Y-102468794D01*
X143138319Y-102466109D01*
X143300722Y-102393803D01*
X143300724Y-102393802D01*
X143306752Y-102391118D01*
X143322486Y-102379687D01*
X143350939Y-102359014D01*
X143417806Y-102335156D01*
X143486958Y-102351236D01*
X143499061Y-102359014D01*
X143527515Y-102379687D01*
X143543248Y-102391118D01*
X143549276Y-102393802D01*
X143549278Y-102393803D01*
X143711681Y-102466109D01*
X143717712Y-102468794D01*
X143802856Y-102486892D01*
X143898056Y-102507128D01*
X143898061Y-102507128D01*
X143904513Y-102508500D01*
X144095487Y-102508500D01*
X144101939Y-102507128D01*
X144101944Y-102507128D01*
X144197144Y-102486892D01*
X144282288Y-102468794D01*
X144288319Y-102466109D01*
X144450722Y-102393803D01*
X144450724Y-102393802D01*
X144456752Y-102391118D01*
X144472486Y-102379687D01*
X144537903Y-102332158D01*
X144611253Y-102278866D01*
X144615675Y-102273955D01*
X144734621Y-102141852D01*
X144734622Y-102141851D01*
X144739040Y-102136944D01*
X144804972Y-102022747D01*
X144831223Y-101977279D01*
X144831224Y-101977278D01*
X144834527Y-101971556D01*
X144850690Y-101921813D01*
X144890762Y-101863208D01*
X144956159Y-101835571D01*
X145026116Y-101847678D01*
X145077666Y-101894447D01*
X145123063Y-101967807D01*
X145132099Y-101979208D01*
X145246829Y-102093739D01*
X145258240Y-102102751D01*
X145396243Y-102187816D01*
X145409424Y-102193963D01*
X145570241Y-102247304D01*
X145569429Y-102249751D01*
X145621511Y-102277989D01*
X145655721Y-102340199D01*
X145650867Y-102411030D01*
X145608490Y-102467992D01*
X145546287Y-102492612D01*
X145497647Y-102497895D01*
X145482396Y-102501521D01*
X145361946Y-102546676D01*
X145346351Y-102555214D01*
X145244276Y-102631715D01*
X145231715Y-102644276D01*
X145155214Y-102746351D01*
X145146676Y-102761946D01*
X145101522Y-102882394D01*
X145097895Y-102897649D01*
X145092369Y-102948514D01*
X145092000Y-102955328D01*
X145092000Y-103577885D01*
X145096475Y-103593124D01*
X145097865Y-103594329D01*
X145105548Y-103596000D01*
X147389884Y-103596000D01*
X147405123Y-103591525D01*
X147406328Y-103590135D01*
X147407999Y-103582452D01*
X147407999Y-102955331D01*
X147407629Y-102948510D01*
X147402105Y-102897648D01*
X147398479Y-102882396D01*
X147353324Y-102761946D01*
X147344786Y-102746351D01*
X147268285Y-102644276D01*
X147255724Y-102631715D01*
X147153649Y-102555214D01*
X147138054Y-102546676D01*
X147017606Y-102501522D01*
X147002351Y-102497895D01*
X146951486Y-102492369D01*
X146944672Y-102492000D01*
X146572605Y-102492000D01*
X146504484Y-102471998D01*
X146457991Y-102418342D01*
X146447887Y-102348068D01*
X146477381Y-102283488D01*
X146532729Y-102246476D01*
X146691784Y-102193412D01*
X146704962Y-102187239D01*
X146842807Y-102101937D01*
X146854208Y-102092901D01*
X146968739Y-101978171D01*
X146977751Y-101966760D01*
X147062816Y-101828757D01*
X147068963Y-101815576D01*
X147120138Y-101661290D01*
X147123005Y-101647914D01*
X147132672Y-101553562D01*
X147133000Y-101547146D01*
X147133000Y-101122115D01*
X147128525Y-101106876D01*
X147127135Y-101105671D01*
X147119452Y-101104000D01*
X144985116Y-101104000D01*
X144969877Y-101108475D01*
X144962953Y-101116465D01*
X144903227Y-101154848D01*
X144832230Y-101154848D01*
X144772504Y-101116464D01*
X144758610Y-101096952D01*
X144742342Y-101068774D01*
X144742339Y-101068769D01*
X144739040Y-101063056D01*
X144722881Y-101045109D01*
X144615675Y-100926045D01*
X144615674Y-100926044D01*
X144611253Y-100921134D01*
X144456752Y-100808882D01*
X144450724Y-100806198D01*
X144450722Y-100806197D01*
X144288319Y-100733891D01*
X144288318Y-100733891D01*
X144282288Y-100731206D01*
X144188888Y-100711353D01*
X144101944Y-100692872D01*
X144101939Y-100692872D01*
X144095487Y-100691500D01*
X144039595Y-100691500D01*
X143971474Y-100671498D01*
X143950500Y-100654595D01*
X142534100Y-99238195D01*
X142500074Y-99175883D01*
X142505139Y-99105068D01*
X142547686Y-99048232D01*
X142583321Y-99029576D01*
X142616780Y-99018414D01*
X142629962Y-99012239D01*
X142767807Y-98926937D01*
X142779208Y-98917901D01*
X142893738Y-98803172D01*
X142900794Y-98794238D01*
X142958712Y-98753177D01*
X143029635Y-98749947D01*
X143091046Y-98785574D01*
X143097846Y-98793407D01*
X143101522Y-98799348D01*
X143226697Y-98924305D01*
X143232927Y-98928145D01*
X143232928Y-98928146D01*
X143370090Y-99012694D01*
X143377262Y-99017115D01*
X143429918Y-99034580D01*
X143538611Y-99070632D01*
X143538613Y-99070632D01*
X143545139Y-99072797D01*
X143551975Y-99073497D01*
X143551978Y-99073498D01*
X143595031Y-99077909D01*
X143649600Y-99083500D01*
X144250400Y-99083500D01*
X144253646Y-99083163D01*
X144253650Y-99083163D01*
X144349308Y-99073238D01*
X144349312Y-99073237D01*
X144356166Y-99072526D01*
X144362702Y-99070345D01*
X144362704Y-99070345D01*
X144505353Y-99022753D01*
X144523946Y-99016550D01*
X144674348Y-98923478D01*
X144694000Y-98903792D01*
X144727299Y-98870435D01*
X144789582Y-98836356D01*
X144860402Y-98841359D01*
X144917275Y-98883856D01*
X144941387Y-98950426D01*
X144942001Y-98950362D01*
X144942257Y-98952825D01*
X144942304Y-98952956D01*
X144942338Y-98953606D01*
X144952257Y-99049206D01*
X144955149Y-99062600D01*
X145006588Y-99216784D01*
X145012761Y-99229962D01*
X145098063Y-99367807D01*
X145107099Y-99379208D01*
X145201338Y-99473284D01*
X145235417Y-99535567D01*
X145230414Y-99606387D01*
X145201493Y-99651475D01*
X145131261Y-99721829D01*
X145122249Y-99733240D01*
X145037184Y-99871243D01*
X145031037Y-99884424D01*
X144979862Y-100038710D01*
X144976995Y-100052086D01*
X144967328Y-100146438D01*
X144967000Y-100152855D01*
X144967000Y-100577885D01*
X144971475Y-100593124D01*
X144972865Y-100594329D01*
X144980548Y-100596000D01*
X145777885Y-100596000D01*
X145793124Y-100591525D01*
X145794329Y-100590135D01*
X145796000Y-100582452D01*
X145796000Y-99716115D01*
X145782965Y-99671720D01*
X145776103Y-99661043D01*
X145771000Y-99625548D01*
X145771000Y-99383885D01*
X146279000Y-99383885D01*
X146292035Y-99428280D01*
X146298897Y-99438957D01*
X146304000Y-99474452D01*
X146304000Y-100577885D01*
X146308475Y-100593124D01*
X146309865Y-100594329D01*
X146317548Y-100596000D01*
X147114884Y-100596000D01*
X147130123Y-100591525D01*
X147131328Y-100590135D01*
X147132999Y-100582452D01*
X147132999Y-100152905D01*
X147132662Y-100146386D01*
X147122743Y-100050794D01*
X147119851Y-100037400D01*
X147068412Y-99883216D01*
X147062239Y-99870038D01*
X146976937Y-99732193D01*
X146967901Y-99720792D01*
X146873662Y-99626716D01*
X146839583Y-99564433D01*
X146844586Y-99493613D01*
X146873507Y-99448525D01*
X146943739Y-99378171D01*
X146952751Y-99366760D01*
X147037816Y-99228757D01*
X147043963Y-99215576D01*
X147095138Y-99061290D01*
X147098005Y-99047914D01*
X147107672Y-98953562D01*
X147108000Y-98947146D01*
X147108000Y-98522115D01*
X147103525Y-98506876D01*
X147102135Y-98505671D01*
X147094452Y-98504000D01*
X146297115Y-98504000D01*
X146281876Y-98508475D01*
X146280671Y-98509865D01*
X146279000Y-98517548D01*
X146279000Y-99383885D01*
X145771000Y-99383885D01*
X145771000Y-98122000D01*
X145791002Y-98053879D01*
X145844658Y-98007386D01*
X145897000Y-97996000D01*
X147089884Y-97996000D01*
X147105123Y-97991525D01*
X147106328Y-97990135D01*
X147107999Y-97982452D01*
X147107999Y-97552905D01*
X147107662Y-97546386D01*
X147097743Y-97450794D01*
X147093395Y-97430657D01*
X147095819Y-97430134D01*
X147093658Y-97370590D01*
X147129850Y-97309511D01*
X147193319Y-97277695D01*
X147215762Y-97275680D01*
X147783868Y-97275680D01*
X147851989Y-97295682D01*
G37*
%TD.AperFunction*%
%TA.AperFunction,Conductor*%
G36*
X153867121Y-99447002D02*
G01*
X153913614Y-99500658D01*
X153925000Y-99553000D01*
X153925000Y-100474000D01*
X153904998Y-100542121D01*
X153851342Y-100588614D01*
X153799000Y-100600000D01*
X153359500Y-100600000D01*
X153291379Y-100579998D01*
X153244886Y-100526342D01*
X153233500Y-100474000D01*
X153233500Y-100276000D01*
X153253502Y-100207879D01*
X153307158Y-100161386D01*
X153359500Y-100150000D01*
X153456885Y-100150000D01*
X153472124Y-100145525D01*
X153473329Y-100144135D01*
X153475000Y-100136452D01*
X153475000Y-99553000D01*
X153495002Y-99484879D01*
X153548658Y-99438386D01*
X153601000Y-99427000D01*
X153799000Y-99427000D01*
X153867121Y-99447002D01*
G37*
%TD.AperFunction*%
%TA.AperFunction,Conductor*%
G36*
X153186538Y-98344087D02*
G01*
X153231601Y-98373048D01*
X153794458Y-98935905D01*
X153828484Y-98998217D01*
X153823419Y-99069032D01*
X153794458Y-99114095D01*
X153481553Y-99427000D01*
X153481217Y-99426664D01*
X153477817Y-99431040D01*
X153473406Y-99435147D01*
X153337812Y-99570741D01*
X153325000Y-99594203D01*
X153325000Y-99618398D01*
X153304998Y-99686519D01*
X153251342Y-99733012D01*
X153181068Y-99743116D01*
X153116488Y-99713622D01*
X153107165Y-99703780D01*
X153107086Y-99703859D01*
X152996141Y-99592914D01*
X152989317Y-99588878D01*
X152989314Y-99588876D01*
X152867915Y-99517081D01*
X152867916Y-99517081D01*
X152861089Y-99513044D01*
X152853478Y-99510833D01*
X152853476Y-99510832D01*
X152737985Y-99477279D01*
X152710418Y-99469270D01*
X152697776Y-99468275D01*
X152677679Y-99466693D01*
X152677666Y-99466692D01*
X152675220Y-99466500D01*
X152640137Y-99466500D01*
X152572016Y-99446498D01*
X152551042Y-99429595D01*
X152512812Y-99391365D01*
X152498868Y-99383751D01*
X152497035Y-99383882D01*
X152490420Y-99388133D01*
X152448958Y-99429595D01*
X152386646Y-99463621D01*
X152359863Y-99466500D01*
X152324780Y-99466500D01*
X152322334Y-99466692D01*
X152322321Y-99466693D01*
X152302224Y-99468275D01*
X152289582Y-99469270D01*
X152262015Y-99477279D01*
X152235856Y-99484879D01*
X152235153Y-99485083D01*
X152164847Y-99485083D01*
X152137985Y-99477279D01*
X152110418Y-99469270D01*
X152097776Y-99468275D01*
X152077679Y-99466693D01*
X152077666Y-99466692D01*
X152075220Y-99466500D01*
X151724780Y-99466500D01*
X151722334Y-99466692D01*
X151722321Y-99466693D01*
X151702224Y-99468275D01*
X151689582Y-99469270D01*
X151683401Y-99471066D01*
X151683394Y-99471067D01*
X151661283Y-99477491D01*
X151590286Y-99477288D01*
X151537036Y-99445589D01*
X151205542Y-99114095D01*
X151171516Y-99051783D01*
X151173351Y-99026132D01*
X151828751Y-99026132D01*
X151828882Y-99027965D01*
X151833133Y-99034580D01*
X151972188Y-99173635D01*
X151986132Y-99181249D01*
X151987965Y-99181118D01*
X151994580Y-99176867D01*
X152133635Y-99037812D01*
X152140013Y-99026132D01*
X152858751Y-99026132D01*
X152858882Y-99027965D01*
X152863133Y-99034580D01*
X153002188Y-99173635D01*
X153016132Y-99181249D01*
X153017965Y-99181118D01*
X153024580Y-99176867D01*
X153163635Y-99037812D01*
X153171249Y-99023868D01*
X153171118Y-99022035D01*
X153166867Y-99015420D01*
X153027812Y-98876365D01*
X153013868Y-98868751D01*
X153012035Y-98868882D01*
X153005420Y-98873133D01*
X152866365Y-99012188D01*
X152858751Y-99026132D01*
X152140013Y-99026132D01*
X152141249Y-99023868D01*
X152141118Y-99022035D01*
X152136867Y-99015420D01*
X151997812Y-98876365D01*
X151983868Y-98868751D01*
X151982035Y-98868882D01*
X151975420Y-98873133D01*
X151836365Y-99012188D01*
X151828751Y-99026132D01*
X151173351Y-99026132D01*
X151176581Y-98980968D01*
X151205542Y-98935905D01*
X151768399Y-98373048D01*
X151830711Y-98339022D01*
X151901526Y-98344087D01*
X151946589Y-98373048D01*
X151972189Y-98398648D01*
X151986130Y-98406260D01*
X151987966Y-98406129D01*
X151994582Y-98401877D01*
X152023411Y-98373048D01*
X152085723Y-98339022D01*
X152156538Y-98344087D01*
X152201601Y-98373048D01*
X152487188Y-98658635D01*
X152501132Y-98666249D01*
X152502965Y-98666118D01*
X152509580Y-98661867D01*
X152798399Y-98373048D01*
X152860711Y-98339022D01*
X152931526Y-98344087D01*
X152976589Y-98373048D01*
X153002189Y-98398648D01*
X153016130Y-98406260D01*
X153017966Y-98406129D01*
X153024582Y-98401877D01*
X153053411Y-98373048D01*
X153115723Y-98339022D01*
X153186538Y-98344087D01*
G37*
%TD.AperFunction*%
%TA.AperFunction,Conductor*%
G36*
X130443332Y-85500211D02*
G01*
X134998243Y-85501704D01*
X135066356Y-85521728D01*
X135112832Y-85575399D01*
X135122913Y-85645677D01*
X135093398Y-85710248D01*
X135087296Y-85716799D01*
X134422747Y-86381348D01*
X134414461Y-86388888D01*
X134407982Y-86393000D01*
X134402557Y-86398777D01*
X134361357Y-86442651D01*
X134358602Y-86445493D01*
X134338865Y-86465230D01*
X134336385Y-86468427D01*
X134328682Y-86477447D01*
X134298414Y-86509679D01*
X134294595Y-86516625D01*
X134294593Y-86516628D01*
X134288652Y-86527434D01*
X134277801Y-86543953D01*
X134265386Y-86559959D01*
X134262241Y-86567228D01*
X134262238Y-86567232D01*
X134247826Y-86600537D01*
X134242609Y-86611187D01*
X134221305Y-86649940D01*
X134219334Y-86657615D01*
X134219334Y-86657616D01*
X134216267Y-86669562D01*
X134209863Y-86688266D01*
X134201819Y-86706855D01*
X134200580Y-86714678D01*
X134200577Y-86714688D01*
X134194901Y-86750524D01*
X134192495Y-86762144D01*
X134181500Y-86804970D01*
X134181500Y-86825224D01*
X134179949Y-86844934D01*
X134176780Y-86864943D01*
X134177526Y-86872835D01*
X134180941Y-86908961D01*
X134181500Y-86920819D01*
X134181500Y-87265500D01*
X134161498Y-87333621D01*
X134107842Y-87380114D01*
X134055500Y-87391500D01*
X133666866Y-87391500D01*
X133604684Y-87398255D01*
X133468295Y-87449385D01*
X133351739Y-87536739D01*
X133330246Y-87565417D01*
X133299047Y-87607046D01*
X133242187Y-87649560D01*
X133171369Y-87654585D01*
X133132386Y-87638913D01*
X133011722Y-87564970D01*
X133007502Y-87562384D01*
X133002932Y-87560491D01*
X133002928Y-87560489D01*
X132778164Y-87467389D01*
X132778162Y-87467388D01*
X132773591Y-87465495D01*
X132658070Y-87437761D01*
X132532216Y-87407546D01*
X132532210Y-87407545D01*
X132527403Y-87406391D01*
X132275000Y-87386526D01*
X132022597Y-87406391D01*
X132017790Y-87407545D01*
X132017784Y-87407546D01*
X131891930Y-87437761D01*
X131776409Y-87465495D01*
X131771838Y-87467388D01*
X131771836Y-87467389D01*
X131547072Y-87560489D01*
X131547068Y-87560491D01*
X131542498Y-87562384D01*
X131326624Y-87694672D01*
X131134102Y-87859102D01*
X131130894Y-87862858D01*
X131130887Y-87862865D01*
X131100810Y-87898080D01*
X131041359Y-87936889D01*
X130970365Y-87937395D01*
X130909190Y-87898080D01*
X130879113Y-87862865D01*
X130879106Y-87862858D01*
X130875898Y-87859102D01*
X130683376Y-87694672D01*
X130467502Y-87562384D01*
X130462932Y-87560491D01*
X130462928Y-87560489D01*
X130238164Y-87467389D01*
X130238162Y-87467388D01*
X130233591Y-87465495D01*
X130118070Y-87437761D01*
X129992216Y-87407546D01*
X129992210Y-87407545D01*
X129987403Y-87406391D01*
X129735000Y-87386526D01*
X129482597Y-87406391D01*
X129477790Y-87407545D01*
X129477784Y-87407546D01*
X129351930Y-87437761D01*
X129236409Y-87465495D01*
X129231838Y-87467388D01*
X129231836Y-87467389D01*
X129007072Y-87560489D01*
X129007068Y-87560491D01*
X129002498Y-87562384D01*
X128786624Y-87694672D01*
X128594102Y-87859102D01*
X128429672Y-88051624D01*
X128322064Y-88227224D01*
X128303726Y-88250484D01*
X127567022Y-88987188D01*
X127559408Y-89001132D01*
X127559539Y-89002965D01*
X127563790Y-89009580D01*
X128303726Y-89749516D01*
X128322064Y-89772776D01*
X128429672Y-89948376D01*
X128559787Y-90100720D01*
X128590283Y-90136426D01*
X128594102Y-90140898D01*
X128786624Y-90305328D01*
X129002498Y-90437616D01*
X129007068Y-90439509D01*
X129007072Y-90439511D01*
X129231836Y-90532611D01*
X129236409Y-90534505D01*
X129303513Y-90550615D01*
X129477784Y-90592454D01*
X129477790Y-90592455D01*
X129482597Y-90593609D01*
X129735000Y-90613474D01*
X129987403Y-90593609D01*
X129992210Y-90592455D01*
X129992216Y-90592454D01*
X130166487Y-90550615D01*
X130233591Y-90534505D01*
X130238164Y-90532611D01*
X130462928Y-90439511D01*
X130462932Y-90439509D01*
X130467502Y-90437616D01*
X130683376Y-90305328D01*
X130875898Y-90140898D01*
X130879106Y-90137142D01*
X130879113Y-90137135D01*
X130909190Y-90101920D01*
X130968641Y-90063111D01*
X131039635Y-90062605D01*
X131100810Y-90101920D01*
X131130887Y-90137135D01*
X131130894Y-90137142D01*
X131134102Y-90140898D01*
X131326624Y-90305328D01*
X131542498Y-90437616D01*
X131547068Y-90439509D01*
X131547072Y-90439511D01*
X131771836Y-90532611D01*
X131776409Y-90534505D01*
X131843513Y-90550615D01*
X132017784Y-90592454D01*
X132017790Y-90592455D01*
X132022597Y-90593609D01*
X132275000Y-90613474D01*
X132527403Y-90593609D01*
X132532210Y-90592455D01*
X132532216Y-90592454D01*
X132706487Y-90550615D01*
X132773591Y-90534505D01*
X132778164Y-90532611D01*
X133002928Y-90439511D01*
X133002932Y-90439509D01*
X133007502Y-90437616D01*
X133132386Y-90361087D01*
X133200920Y-90342549D01*
X133268596Y-90364005D01*
X133299046Y-90392953D01*
X133351739Y-90463261D01*
X133468295Y-90550615D01*
X133604684Y-90601745D01*
X133666866Y-90608500D01*
X135963134Y-90608500D01*
X136025316Y-90601745D01*
X136161705Y-90550615D01*
X136278261Y-90463261D01*
X136365615Y-90346705D01*
X136416745Y-90210316D01*
X136423500Y-90148134D01*
X136423500Y-89394669D01*
X136942001Y-89394669D01*
X136942371Y-89401490D01*
X136947895Y-89452352D01*
X136951521Y-89467604D01*
X136996676Y-89588054D01*
X137005214Y-89603649D01*
X137081715Y-89705724D01*
X137094276Y-89718285D01*
X137196351Y-89794786D01*
X137211946Y-89803324D01*
X137332394Y-89848478D01*
X137347649Y-89852105D01*
X137398514Y-89857631D01*
X137405328Y-89858000D01*
X137927885Y-89858000D01*
X137943124Y-89853525D01*
X137944329Y-89852135D01*
X137946000Y-89844452D01*
X137946000Y-88622115D01*
X137941525Y-88606876D01*
X137940135Y-88605671D01*
X137932452Y-88604000D01*
X136960116Y-88604000D01*
X136944877Y-88608475D01*
X136943672Y-88609865D01*
X136942001Y-88617548D01*
X136942001Y-89394669D01*
X136423500Y-89394669D01*
X136423500Y-88077885D01*
X136942000Y-88077885D01*
X136946475Y-88093124D01*
X136947865Y-88094329D01*
X136955548Y-88096000D01*
X137927885Y-88096000D01*
X137943124Y-88091525D01*
X137944329Y-88090135D01*
X137946000Y-88082452D01*
X137946000Y-86860116D01*
X137941525Y-86844877D01*
X137940135Y-86843672D01*
X137932452Y-86842001D01*
X137405331Y-86842001D01*
X137398510Y-86842371D01*
X137347648Y-86847895D01*
X137332396Y-86851521D01*
X137211946Y-86896676D01*
X137196351Y-86905214D01*
X137094276Y-86981715D01*
X137081715Y-86994276D01*
X137005214Y-87096351D01*
X136996676Y-87111946D01*
X136951522Y-87232394D01*
X136947895Y-87247649D01*
X136942369Y-87298514D01*
X136942000Y-87305328D01*
X136942000Y-88077885D01*
X136423500Y-88077885D01*
X136423500Y-87851866D01*
X136416745Y-87789684D01*
X136365615Y-87653295D01*
X136278261Y-87536739D01*
X136161705Y-87449385D01*
X136025316Y-87398255D01*
X135963134Y-87391500D01*
X135574500Y-87391500D01*
X135506379Y-87371498D01*
X135459886Y-87317842D01*
X135448500Y-87265500D01*
X135448500Y-87199594D01*
X135468502Y-87131473D01*
X135485405Y-87110499D01*
X136325499Y-86270405D01*
X136387811Y-86236379D01*
X136414594Y-86233500D01*
X141985406Y-86233500D01*
X142053527Y-86253502D01*
X142074501Y-86270405D01*
X142168293Y-86364197D01*
X142202319Y-86426509D01*
X142194834Y-86503333D01*
X142186819Y-86521855D01*
X142185580Y-86529678D01*
X142185577Y-86529688D01*
X142179901Y-86565524D01*
X142177495Y-86577144D01*
X142168752Y-86611198D01*
X142166500Y-86619970D01*
X142166500Y-86640224D01*
X142164949Y-86659934D01*
X142161780Y-86679943D01*
X142162526Y-86687835D01*
X142162526Y-86687836D01*
X142164020Y-86703643D01*
X142150517Y-86773344D01*
X142101474Y-86824680D01*
X142038579Y-86841500D01*
X142001866Y-86841500D01*
X141939684Y-86848255D01*
X141803295Y-86899385D01*
X141796110Y-86904770D01*
X141796108Y-86904771D01*
X141725565Y-86957640D01*
X141659058Y-86982488D01*
X141589676Y-86967435D01*
X141574435Y-86957640D01*
X141503892Y-86904771D01*
X141503890Y-86904770D01*
X141496705Y-86899385D01*
X141360316Y-86848255D01*
X141298134Y-86841500D01*
X139701866Y-86841500D01*
X139639684Y-86848255D01*
X139503295Y-86899385D01*
X139490518Y-86908961D01*
X139425148Y-86957953D01*
X139358642Y-86982801D01*
X139289259Y-86967748D01*
X139274018Y-86957953D01*
X139203648Y-86905214D01*
X139188054Y-86896676D01*
X139067606Y-86851522D01*
X139052351Y-86847895D01*
X139001486Y-86842369D01*
X138994672Y-86842000D01*
X138472115Y-86842000D01*
X138456876Y-86846475D01*
X138455671Y-86847865D01*
X138454000Y-86855548D01*
X138454000Y-89839884D01*
X138458475Y-89855123D01*
X138459865Y-89856328D01*
X138467548Y-89857999D01*
X138994669Y-89857999D01*
X139001490Y-89857629D01*
X139052352Y-89852105D01*
X139067604Y-89848479D01*
X139188054Y-89803324D01*
X139203648Y-89794786D01*
X139274018Y-89742047D01*
X139340524Y-89717199D01*
X139409907Y-89732252D01*
X139425148Y-89742047D01*
X139503295Y-89800615D01*
X139639684Y-89851745D01*
X139701866Y-89858500D01*
X139775982Y-89858500D01*
X139844103Y-89878502D01*
X139893134Y-89938116D01*
X139897804Y-89949911D01*
X139901649Y-89961142D01*
X139904382Y-89970550D01*
X139913982Y-90003593D01*
X139918015Y-90010412D01*
X139918017Y-90010417D01*
X139924293Y-90021028D01*
X139932988Y-90038776D01*
X139940448Y-90057617D01*
X139945110Y-90064033D01*
X139945110Y-90064034D01*
X139966436Y-90093387D01*
X139972952Y-90103307D01*
X139985592Y-90124679D01*
X139995458Y-90141362D01*
X140009779Y-90155683D01*
X140022619Y-90170716D01*
X140034528Y-90187107D01*
X140040634Y-90192158D01*
X140068605Y-90215298D01*
X140077384Y-90223288D01*
X140402568Y-90548472D01*
X140410108Y-90556758D01*
X140414221Y-90563239D01*
X140420000Y-90568666D01*
X140420001Y-90568667D01*
X140463873Y-90609865D01*
X140466715Y-90612620D01*
X140486451Y-90632356D01*
X140489648Y-90634836D01*
X140498668Y-90642539D01*
X140530900Y-90672807D01*
X140537846Y-90676626D01*
X140537849Y-90676628D01*
X140548655Y-90682569D01*
X140565174Y-90693420D01*
X140581180Y-90705835D01*
X140588449Y-90708980D01*
X140588453Y-90708983D01*
X140621758Y-90723395D01*
X140632408Y-90728612D01*
X140671161Y-90749916D01*
X140678836Y-90751887D01*
X140678837Y-90751887D01*
X140690783Y-90754954D01*
X140709488Y-90761358D01*
X140728076Y-90769402D01*
X140735899Y-90770641D01*
X140735909Y-90770644D01*
X140771745Y-90776320D01*
X140783365Y-90778726D01*
X140818510Y-90787749D01*
X140826191Y-90789721D01*
X140846445Y-90789721D01*
X140866155Y-90791272D01*
X140886164Y-90794441D01*
X140894056Y-90793695D01*
X140930182Y-90790280D01*
X140942040Y-90789721D01*
X142573074Y-90789721D01*
X142641195Y-90809723D01*
X142660421Y-90826064D01*
X142660694Y-90825761D01*
X142665606Y-90830184D01*
X142670021Y-90835087D01*
X142824522Y-90947339D01*
X142830550Y-90950023D01*
X142830552Y-90950024D01*
X142998986Y-91025015D01*
X142997869Y-91027524D01*
X143046449Y-91060749D01*
X143074080Y-91126149D01*
X143061967Y-91196104D01*
X143013956Y-91248406D01*
X142948900Y-91266500D01*
X140408200Y-91266500D01*
X140340079Y-91246498D01*
X140320853Y-91230157D01*
X140320580Y-91230460D01*
X140315668Y-91226037D01*
X140311253Y-91221134D01*
X140156752Y-91108882D01*
X140150724Y-91106198D01*
X140150722Y-91106197D01*
X139988319Y-91033891D01*
X139988318Y-91033891D01*
X139982288Y-91031206D01*
X139888888Y-91011353D01*
X139801944Y-90992872D01*
X139801939Y-90992872D01*
X139795487Y-90991500D01*
X139604513Y-90991500D01*
X139598061Y-90992872D01*
X139598056Y-90992872D01*
X139511113Y-91011353D01*
X139417712Y-91031206D01*
X139411682Y-91033891D01*
X139411681Y-91033891D01*
X139249278Y-91106197D01*
X139249276Y-91106198D01*
X139243248Y-91108882D01*
X139088747Y-91221134D01*
X139084326Y-91226044D01*
X139084325Y-91226045D01*
X139016807Y-91301032D01*
X138960960Y-91363056D01*
X138913789Y-91444758D01*
X138876103Y-91510033D01*
X138865473Y-91528444D01*
X138819796Y-91669023D01*
X138808289Y-91704437D01*
X138768215Y-91763042D01*
X138702818Y-91790679D01*
X138688456Y-91791500D01*
X138504513Y-91791500D01*
X138498061Y-91792872D01*
X138498056Y-91792872D01*
X138411112Y-91811353D01*
X138317712Y-91831206D01*
X138311682Y-91833891D01*
X138311681Y-91833891D01*
X138149278Y-91906197D01*
X138149276Y-91906198D01*
X138143248Y-91908882D01*
X137988747Y-92021134D01*
X137984326Y-92026044D01*
X137984325Y-92026045D01*
X137879651Y-92142298D01*
X137860960Y-92163056D01*
X137857659Y-92168774D01*
X137771434Y-92318120D01*
X137765473Y-92328444D01*
X137706458Y-92510072D01*
X137705768Y-92516633D01*
X137705768Y-92516635D01*
X137697427Y-92596000D01*
X137686496Y-92700000D01*
X137706458Y-92889928D01*
X137765473Y-93071556D01*
X137768776Y-93077278D01*
X137768777Y-93077279D01*
X137794663Y-93122115D01*
X137860960Y-93236944D01*
X137865378Y-93241851D01*
X137865379Y-93241852D01*
X137879522Y-93257559D01*
X137988747Y-93378866D01*
X138047644Y-93421657D01*
X138090997Y-93477880D01*
X138095245Y-93539357D01*
X138098255Y-93539684D01*
X138091500Y-93601866D01*
X138091500Y-93890500D01*
X138071498Y-93958621D01*
X138017842Y-94005114D01*
X137965500Y-94016500D01*
X133153219Y-94016500D01*
X133085098Y-93996498D01*
X133059583Y-93974810D01*
X133015675Y-93926045D01*
X133015674Y-93926044D01*
X133011253Y-93921134D01*
X132891947Y-93834453D01*
X132862094Y-93812763D01*
X132862093Y-93812762D01*
X132856752Y-93808882D01*
X132850724Y-93806198D01*
X132850722Y-93806197D01*
X132688319Y-93733891D01*
X132688318Y-93733891D01*
X132682288Y-93731206D01*
X132583736Y-93710258D01*
X132501944Y-93692872D01*
X132501939Y-93692872D01*
X132495487Y-93691500D01*
X132304513Y-93691500D01*
X132298061Y-93692872D01*
X132298056Y-93692872D01*
X132216264Y-93710258D01*
X132117712Y-93731206D01*
X132111682Y-93733891D01*
X132111681Y-93733891D01*
X131949278Y-93806197D01*
X131949276Y-93806198D01*
X131943248Y-93808882D01*
X131937907Y-93812762D01*
X131937906Y-93812763D01*
X131908053Y-93834453D01*
X131788747Y-93921134D01*
X131784326Y-93926044D01*
X131784325Y-93926045D01*
X131699396Y-94020369D01*
X131660960Y-94063056D01*
X131565473Y-94228444D01*
X131506458Y-94410072D01*
X131505768Y-94416633D01*
X131505768Y-94416635D01*
X131502236Y-94450243D01*
X131486496Y-94600000D01*
X131487186Y-94606565D01*
X131490305Y-94636236D01*
X131506458Y-94789928D01*
X131565473Y-94971556D01*
X131568776Y-94977278D01*
X131568777Y-94977279D01*
X131588416Y-95011295D01*
X131660960Y-95136944D01*
X131665378Y-95141851D01*
X131665379Y-95141852D01*
X131778061Y-95266998D01*
X131788747Y-95278866D01*
X131943248Y-95391118D01*
X131949276Y-95393802D01*
X131949278Y-95393803D01*
X132048129Y-95437814D01*
X132117712Y-95468794D01*
X132183365Y-95482749D01*
X132298056Y-95507128D01*
X132298061Y-95507128D01*
X132304513Y-95508500D01*
X132495487Y-95508500D01*
X132501939Y-95507128D01*
X132501944Y-95507128D01*
X132616635Y-95482749D01*
X132682288Y-95468794D01*
X132751871Y-95437814D01*
X132850722Y-95393803D01*
X132850724Y-95393802D01*
X132856752Y-95391118D01*
X132971754Y-95307564D01*
X133038622Y-95283705D01*
X133045815Y-95283500D01*
X137965500Y-95283500D01*
X138033621Y-95303502D01*
X138080114Y-95357158D01*
X138091500Y-95409500D01*
X138091500Y-95698134D01*
X138098255Y-95760316D01*
X138149385Y-95896705D01*
X138236739Y-96013261D01*
X138353295Y-96100615D01*
X138489684Y-96151745D01*
X138551866Y-96158500D01*
X142448134Y-96158500D01*
X142510316Y-96151745D01*
X142646705Y-96100615D01*
X142763261Y-96013261D01*
X142850615Y-95896705D01*
X142901745Y-95760316D01*
X142908500Y-95698134D01*
X142908500Y-95409500D01*
X142928502Y-95341379D01*
X142982158Y-95294886D01*
X143034500Y-95283500D01*
X143135405Y-95283500D01*
X143203526Y-95303502D01*
X143224501Y-95320405D01*
X143279596Y-95375501D01*
X143313621Y-95437814D01*
X143316500Y-95464596D01*
X143316500Y-96650101D01*
X143296498Y-96718222D01*
X143256803Y-96757245D01*
X143225652Y-96776522D01*
X143100695Y-96901697D01*
X143097898Y-96906235D01*
X143040647Y-96946824D01*
X142969724Y-96950054D01*
X142908313Y-96914428D01*
X142900938Y-96905932D01*
X142892902Y-96895793D01*
X142778171Y-96781261D01*
X142766760Y-96772249D01*
X142628757Y-96687184D01*
X142615576Y-96681037D01*
X142461290Y-96629862D01*
X142447914Y-96626995D01*
X142353562Y-96617328D01*
X142347145Y-96617000D01*
X142322115Y-96617000D01*
X142306876Y-96621475D01*
X142305671Y-96622865D01*
X142304000Y-96630548D01*
X142304000Y-97978000D01*
X142283998Y-98046121D01*
X142230342Y-98092614D01*
X142178000Y-98104000D01*
X141922000Y-98104000D01*
X141853879Y-98083998D01*
X141807386Y-98030342D01*
X141796000Y-97978000D01*
X141796000Y-96635116D01*
X141791525Y-96619877D01*
X141790135Y-96618672D01*
X141782452Y-96617001D01*
X141752905Y-96617001D01*
X141746386Y-96617338D01*
X141650794Y-96627257D01*
X141637400Y-96630149D01*
X141483216Y-96681588D01*
X141470038Y-96687761D01*
X141332193Y-96773063D01*
X141320792Y-96782099D01*
X141206261Y-96896829D01*
X141197249Y-96908240D01*
X141112184Y-97046243D01*
X141106037Y-97059424D01*
X141054862Y-97213710D01*
X141051995Y-97227086D01*
X141042328Y-97321438D01*
X141042000Y-97327855D01*
X141042000Y-97461479D01*
X141021998Y-97529600D01*
X140968342Y-97576093D01*
X140898068Y-97586197D01*
X140838774Y-97561038D01*
X140831303Y-97555243D01*
X140831302Y-97555243D01*
X140825041Y-97550386D01*
X140817772Y-97547241D01*
X140817768Y-97547238D01*
X140784463Y-97532826D01*
X140773813Y-97527609D01*
X140735060Y-97506305D01*
X140715437Y-97501267D01*
X140696734Y-97494863D01*
X140685420Y-97489967D01*
X140685419Y-97489967D01*
X140678145Y-97486819D01*
X140670322Y-97485580D01*
X140670312Y-97485577D01*
X140634476Y-97479901D01*
X140622856Y-97477495D01*
X140587711Y-97468472D01*
X140587710Y-97468472D01*
X140580030Y-97466500D01*
X140559776Y-97466500D01*
X140540065Y-97464949D01*
X140527886Y-97463020D01*
X140520057Y-97461780D01*
X140512165Y-97462526D01*
X140476039Y-97465941D01*
X140464181Y-97466500D01*
X135525307Y-97466500D01*
X135457186Y-97446498D01*
X135410693Y-97392842D01*
X135400589Y-97322568D01*
X135431671Y-97256190D01*
X135534621Y-97141852D01*
X135534622Y-97141851D01*
X135539040Y-97136944D01*
X135634527Y-96971556D01*
X135693542Y-96789928D01*
X135694407Y-96781704D01*
X135712814Y-96606565D01*
X135713504Y-96600000D01*
X135707080Y-96538876D01*
X135694232Y-96416635D01*
X135694232Y-96416633D01*
X135693542Y-96410072D01*
X135634527Y-96228444D01*
X135626966Y-96215347D01*
X135567358Y-96112104D01*
X135539040Y-96063056D01*
X135499050Y-96018642D01*
X135415675Y-95926045D01*
X135415674Y-95926044D01*
X135411253Y-95921134D01*
X135295600Y-95837107D01*
X135262094Y-95812763D01*
X135262093Y-95812762D01*
X135256752Y-95808882D01*
X135250724Y-95806198D01*
X135250722Y-95806197D01*
X135088319Y-95733891D01*
X135088318Y-95733891D01*
X135082288Y-95731206D01*
X134988887Y-95711353D01*
X134901944Y-95692872D01*
X134901939Y-95692872D01*
X134895487Y-95691500D01*
X134704513Y-95691500D01*
X134698061Y-95692872D01*
X134698056Y-95692872D01*
X134611113Y-95711353D01*
X134517712Y-95731206D01*
X134511682Y-95733891D01*
X134511681Y-95733891D01*
X134349278Y-95806197D01*
X134349276Y-95806198D01*
X134343248Y-95808882D01*
X134337907Y-95812762D01*
X134337906Y-95812763D01*
X134260398Y-95869076D01*
X134188747Y-95921134D01*
X134184332Y-95926037D01*
X134179420Y-95930460D01*
X134178295Y-95929211D01*
X134124986Y-95962051D01*
X134091800Y-95966500D01*
X129233594Y-95966500D01*
X129165473Y-95946498D01*
X129118980Y-95892842D01*
X129108876Y-95822568D01*
X129138370Y-95757988D01*
X129144499Y-95751405D01*
X129177088Y-95718816D01*
X129239400Y-95684790D01*
X129292376Y-95684664D01*
X129404513Y-95708500D01*
X129595487Y-95708500D01*
X129601939Y-95707128D01*
X129601944Y-95707128D01*
X129707033Y-95684790D01*
X129782288Y-95668794D01*
X129788319Y-95666109D01*
X129950722Y-95593803D01*
X129950724Y-95593802D01*
X129956752Y-95591118D01*
X129996044Y-95562571D01*
X130072354Y-95507128D01*
X130111253Y-95478866D01*
X130120322Y-95468794D01*
X130234621Y-95341852D01*
X130234622Y-95341851D01*
X130239040Y-95336944D01*
X130316855Y-95202165D01*
X130331223Y-95177279D01*
X130331224Y-95177278D01*
X130334527Y-95171556D01*
X130393542Y-94989928D01*
X130394872Y-94977279D01*
X130412814Y-94806565D01*
X130413504Y-94800000D01*
X130393542Y-94610072D01*
X130334527Y-94428444D01*
X130239040Y-94263056D01*
X130135288Y-94147827D01*
X130115675Y-94126045D01*
X130115674Y-94126044D01*
X130111253Y-94121134D01*
X129984719Y-94029201D01*
X129962094Y-94012763D01*
X129962093Y-94012762D01*
X129956752Y-94008882D01*
X129950724Y-94006198D01*
X129950722Y-94006197D01*
X129788319Y-93933891D01*
X129788318Y-93933891D01*
X129782288Y-93931206D01*
X129688888Y-93911353D01*
X129601944Y-93892872D01*
X129601939Y-93892872D01*
X129595487Y-93891500D01*
X129404513Y-93891500D01*
X129398061Y-93892872D01*
X129398056Y-93892872D01*
X129311113Y-93911353D01*
X129217712Y-93931206D01*
X129211682Y-93933891D01*
X129211681Y-93933891D01*
X129049278Y-94006197D01*
X129049276Y-94006198D01*
X129043248Y-94008882D01*
X129037907Y-94012762D01*
X129037906Y-94012763D01*
X129015281Y-94029201D01*
X128888747Y-94121134D01*
X128884326Y-94126044D01*
X128884325Y-94126045D01*
X128864713Y-94147827D01*
X128760960Y-94263056D01*
X128722436Y-94329781D01*
X128679705Y-94403794D01*
X128665473Y-94428444D01*
X128665260Y-94428321D01*
X128642153Y-94461942D01*
X127549450Y-95554645D01*
X127487138Y-95588671D01*
X127447187Y-95590860D01*
X127413207Y-95587289D01*
X127413202Y-95587289D01*
X127407075Y-95586645D01*
X127328422Y-95593803D01*
X127216251Y-95604011D01*
X127216248Y-95604012D01*
X127210112Y-95604570D01*
X127204206Y-95606308D01*
X127204202Y-95606309D01*
X127099076Y-95637249D01*
X127020381Y-95660410D01*
X127014923Y-95663263D01*
X127014919Y-95663265D01*
X126948222Y-95698134D01*
X126845110Y-95752040D01*
X126690975Y-95875968D01*
X126563846Y-96027474D01*
X126560879Y-96032872D01*
X126560875Y-96032877D01*
X126495059Y-96152598D01*
X126468567Y-96200787D01*
X126466706Y-96206654D01*
X126466705Y-96206656D01*
X126418016Y-96360144D01*
X126408765Y-96389306D01*
X126386719Y-96585851D01*
X126385192Y-96585680D01*
X126366478Y-96646289D01*
X126312182Y-96692032D01*
X126235238Y-96699949D01*
X126201951Y-96692873D01*
X126201942Y-96692872D01*
X126195487Y-96691500D01*
X126004513Y-96691500D01*
X125998061Y-96692872D01*
X125998056Y-96692872D01*
X125911112Y-96711353D01*
X125817712Y-96731206D01*
X125811685Y-96733889D01*
X125811677Y-96733892D01*
X125675933Y-96794329D01*
X125605566Y-96803763D01*
X125541269Y-96773656D01*
X125503456Y-96713567D01*
X125498685Y-96679222D01*
X125498685Y-90305390D01*
X126254440Y-90305390D01*
X126260167Y-90313040D01*
X126458506Y-90434583D01*
X126467300Y-90439064D01*
X126691991Y-90532134D01*
X126701376Y-90535183D01*
X126937863Y-90591959D01*
X126947610Y-90593502D01*
X127190070Y-90612584D01*
X127199930Y-90612584D01*
X127442390Y-90593502D01*
X127452137Y-90591959D01*
X127688624Y-90535183D01*
X127698009Y-90532134D01*
X127922700Y-90439064D01*
X127931494Y-90434583D01*
X128126167Y-90315287D01*
X128135627Y-90304830D01*
X128131844Y-90296054D01*
X127207812Y-89372022D01*
X127193868Y-89364408D01*
X127192035Y-89364539D01*
X127185420Y-89368790D01*
X126261200Y-90293010D01*
X126254440Y-90305390D01*
X125498685Y-90305390D01*
X125498685Y-89740085D01*
X125518687Y-89671964D01*
X125572343Y-89625471D01*
X125642617Y-89615367D01*
X125707197Y-89644861D01*
X125741094Y-89691867D01*
X125755936Y-89727700D01*
X125760417Y-89736494D01*
X125879713Y-89931167D01*
X125890170Y-89940627D01*
X125898946Y-89936844D01*
X126822978Y-89012812D01*
X126830592Y-88998868D01*
X126830461Y-88997035D01*
X126826210Y-88990420D01*
X125901990Y-88066200D01*
X125889610Y-88059440D01*
X125881960Y-88065167D01*
X125760417Y-88263506D01*
X125755936Y-88272300D01*
X125741094Y-88308133D01*
X125696546Y-88363414D01*
X125629183Y-88385835D01*
X125560391Y-88368277D01*
X125512013Y-88316315D01*
X125498685Y-88259915D01*
X125498685Y-87695170D01*
X126254373Y-87695170D01*
X126258156Y-87703946D01*
X127182188Y-88627978D01*
X127196132Y-88635592D01*
X127197965Y-88635461D01*
X127204580Y-88631210D01*
X128128800Y-87706990D01*
X128135560Y-87694610D01*
X128129833Y-87686960D01*
X127931494Y-87565417D01*
X127922700Y-87560936D01*
X127698009Y-87467866D01*
X127688624Y-87464817D01*
X127452137Y-87408041D01*
X127442390Y-87406498D01*
X127199930Y-87387416D01*
X127190070Y-87387416D01*
X126947610Y-87406498D01*
X126937863Y-87408041D01*
X126701376Y-87464817D01*
X126691991Y-87467866D01*
X126467300Y-87560936D01*
X126458506Y-87565417D01*
X126263833Y-87684713D01*
X126254373Y-87695170D01*
X125498685Y-87695170D01*
X125498685Y-85840014D01*
X125500185Y-85820629D01*
X125502490Y-85805827D01*
X125502490Y-85805825D01*
X125503871Y-85796956D01*
X125502707Y-85788056D01*
X125502817Y-85779080D01*
X125503636Y-85779090D01*
X125503926Y-85757598D01*
X125509856Y-85720160D01*
X125522038Y-85682670D01*
X125545393Y-85636832D01*
X125568565Y-85604939D01*
X125604939Y-85568565D01*
X125636829Y-85545394D01*
X125682674Y-85522036D01*
X125720163Y-85509855D01*
X125738898Y-85506888D01*
X125756742Y-85504062D01*
X125776452Y-85502631D01*
X125784416Y-85503871D01*
X125793318Y-85502707D01*
X125793322Y-85502707D01*
X125815835Y-85499763D01*
X125832212Y-85498699D01*
X130443332Y-85500211D01*
G37*
%TD.AperFunction*%
%TA.AperFunction,Conductor*%
G36*
X154447967Y-89039490D02*
G01*
X154486691Y-89098996D01*
X154492000Y-89135184D01*
X154492000Y-96534583D01*
X154471998Y-96602704D01*
X154418342Y-96649197D01*
X154348068Y-96659301D01*
X154283488Y-96629807D01*
X154276905Y-96623678D01*
X154196141Y-96542914D01*
X154189317Y-96538878D01*
X154189314Y-96538876D01*
X154067915Y-96467081D01*
X154067916Y-96467081D01*
X154061089Y-96463044D01*
X154053478Y-96460833D01*
X154053476Y-96460832D01*
X153916603Y-96421067D01*
X153916604Y-96421067D01*
X153910418Y-96419270D01*
X153897776Y-96418275D01*
X153877679Y-96416693D01*
X153877666Y-96416692D01*
X153875220Y-96416500D01*
X153524780Y-96416500D01*
X153522334Y-96416692D01*
X153522321Y-96416693D01*
X153502224Y-96418275D01*
X153489582Y-96419270D01*
X153435153Y-96435083D01*
X153364847Y-96435083D01*
X153316603Y-96421067D01*
X153316604Y-96421067D01*
X153310418Y-96419270D01*
X153297776Y-96418275D01*
X153277679Y-96416693D01*
X153277666Y-96416692D01*
X153275220Y-96416500D01*
X152924780Y-96416500D01*
X152922334Y-96416692D01*
X152922321Y-96416693D01*
X152902224Y-96418275D01*
X152889582Y-96419270D01*
X152835153Y-96435083D01*
X152764847Y-96435083D01*
X152716603Y-96421067D01*
X152716604Y-96421067D01*
X152710418Y-96419270D01*
X152697776Y-96418275D01*
X152677679Y-96416693D01*
X152677666Y-96416692D01*
X152675220Y-96416500D01*
X152655716Y-96416500D01*
X152587595Y-96396498D01*
X152541102Y-96342842D01*
X152531268Y-96310214D01*
X152530922Y-96308029D01*
X152530673Y-96300110D01*
X152525022Y-96280658D01*
X152521014Y-96261306D01*
X152519467Y-96249063D01*
X152518474Y-96241203D01*
X152515556Y-96233832D01*
X152502200Y-96200097D01*
X152498355Y-96188870D01*
X152491363Y-96164804D01*
X152486018Y-96146407D01*
X152475707Y-96128972D01*
X152467012Y-96111224D01*
X152459552Y-96092383D01*
X152450346Y-96079711D01*
X152433564Y-96056613D01*
X152427048Y-96046693D01*
X152408580Y-96015465D01*
X152408578Y-96015462D01*
X152404542Y-96008638D01*
X152390221Y-95994317D01*
X152377380Y-95979283D01*
X152370132Y-95969307D01*
X152365472Y-95962893D01*
X152331407Y-95934712D01*
X152322628Y-95926723D01*
X152314866Y-95918961D01*
X152280840Y-95856649D01*
X152285905Y-95785834D01*
X152328452Y-95728998D01*
X152337658Y-95722722D01*
X152371903Y-95701531D01*
X152408713Y-95678752D01*
X152413886Y-95673570D01*
X152419623Y-95669023D01*
X152421055Y-95670830D01*
X152473575Y-95642098D01*
X152544395Y-95647108D01*
X152580853Y-95670499D01*
X152581683Y-95669448D01*
X152598840Y-95682998D01*
X152731880Y-95765004D01*
X152745061Y-95771151D01*
X152893814Y-95820491D01*
X152907190Y-95823358D01*
X152998097Y-95832672D01*
X153003126Y-95832929D01*
X153018124Y-95828525D01*
X153019329Y-95827135D01*
X153021000Y-95819452D01*
X153021000Y-95814885D01*
X153529000Y-95814885D01*
X153533475Y-95830124D01*
X153534865Y-95831329D01*
X153542548Y-95833000D01*
X153545438Y-95833000D01*
X153551953Y-95832663D01*
X153644057Y-95823106D01*
X153657456Y-95820212D01*
X153806107Y-95770619D01*
X153819286Y-95764445D01*
X153952173Y-95682212D01*
X153963574Y-95673176D01*
X154073986Y-95562571D01*
X154082998Y-95551160D01*
X154165004Y-95418120D01*
X154171151Y-95404939D01*
X154220491Y-95256186D01*
X154223358Y-95242810D01*
X154232672Y-95151903D01*
X154233000Y-95145487D01*
X154233000Y-95122115D01*
X154228525Y-95106876D01*
X154227135Y-95105671D01*
X154219452Y-95104000D01*
X153547115Y-95104000D01*
X153531876Y-95108475D01*
X153530671Y-95109865D01*
X153529000Y-95117548D01*
X153529000Y-95814885D01*
X153021000Y-95814885D01*
X153021000Y-93867000D01*
X153021105Y-93867000D01*
X153019890Y-93833000D01*
X153528895Y-93833000D01*
X153530369Y-93874254D01*
X153529000Y-93880547D01*
X153529000Y-94577885D01*
X153533475Y-94593124D01*
X153534865Y-94594329D01*
X153542548Y-94596000D01*
X154214885Y-94596000D01*
X154230124Y-94591525D01*
X154231329Y-94590135D01*
X154233000Y-94582452D01*
X154233000Y-94554562D01*
X154232663Y-94548047D01*
X154223106Y-94455943D01*
X154220212Y-94442544D01*
X154170619Y-94293893D01*
X154164445Y-94280714D01*
X154082212Y-94147827D01*
X154073176Y-94136426D01*
X153962571Y-94026014D01*
X153951160Y-94017002D01*
X153854300Y-93957297D01*
X153806807Y-93904525D01*
X153795383Y-93834453D01*
X153823657Y-93769329D01*
X153854113Y-93742892D01*
X153952179Y-93682207D01*
X153963574Y-93673176D01*
X154073986Y-93562571D01*
X154082998Y-93551160D01*
X154165004Y-93418120D01*
X154171151Y-93404939D01*
X154220491Y-93256186D01*
X154223358Y-93242810D01*
X154232672Y-93151903D01*
X154233000Y-93145487D01*
X154233000Y-93122115D01*
X154228525Y-93106876D01*
X154227135Y-93105671D01*
X154219452Y-93104000D01*
X153547115Y-93104000D01*
X153531876Y-93108475D01*
X153530671Y-93109865D01*
X153529000Y-93117548D01*
X153529000Y-93833000D01*
X153528895Y-93833000D01*
X153019890Y-93833000D01*
X153019631Y-93825746D01*
X153021000Y-93819453D01*
X153021000Y-91867000D01*
X153021105Y-91867000D01*
X153019890Y-91833000D01*
X153528895Y-91833000D01*
X153530369Y-91874254D01*
X153529000Y-91880547D01*
X153529000Y-92577885D01*
X153533475Y-92593124D01*
X153534865Y-92594329D01*
X153542548Y-92596000D01*
X154214885Y-92596000D01*
X154230124Y-92591525D01*
X154231329Y-92590135D01*
X154233000Y-92582452D01*
X154233000Y-92554562D01*
X154232663Y-92548047D01*
X154223106Y-92455943D01*
X154220212Y-92442544D01*
X154170619Y-92293893D01*
X154164445Y-92280714D01*
X154082212Y-92147827D01*
X154073176Y-92136426D01*
X153962571Y-92026014D01*
X153951160Y-92017002D01*
X153854300Y-91957297D01*
X153806807Y-91904525D01*
X153795383Y-91834453D01*
X153823657Y-91769329D01*
X153854113Y-91742892D01*
X153952179Y-91682207D01*
X153963574Y-91673176D01*
X154073986Y-91562571D01*
X154082998Y-91551160D01*
X154165004Y-91418120D01*
X154171151Y-91404939D01*
X154220491Y-91256186D01*
X154223358Y-91242810D01*
X154232672Y-91151903D01*
X154233000Y-91145487D01*
X154233000Y-91122115D01*
X154228525Y-91106876D01*
X154227135Y-91105671D01*
X154219452Y-91104000D01*
X153547115Y-91104000D01*
X153531876Y-91108475D01*
X153530671Y-91109865D01*
X153529000Y-91117548D01*
X153529000Y-91833000D01*
X153528895Y-91833000D01*
X153019890Y-91833000D01*
X153019631Y-91825746D01*
X153021000Y-91819453D01*
X153021000Y-90722000D01*
X153041002Y-90653879D01*
X153094658Y-90607386D01*
X153147000Y-90596000D01*
X154214885Y-90596000D01*
X154230124Y-90591525D01*
X154231329Y-90590135D01*
X154233000Y-90582452D01*
X154233000Y-90554562D01*
X154232663Y-90548047D01*
X154223106Y-90455943D01*
X154220212Y-90442544D01*
X154170619Y-90293893D01*
X154164445Y-90280714D01*
X154082212Y-90147827D01*
X154073176Y-90136426D01*
X153962571Y-90026014D01*
X153951160Y-90017002D01*
X153818120Y-89934996D01*
X153804937Y-89928848D01*
X153694540Y-89892231D01*
X153636180Y-89851800D01*
X153608943Y-89786236D01*
X153621476Y-89716355D01*
X153660146Y-89670702D01*
X153810067Y-89561778D01*
X153810069Y-89561777D01*
X153813271Y-89559450D01*
X154034192Y-89351992D01*
X154168930Y-89189121D01*
X154224848Y-89121529D01*
X154224851Y-89121525D01*
X154227370Y-89118480D01*
X154259615Y-89067670D01*
X154313004Y-89020871D01*
X154383219Y-89010366D01*
X154447967Y-89039490D01*
G37*
%TD.AperFunction*%
%TA.AperFunction,Conductor*%
G36*
X147553527Y-87053502D02*
G01*
X147574501Y-87070405D01*
X147717564Y-87213468D01*
X147751590Y-87275780D01*
X147746525Y-87346595D01*
X147703978Y-87403431D01*
X147637458Y-87428242D01*
X147588802Y-87422156D01*
X147461293Y-87379863D01*
X147447914Y-87376995D01*
X147353562Y-87367328D01*
X147347145Y-87367000D01*
X147322115Y-87367000D01*
X147306876Y-87371475D01*
X147305671Y-87372865D01*
X147304000Y-87380548D01*
X147304000Y-89814884D01*
X147308475Y-89830123D01*
X147309865Y-89831328D01*
X147317548Y-89832999D01*
X147347095Y-89832999D01*
X147353614Y-89832662D01*
X147449208Y-89822743D01*
X147452525Y-89822027D01*
X147454629Y-89822181D01*
X147456063Y-89822032D01*
X147456089Y-89822287D01*
X147523333Y-89827200D01*
X147580104Y-89869834D01*
X147604813Y-89936392D01*
X147589615Y-90005743D01*
X147570971Y-90031439D01*
X147553311Y-90050246D01*
X147546357Y-90057651D01*
X147543602Y-90060493D01*
X147523865Y-90080230D01*
X147521385Y-90083427D01*
X147513682Y-90092447D01*
X147483414Y-90124679D01*
X147479595Y-90131625D01*
X147479593Y-90131628D01*
X147473652Y-90142434D01*
X147462801Y-90158953D01*
X147450386Y-90174959D01*
X147447241Y-90182228D01*
X147447238Y-90182232D01*
X147432826Y-90215537D01*
X147422027Y-90235389D01*
X147422025Y-90235392D01*
X147367596Y-90280977D01*
X147317187Y-90291500D01*
X146874600Y-90291500D01*
X146871354Y-90291837D01*
X146871350Y-90291837D01*
X146775692Y-90301762D01*
X146775688Y-90301763D01*
X146768834Y-90302474D01*
X146762298Y-90304655D01*
X146762296Y-90304655D01*
X146661460Y-90338297D01*
X146601054Y-90358450D01*
X146450652Y-90451522D01*
X146325695Y-90576697D01*
X146321855Y-90582927D01*
X146321854Y-90582928D01*
X146253746Y-90693420D01*
X146232885Y-90727262D01*
X146212168Y-90789721D01*
X146200215Y-90825761D01*
X146177203Y-90895139D01*
X146166500Y-90999600D01*
X146166500Y-91900400D01*
X146166837Y-91903646D01*
X146166837Y-91903650D01*
X146169644Y-91930698D01*
X146177474Y-92006166D01*
X146179655Y-92012702D01*
X146179655Y-92012704D01*
X146185159Y-92029201D01*
X146233450Y-92173946D01*
X146326522Y-92324348D01*
X146451697Y-92449305D01*
X146457927Y-92453145D01*
X146457928Y-92453146D01*
X146602262Y-92542115D01*
X146600830Y-92544438D01*
X146644637Y-92582992D01*
X146664114Y-92651264D01*
X146643588Y-92719229D01*
X146627213Y-92739389D01*
X146034271Y-93332331D01*
X145971959Y-93366357D01*
X145945176Y-93369236D01*
X144908705Y-93369236D01*
X144840584Y-93349234D01*
X144794091Y-93295578D01*
X144783987Y-93225304D01*
X144788873Y-93204298D01*
X144791502Y-93196208D01*
X144791503Y-93196203D01*
X144793542Y-93189928D01*
X144803393Y-93096206D01*
X144812814Y-93006565D01*
X144813504Y-93000000D01*
X144793542Y-92810072D01*
X144734527Y-92628444D01*
X144716677Y-92597526D01*
X144684685Y-92542115D01*
X144667875Y-92512999D01*
X144651137Y-92444005D01*
X144667875Y-92387000D01*
X144731223Y-92277279D01*
X144731224Y-92277278D01*
X144734527Y-92271556D01*
X144793542Y-92089928D01*
X144799900Y-92029441D01*
X144812814Y-91906565D01*
X144813504Y-91900000D01*
X144799109Y-91763042D01*
X144794232Y-91716635D01*
X144794232Y-91716633D01*
X144793542Y-91710072D01*
X144734527Y-91528444D01*
X144723898Y-91510033D01*
X144686211Y-91444758D01*
X144639040Y-91363056D01*
X144583194Y-91301032D01*
X144515675Y-91226045D01*
X144515674Y-91226044D01*
X144511253Y-91221134D01*
X144356752Y-91108882D01*
X144350724Y-91106198D01*
X144350722Y-91106197D01*
X144188319Y-91033891D01*
X144188318Y-91033891D01*
X144182288Y-91031206D01*
X144004324Y-90993378D01*
X143941852Y-90959651D01*
X143907530Y-90897501D01*
X143912258Y-90826662D01*
X143936885Y-90785822D01*
X144020314Y-90693165D01*
X144079799Y-90590135D01*
X144112497Y-90533500D01*
X144112498Y-90533499D01*
X144115801Y-90527777D01*
X144174816Y-90346149D01*
X144179107Y-90305328D01*
X144194088Y-90162786D01*
X144194778Y-90156221D01*
X144192772Y-90137135D01*
X144175506Y-89972856D01*
X144175506Y-89972854D01*
X144174816Y-89966293D01*
X144115801Y-89784665D01*
X144106736Y-89768963D01*
X144032986Y-89641226D01*
X144016248Y-89572231D01*
X144024122Y-89533999D01*
X144051745Y-89460316D01*
X144058500Y-89398134D01*
X144058500Y-89122095D01*
X146042001Y-89122095D01*
X146042338Y-89128614D01*
X146052257Y-89224206D01*
X146055149Y-89237600D01*
X146106588Y-89391784D01*
X146112761Y-89404962D01*
X146198063Y-89542807D01*
X146207099Y-89554208D01*
X146321829Y-89668739D01*
X146333240Y-89677751D01*
X146471243Y-89762816D01*
X146484424Y-89768963D01*
X146638710Y-89820138D01*
X146652086Y-89823005D01*
X146746438Y-89832672D01*
X146752854Y-89833000D01*
X146777885Y-89833000D01*
X146793124Y-89828525D01*
X146794329Y-89827135D01*
X146796000Y-89819452D01*
X146796000Y-88872115D01*
X146791525Y-88856876D01*
X146790135Y-88855671D01*
X146782452Y-88854000D01*
X146060116Y-88854000D01*
X146044877Y-88858475D01*
X146043672Y-88859865D01*
X146042001Y-88867548D01*
X146042001Y-89122095D01*
X144058500Y-89122095D01*
X144058500Y-88327885D01*
X146042000Y-88327885D01*
X146046475Y-88343124D01*
X146047865Y-88344329D01*
X146055548Y-88346000D01*
X146777885Y-88346000D01*
X146793124Y-88341525D01*
X146794329Y-88340135D01*
X146796000Y-88332452D01*
X146796000Y-87385116D01*
X146791525Y-87369877D01*
X146790135Y-87368672D01*
X146782452Y-87367001D01*
X146752905Y-87367001D01*
X146746386Y-87367338D01*
X146650794Y-87377257D01*
X146637400Y-87380149D01*
X146483216Y-87431588D01*
X146470038Y-87437761D01*
X146332193Y-87523063D01*
X146320792Y-87532099D01*
X146206261Y-87646829D01*
X146197249Y-87658240D01*
X146112184Y-87796243D01*
X146106037Y-87809424D01*
X146054862Y-87963710D01*
X146051995Y-87977086D01*
X146042328Y-88071438D01*
X146042000Y-88077855D01*
X146042000Y-88327885D01*
X144058500Y-88327885D01*
X144058500Y-87301866D01*
X144051745Y-87239684D01*
X144038266Y-87203728D01*
X144033083Y-87132924D01*
X144067003Y-87070554D01*
X144129258Y-87036425D01*
X144156248Y-87033500D01*
X147485406Y-87033500D01*
X147553527Y-87053502D01*
G37*
%TD.AperFunction*%
%TD*%
M02*
