%TF.GenerationSoftware,KiCad,Pcbnew,6.0.2+dfsg-1*%
%TF.CreationDate,2023-10-20T16:05:58+09:00*%
%TF.ProjectId,Hibot_agostiniLuca,4869626f-745f-4616-976f-7374696e694c,rev?*%
%TF.SameCoordinates,Original*%
%TF.FileFunction,Copper,L1,Top*%
%TF.FilePolarity,Positive*%
%FSLAX46Y46*%
G04 Gerber Fmt 4.6, Leading zero omitted, Abs format (unit mm)*
G04 Created by KiCad (PCBNEW 6.0.2+dfsg-1) date 2023-10-20 16:05:58*
%MOMM*%
%LPD*%
G01*
G04 APERTURE LIST*
G04 Aperture macros list*
%AMRoundRect*
0 Rectangle with rounded corners*
0 $1 Rounding radius*
0 $2 $3 $4 $5 $6 $7 $8 $9 X,Y pos of 4 corners*
0 Add a 4 corners polygon primitive as box body*
4,1,4,$2,$3,$4,$5,$6,$7,$8,$9,$2,$3,0*
0 Add four circle primitives for the rounded corners*
1,1,$1+$1,$2,$3*
1,1,$1+$1,$4,$5*
1,1,$1+$1,$6,$7*
1,1,$1+$1,$8,$9*
0 Add four rect primitives between the rounded corners*
20,1,$1+$1,$2,$3,$4,$5,0*
20,1,$1+$1,$4,$5,$6,$7,0*
20,1,$1+$1,$6,$7,$8,$9,0*
20,1,$1+$1,$8,$9,$2,$3,0*%
G04 Aperture macros list end*
%TA.AperFunction,SMDPad,CuDef*%
%ADD10R,0.300000X0.350000*%
%TD*%
%TA.AperFunction,SMDPad,CuDef*%
%ADD11R,1.250000X1.050000*%
%TD*%
%TA.AperFunction,SMDPad,CuDef*%
%ADD12R,0.830000X0.280000*%
%TD*%
%TA.AperFunction,SMDPad,CuDef*%
%ADD13RoundRect,0.200000X0.275000X-0.200000X0.275000X0.200000X-0.275000X0.200000X-0.275000X-0.200000X0*%
%TD*%
%TA.AperFunction,SMDPad,CuDef*%
%ADD14RoundRect,0.200000X-0.275000X0.200000X-0.275000X-0.200000X0.275000X-0.200000X0.275000X0.200000X0*%
%TD*%
%TA.AperFunction,ComponentPad*%
%ADD15C,1.600000*%
%TD*%
%TA.AperFunction,SMDPad,CuDef*%
%ADD16R,0.350000X0.375000*%
%TD*%
%TA.AperFunction,SMDPad,CuDef*%
%ADD17R,0.375000X0.350000*%
%TD*%
%TA.AperFunction,SMDPad,CuDef*%
%ADD18RoundRect,0.200000X-0.200000X-0.275000X0.200000X-0.275000X0.200000X0.275000X-0.200000X0.275000X0*%
%TD*%
%TA.AperFunction,SMDPad,CuDef*%
%ADD19RoundRect,0.250000X0.475000X-0.250000X0.475000X0.250000X-0.475000X0.250000X-0.475000X-0.250000X0*%
%TD*%
%TA.AperFunction,SMDPad,CuDef*%
%ADD20RoundRect,0.100000X0.130000X0.100000X-0.130000X0.100000X-0.130000X-0.100000X0.130000X-0.100000X0*%
%TD*%
%TA.AperFunction,SMDPad,CuDef*%
%ADD21R,0.800000X0.900000*%
%TD*%
%TA.AperFunction,SMDPad,CuDef*%
%ADD22RoundRect,0.225000X0.225000X0.250000X-0.225000X0.250000X-0.225000X-0.250000X0.225000X-0.250000X0*%
%TD*%
%TA.AperFunction,SMDPad,CuDef*%
%ADD23RoundRect,0.250000X-0.250000X-0.475000X0.250000X-0.475000X0.250000X0.475000X-0.250000X0.475000X0*%
%TD*%
%TA.AperFunction,ComponentPad*%
%ADD24R,2.200000X2.200000*%
%TD*%
%TA.AperFunction,ComponentPad*%
%ADD25C,2.200000*%
%TD*%
%TA.AperFunction,SMDPad,CuDef*%
%ADD26RoundRect,0.243750X0.243750X0.456250X-0.243750X0.456250X-0.243750X-0.456250X0.243750X-0.456250X0*%
%TD*%
%TA.AperFunction,SMDPad,CuDef*%
%ADD27RoundRect,0.200000X0.200000X0.275000X-0.200000X0.275000X-0.200000X-0.275000X0.200000X-0.275000X0*%
%TD*%
%TA.AperFunction,SMDPad,CuDef*%
%ADD28RoundRect,0.062500X-0.375000X-0.062500X0.375000X-0.062500X0.375000X0.062500X-0.375000X0.062500X0*%
%TD*%
%TA.AperFunction,SMDPad,CuDef*%
%ADD29RoundRect,0.062500X-0.062500X-0.375000X0.062500X-0.375000X0.062500X0.375000X-0.062500X0.375000X0*%
%TD*%
%TA.AperFunction,SMDPad,CuDef*%
%ADD30R,3.100000X3.100000*%
%TD*%
%TA.AperFunction,SMDPad,CuDef*%
%ADD31RoundRect,0.150000X0.150000X-0.512500X0.150000X0.512500X-0.150000X0.512500X-0.150000X-0.512500X0*%
%TD*%
%TA.AperFunction,SMDPad,CuDef*%
%ADD32RoundRect,0.225000X-0.225000X-0.250000X0.225000X-0.250000X0.225000X0.250000X-0.225000X0.250000X0*%
%TD*%
%TA.AperFunction,SMDPad,CuDef*%
%ADD33R,1.700000X0.900000*%
%TD*%
%TA.AperFunction,SMDPad,CuDef*%
%ADD34RoundRect,0.150000X0.587500X0.150000X-0.587500X0.150000X-0.587500X-0.150000X0.587500X-0.150000X0*%
%TD*%
%TA.AperFunction,ComponentPad*%
%ADD35C,3.800000*%
%TD*%
%TA.AperFunction,ComponentPad*%
%ADD36C,0.500000*%
%TD*%
%TA.AperFunction,SMDPad,CuDef*%
%ADD37R,2.560000X0.500000*%
%TD*%
%TA.AperFunction,ViaPad*%
%ADD38C,0.800000*%
%TD*%
%TA.AperFunction,Conductor*%
%ADD39C,0.250000*%
%TD*%
G04 APERTURE END LIST*
D10*
%TO.P,U6,1,D*%
%TO.N,Net-(D3-Pad2)*%
X139790000Y-105040000D03*
%TO.P,U6,2,D*%
X139790000Y-105690000D03*
%TO.P,U6,3,G*%
%TO.N,Net-(U4-Pad11)*%
X139790000Y-106340000D03*
%TO.P,U6,4,S*%
%TO.N,GND*%
X141540000Y-106340000D03*
%TO.P,U6,5,D*%
%TO.N,Net-(D3-Pad2)*%
X141540000Y-105690000D03*
%TO.P,U6,6,D*%
X141540000Y-105040000D03*
D11*
%TO.P,U6,7*%
%TO.N,N/C*%
X140670000Y-105410000D03*
D12*
%TO.P,U6,8*%
X140670000Y-106425000D03*
%TD*%
D13*
%TO.P,R7,1*%
%TO.N,+1V8*%
X152500000Y-96150000D03*
%TO.P,R7,2*%
%TO.N,SCL_1.8v*%
X152500000Y-94500000D03*
%TD*%
D14*
%TO.P,R2,1*%
%TO.N,Net-(C13-Pad1)*%
X131500000Y-100675000D03*
%TO.P,R2,2*%
%TO.N,Net-(C14-Pad1)*%
X131500000Y-102325000D03*
%TD*%
D15*
%TO.P,F1,1*%
%TO.N,Net-(D1-Pad1)*%
X153300000Y-104950000D03*
%TO.P,F1,2*%
%TO.N,VCC*%
X153300000Y-102450000D03*
%TD*%
D13*
%TO.P,R3,1*%
%TO.N,+5V*%
X142500000Y-92625000D03*
%TO.P,R3,2*%
%TO.N,Net-(C10-Pad1)*%
X142500000Y-90975000D03*
%TD*%
D16*
%TO.P,U2,1,SCL/SPC*%
%TO.N,SCL_1.8v*%
X148250000Y-110625000D03*
%TO.P,U2,2,CS_XL*%
%TO.N,Net-(R1-Pad2)*%
X148750000Y-110625000D03*
%TO.P,U2,3,CS_MAG*%
%TO.N,GND*%
X149250000Y-110625000D03*
%TO.P,U2,4,SDA/SDI/SDO*%
%TO.N,SDA_1.8V*%
X149750000Y-110625000D03*
D17*
%TO.P,U2,5,C1*%
%TO.N,Net-(C3-Pad1)*%
X149762500Y-110112500D03*
%TO.P,U2,6,GND*%
%TO.N,GND*%
X149762500Y-109612500D03*
D16*
%TO.P,U2,7,INT_MAG*%
%TO.N,unconnected-(U2-Pad7)*%
X149750000Y-109100000D03*
%TO.P,U2,8,GND*%
%TO.N,GND*%
X149250000Y-109100000D03*
%TO.P,U2,9,VDD*%
%TO.N,+1V8*%
X148750000Y-109100000D03*
%TO.P,U2,10,VDDIO*%
X148250000Y-109100000D03*
D17*
%TO.P,U2,11,DRDY_MAG*%
%TO.N,unconnected-(U2-Pad11)*%
X148237500Y-109612500D03*
%TO.P,U2,12,INT_XL*%
%TO.N,unconnected-(U2-Pad12)*%
X148237500Y-110112500D03*
%TD*%
D18*
%TO.P,R6,1*%
%TO.N,Net-(J3-Pad2)*%
X136550000Y-105100000D03*
%TO.P,R6,2*%
%TO.N,Net-(D3-Pad2)*%
X138200000Y-105100000D03*
%TD*%
D19*
%TO.P,C10,1*%
%TO.N,Net-(C10-Pad1)*%
X142500000Y-89000000D03*
%TO.P,C10,2*%
%TO.N,GND*%
X142500000Y-87100000D03*
%TD*%
D20*
%TO.P,L1,1*%
%TO.N,+5V*%
X128270000Y-95000000D03*
%TO.P,L1,2*%
%TO.N,+5VA*%
X127630000Y-95000000D03*
%TD*%
D21*
%TO.P,Y1,1,1*%
%TO.N,Net-(C14-Pad1)*%
X134625000Y-102325000D03*
%TO.P,Y1,2,2*%
%TO.N,Net-(C13-Pad1)*%
X134625000Y-100675000D03*
%TO.P,Y1,3*%
%TO.N,N/C*%
X133375000Y-100675000D03*
%TO.P,Y1,4*%
X133375000Y-102325000D03*
%TD*%
D22*
%TO.P,C14,1*%
%TO.N,Net-(C14-Pad1)*%
X129775000Y-102500000D03*
%TO.P,C14,2*%
%TO.N,GND*%
X128225000Y-102500000D03*
%TD*%
D23*
%TO.P,C3,1*%
%TO.N,Net-(C3-Pad1)*%
X151600000Y-109862500D03*
%TO.P,C3,2*%
%TO.N,GND*%
X153500000Y-109862500D03*
%TD*%
D24*
%TO.P,J3,1,Pin_1*%
%TO.N,VCC*%
X134730000Y-111000000D03*
D25*
%TO.P,J3,2,Pin_2*%
%TO.N,Net-(J3-Pad2)*%
X137270000Y-111000000D03*
%TD*%
D24*
%TO.P,J2,1,Pin_1*%
%TO.N,+5V*%
X134815000Y-89000000D03*
D25*
%TO.P,J2,2,Pin_2*%
%TO.N,MC_RX*%
X132275000Y-89000000D03*
%TO.P,J2,3,Pin_3*%
%TO.N,MC_TX*%
X129735000Y-89000000D03*
%TO.P,J2,4,Pin_4*%
%TO.N,GND*%
X127195000Y-89000000D03*
%TD*%
D26*
%TO.P,D3,1,K*%
%TO.N,VCC*%
X144875000Y-104000000D03*
%TO.P,D3,2,A*%
%TO.N,Net-(D3-Pad2)*%
X143000000Y-104000000D03*
%TD*%
D27*
%TO.P,R1,1*%
%TO.N,+1V8*%
X153500000Y-111862500D03*
%TO.P,R1,2*%
%TO.N,Net-(R1-Pad2)*%
X151850000Y-111862500D03*
%TD*%
D24*
%TO.P,J4,1,Pin_1*%
%TO.N,Net-(J4-Pad1)*%
X127730000Y-111000000D03*
D25*
%TO.P,J4,2,Pin_2*%
%TO.N,GND*%
X130270000Y-111000000D03*
%TD*%
D28*
%TO.P,U4,1,PD3*%
%TO.N,unconnected-(U4-Pad1)*%
X136532500Y-97720000D03*
%TO.P,U4,2,PD4*%
%TO.N,unconnected-(U4-Pad2)*%
X136532500Y-98220000D03*
%TO.P,U4,3,GND*%
%TO.N,GND*%
X136532500Y-98720000D03*
%TO.P,U4,4,VCC*%
%TO.N,+5V*%
X136532500Y-99220000D03*
%TO.P,U4,5,GND*%
%TO.N,GND*%
X136532500Y-99720000D03*
%TO.P,U4,6,VCC*%
%TO.N,+5V*%
X136532500Y-100220000D03*
%TO.P,U4,7,XTAL1/PB6*%
%TO.N,Net-(C13-Pad1)*%
X136532500Y-100720000D03*
%TO.P,U4,8,XTAL2/PB7*%
%TO.N,Net-(C14-Pad1)*%
X136532500Y-101220000D03*
D29*
%TO.P,U4,9,PD5*%
%TO.N,unconnected-(U4-Pad9)*%
X137220000Y-101907500D03*
%TO.P,U4,10,PD6*%
%TO.N,unconnected-(U4-Pad10)*%
X137720000Y-101907500D03*
%TO.P,U4,11,PD7*%
%TO.N,Net-(U4-Pad11)*%
X138220000Y-101907500D03*
%TO.P,U4,12,PB0*%
%TO.N,unconnected-(U4-Pad12)*%
X138720000Y-101907500D03*
%TO.P,U4,13,PB1*%
%TO.N,unconnected-(U4-Pad13)*%
X139220000Y-101907500D03*
%TO.P,U4,14,PB2*%
%TO.N,unconnected-(U4-Pad14)*%
X139720000Y-101907500D03*
%TO.P,U4,15,PB3*%
%TO.N,unconnected-(U4-Pad15)*%
X140220000Y-101907500D03*
%TO.P,U4,16,PB4*%
%TO.N,unconnected-(U4-Pad16)*%
X140720000Y-101907500D03*
D28*
%TO.P,U4,17,PB5*%
%TO.N,Net-(J4-Pad1)*%
X141407500Y-101220000D03*
%TO.P,U4,18,AVCC*%
%TO.N,+5VA*%
X141407500Y-100720000D03*
%TO.P,U4,19,ADC6*%
%TO.N,unconnected-(U4-Pad19)*%
X141407500Y-100220000D03*
%TO.P,U4,20,AREF*%
%TO.N,Net-(C6-Pad1)*%
X141407500Y-99720000D03*
%TO.P,U4,21,GND*%
%TO.N,GND*%
X141407500Y-99220000D03*
%TO.P,U4,22,ADC7*%
%TO.N,unconnected-(U4-Pad22)*%
X141407500Y-98720000D03*
%TO.P,U4,23,PC0*%
%TO.N,unconnected-(U4-Pad23)*%
X141407500Y-98220000D03*
%TO.P,U4,24,PC1*%
%TO.N,unconnected-(U4-Pad24)*%
X141407500Y-97720000D03*
D29*
%TO.P,U4,25,PC2*%
%TO.N,unconnected-(U4-Pad25)*%
X140720000Y-97032500D03*
%TO.P,U4,26,PC3*%
%TO.N,unconnected-(U4-Pad26)*%
X140220000Y-97032500D03*
%TO.P,U4,27,PC4*%
%TO.N,SDA_5v*%
X139720000Y-97032500D03*
%TO.P,U4,28,PC5*%
%TO.N,SCL_5v*%
X139220000Y-97032500D03*
%TO.P,U4,29,~{RESET}/PC6*%
%TO.N,Net-(C10-Pad1)*%
X138720000Y-97032500D03*
%TO.P,U4,30,PD0*%
%TO.N,MC_RX*%
X138220000Y-97032500D03*
%TO.P,U4,31,PD1*%
%TO.N,MC_TX*%
X137720000Y-97032500D03*
%TO.P,U4,32,PD2*%
%TO.N,unconnected-(U4-Pad32)*%
X137220000Y-97032500D03*
D30*
%TO.P,U4,33,GND*%
%TO.N,GND*%
X138970000Y-99470000D03*
%TD*%
D24*
%TO.P,J1,1,Pin_1*%
%TO.N,GND*%
X141730000Y-111000000D03*
D25*
%TO.P,J1,2,Pin_2*%
%TO.N,Net-(D1-Pad2)*%
X144270000Y-111000000D03*
%TD*%
D31*
%TO.P,U1,1,SCL*%
%TO.N,SCL_1.8v*%
X148050000Y-105000000D03*
%TO.P,U1,2,VSS*%
%TO.N,GND*%
X149000000Y-105000000D03*
%TO.P,U1,3,SDA*%
%TO.N,SDA_1.8V*%
X149950000Y-105000000D03*
%TO.P,U1,4,VCC*%
%TO.N,+1V8*%
X149950000Y-102725000D03*
%TO.P,U1,5,WP*%
%TO.N,GND*%
X148050000Y-102725000D03*
%TD*%
D22*
%TO.P,C13,1*%
%TO.N,Net-(C13-Pad1)*%
X129775000Y-100500000D03*
%TO.P,C13,2*%
%TO.N,GND*%
X128225000Y-100500000D03*
%TD*%
D32*
%TO.P,C6,1*%
%TO.N,Net-(C6-Pad1)*%
X144025000Y-99400000D03*
%TO.P,C6,2*%
%TO.N,GND*%
X145575000Y-99400000D03*
%TD*%
D33*
%TO.P,SW1,1,1*%
%TO.N,Net-(C10-Pad1)*%
X139000000Y-89700000D03*
%TO.P,SW1,2,2*%
%TO.N,GND*%
X139000000Y-86300000D03*
%TD*%
D13*
%TO.P,R4,1*%
%TO.N,+5V*%
X145500000Y-92825000D03*
%TO.P,R4,2*%
%TO.N,SDA_5v*%
X145500000Y-91175000D03*
%TD*%
D34*
%TO.P,Q2,1,G*%
%TO.N,+1V8*%
X149875000Y-92450000D03*
%TO.P,Q2,2,S*%
%TO.N,SDA_1.8V*%
X149875000Y-90550000D03*
%TO.P,Q2,3,D*%
%TO.N,SDA_5v*%
X148000000Y-91500000D03*
%TD*%
%TO.P,Q1,1,G*%
%TO.N,+1V8*%
X149937500Y-97450000D03*
%TO.P,Q1,2,S*%
%TO.N,SCL_1.8v*%
X149937500Y-95550000D03*
%TO.P,Q1,3,D*%
%TO.N,SCL_5v*%
X148062500Y-96500000D03*
%TD*%
D22*
%TO.P,C5,1*%
%TO.N,+5V*%
X134775000Y-98500000D03*
%TO.P,C5,2*%
%TO.N,GND*%
X133225000Y-98500000D03*
%TD*%
D35*
%TO.P,H1,1*%
%TO.N,N/C*%
X152275000Y-87700000D03*
%TD*%
D13*
%TO.P,R8,1*%
%TO.N,+1V8*%
X152500000Y-92825000D03*
%TO.P,R8,2*%
%TO.N,SDA_1.8V*%
X152500000Y-91175000D03*
%TD*%
D23*
%TO.P,C12,1*%
%TO.N,+5VA*%
X128000000Y-97000000D03*
%TO.P,C12,2*%
%TO.N,GND*%
X129900000Y-97000000D03*
%TD*%
D14*
%TO.P,R5,1*%
%TO.N,+5V*%
X145500000Y-94675000D03*
%TO.P,R5,2*%
%TO.N,SCL_5v*%
X145500000Y-96325000D03*
%TD*%
D36*
%TO.P,U3,11,GND*%
%TO.N,GND*%
X153530000Y-99025000D03*
X151470000Y-99025000D03*
X152500000Y-99025000D03*
D37*
X152500000Y-99025000D03*
%TD*%
D38*
%TO.N,VCC*%
X134700000Y-105900000D03*
X144700000Y-105900000D03*
%TO.N,GND*%
X136300000Y-86900000D03*
X130400000Y-104500000D03*
X130300000Y-93200000D03*
X150400000Y-108000000D03*
X130300000Y-93200000D03*
X149000000Y-106624500D03*
X143100000Y-107200000D03*
X142900000Y-96400000D03*
X126900000Y-104500000D03*
X144882745Y-90252461D03*
X131500000Y-104500000D03*
X130300000Y-93200000D03*
%TO.N,+5V*%
X129500000Y-94800000D03*
X143775500Y-94002736D03*
X134800000Y-96600000D03*
X148000000Y-92900000D03*
%TO.N,+1V8*%
X150417581Y-96642180D03*
X131500000Y-99100000D03*
X132400000Y-94600000D03*
X148800000Y-113100000D03*
X151700000Y-103800000D03*
X151000000Y-106124598D03*
X143281274Y-90156221D03*
X140500000Y-94650000D03*
X148900000Y-107800000D03*
%TO.N,+5VA*%
X144000000Y-101600000D03*
X126100000Y-97600000D03*
%TO.N,SCL_5v*%
X143900000Y-93000000D03*
X138600000Y-92700000D03*
%TO.N,SDA_1.8V*%
X153900000Y-113200000D03*
X150000000Y-111775500D03*
%TO.N,SDA_5v*%
X139700000Y-91900000D03*
X143900000Y-91900000D03*
%TO.N,Net-(J4-Pad1)*%
X128800000Y-104000000D03*
X142850000Y-101600000D03*
%TD*%
D39*
%TO.N,VCC*%
X144700000Y-104175000D02*
X144875000Y-104000000D01*
X134730000Y-105930000D02*
X134700000Y-105900000D01*
X144700000Y-105900000D02*
X144700000Y-104175000D01*
X134730000Y-111000000D02*
X134730000Y-105930000D01*
%TO.N,GND*%
X150700000Y-100725240D02*
X150700000Y-99500000D01*
X149762500Y-109612500D02*
X149312500Y-109612500D01*
X136532500Y-98720000D02*
X138220000Y-98720000D01*
X138220000Y-98720000D02*
X138970000Y-99470000D01*
X151924614Y-104600000D02*
X152479850Y-104044764D01*
X149838478Y-108000000D02*
X150400000Y-108000000D01*
X149250000Y-108588478D02*
X149838478Y-108000000D01*
X149250000Y-109100000D02*
X149250000Y-108588478D01*
X149000000Y-105000000D02*
X149000000Y-104616428D01*
X142900000Y-98600000D02*
X142900000Y-96400000D01*
X142340000Y-106340000D02*
X143100000Y-107100000D01*
X152479850Y-103220150D02*
X151649520Y-102389820D01*
X138720000Y-99720000D02*
X138970000Y-99470000D01*
X141407500Y-99220000D02*
X142280000Y-99220000D01*
X149000000Y-104616428D02*
X149603448Y-104012980D01*
X149603448Y-104012980D02*
X150888366Y-104012980D01*
X151649520Y-101674760D02*
X151649520Y-102389820D01*
X128225000Y-102500000D02*
X127500000Y-102500000D01*
X150888366Y-104012980D02*
X151475386Y-104600000D01*
X141407500Y-99220000D02*
X139220000Y-99220000D01*
X143100000Y-107100000D02*
X143100000Y-107200000D01*
X127500000Y-102500000D02*
X126900000Y-103100000D01*
X151649520Y-101674760D02*
X150700000Y-100725240D01*
X141540000Y-106340000D02*
X142340000Y-106340000D01*
X149250000Y-110625000D02*
X149250000Y-109550000D01*
X142280000Y-99220000D02*
X142900000Y-98600000D01*
X152479850Y-104044764D02*
X152479850Y-103220150D01*
X149000000Y-105000000D02*
X149000000Y-106624500D01*
X126900000Y-103100000D02*
X126900000Y-104500000D01*
X150700000Y-99500000D02*
X151175000Y-99025000D01*
X136532500Y-99720000D02*
X138720000Y-99720000D01*
X151475386Y-104600000D02*
X151924614Y-104600000D01*
X139220000Y-99220000D02*
X138970000Y-99470000D01*
X149250000Y-109550000D02*
X149250000Y-109100000D01*
X149312500Y-109612500D02*
X149250000Y-109550000D01*
X151175000Y-99025000D02*
X151470000Y-99025000D01*
%TO.N,Net-(C3-Pad1)*%
X151600000Y-109862500D02*
X151350000Y-110112500D01*
X151350000Y-110112500D02*
X149762500Y-110112500D01*
%TO.N,+5V*%
X133700000Y-86400000D02*
X134815000Y-87515000D01*
X136532500Y-99220000D02*
X135495000Y-99220000D01*
X148000000Y-94300000D02*
X147625000Y-94675000D01*
X128270000Y-95000000D02*
X128270000Y-93770000D01*
X145500000Y-92825000D02*
X145500000Y-94675000D01*
X135495000Y-99220000D02*
X134775000Y-98500000D01*
X129300000Y-95000000D02*
X129500000Y-94800000D01*
X143502736Y-94002736D02*
X143775500Y-94002736D01*
X134800000Y-98475000D02*
X134775000Y-98500000D01*
X136532500Y-100267500D02*
X136529520Y-100270480D01*
X134815000Y-87515000D02*
X134815000Y-89000000D01*
X125500000Y-91000000D02*
X125500000Y-87800000D01*
X135670480Y-100270480D02*
X135495000Y-100095000D01*
X135495000Y-100095000D02*
X135495000Y-99220000D01*
X126900000Y-86400000D02*
X133700000Y-86400000D01*
X136529520Y-100270480D02*
X135670480Y-100270480D01*
X142500000Y-92625000D02*
X142500000Y-93000000D01*
X128270000Y-93770000D02*
X125500000Y-91000000D01*
X147625000Y-94675000D02*
X145500000Y-94675000D01*
X134800000Y-96600000D02*
X134800000Y-98475000D01*
X136532500Y-100220000D02*
X136532500Y-100267500D01*
X125500000Y-87800000D02*
X126900000Y-86400000D01*
X142500000Y-93000000D02*
X143502736Y-94002736D01*
X128270000Y-95000000D02*
X129300000Y-95000000D01*
X148000000Y-92900000D02*
X148000000Y-94300000D01*
%TO.N,Net-(C6-Pad1)*%
X141407500Y-99720000D02*
X142580000Y-99720000D01*
X142580000Y-99720000D02*
X142900000Y-99400000D01*
X142900000Y-99400000D02*
X144025000Y-99400000D01*
%TO.N,Net-(C10-Pad1)*%
X137300000Y-92900000D02*
X137300000Y-91200000D01*
X140600000Y-90100000D02*
X140200000Y-89700000D01*
X140200000Y-89700000D02*
X139000000Y-89700000D01*
X138720000Y-97032500D02*
X138720000Y-94320000D01*
X137300000Y-91200000D02*
X138800000Y-89700000D01*
X142500000Y-90100000D02*
X142500000Y-89000000D01*
X142500000Y-90100000D02*
X140600000Y-90100000D01*
X142500000Y-90975000D02*
X142500000Y-90100000D01*
X138720000Y-94320000D02*
X137300000Y-92900000D01*
X138800000Y-89700000D02*
X139000000Y-89700000D01*
%TO.N,+1V8*%
X148250000Y-108650000D02*
X148250000Y-109100000D01*
X152500000Y-92825000D02*
X150250000Y-92825000D01*
X150950000Y-101450000D02*
X149950000Y-101450000D01*
X151200000Y-102800000D02*
X151700000Y-103300000D01*
X152500000Y-92825000D02*
X153225000Y-92825000D01*
X151700000Y-103300000D02*
X151700000Y-103800000D01*
X142791303Y-91900480D02*
X141599520Y-91900480D01*
X151200000Y-102800000D02*
X151200000Y-101700000D01*
X152262500Y-113100000D02*
X148800000Y-113100000D01*
X149937500Y-97737500D02*
X150400000Y-98200000D01*
X143299520Y-91392263D02*
X142791303Y-91900480D01*
X131500000Y-95500000D02*
X132400000Y-94600000D01*
X149950000Y-98650000D02*
X150400000Y-98200000D01*
X143281274Y-90156221D02*
X143299520Y-90174467D01*
X131500000Y-95700000D02*
X131500000Y-95500000D01*
X149937500Y-97450000D02*
X149937500Y-97122261D01*
X152000000Y-98200000D02*
X152500000Y-97700000D01*
X151000000Y-106800000D02*
X151000000Y-106124598D01*
X153600000Y-93200000D02*
X153600000Y-95800000D01*
X152500000Y-97700000D02*
X152500000Y-96150000D01*
X140500000Y-93000000D02*
X140500000Y-94650000D01*
X148750000Y-109100000D02*
X148750000Y-108124500D01*
X151200000Y-101700000D02*
X150950000Y-101450000D01*
X150250000Y-92825000D02*
X149875000Y-92450000D01*
X150000000Y-107100000D02*
X150700000Y-107100000D01*
X150700000Y-107100000D02*
X151000000Y-106800000D01*
X148874500Y-108000000D02*
X148874500Y-108025500D01*
X153500000Y-111862500D02*
X152262500Y-113100000D01*
X149950000Y-102725000D02*
X149950000Y-101450000D01*
X153250000Y-96150000D02*
X152500000Y-96150000D01*
X149937500Y-97122261D02*
X150417581Y-96642180D01*
X153225000Y-92825000D02*
X153600000Y-93200000D01*
X150975402Y-106124598D02*
X151000000Y-106124598D01*
X149300000Y-107800000D02*
X150000000Y-107100000D01*
X148900000Y-107800000D02*
X149300000Y-107800000D01*
X148874500Y-108025500D02*
X148250000Y-108650000D01*
X141599520Y-91900480D02*
X140500000Y-93000000D01*
X143299520Y-90174467D02*
X143299520Y-91392263D01*
X153600000Y-95800000D02*
X153250000Y-96150000D01*
X149950000Y-101450000D02*
X149950000Y-98650000D01*
X148750000Y-108124500D02*
X148874500Y-108000000D01*
X150400000Y-98200000D02*
X152000000Y-98200000D01*
X131500000Y-99100000D02*
X131500000Y-95700000D01*
X149937500Y-97450000D02*
X149937500Y-97737500D01*
%TO.N,+5VA*%
X141407500Y-100720000D02*
X143120000Y-100720000D01*
X128000000Y-97000000D02*
X127000000Y-97000000D01*
X143120000Y-100720000D02*
X144000000Y-101600000D01*
X127000000Y-97000000D02*
X126800000Y-96800000D01*
X127000000Y-95000000D02*
X127630000Y-95000000D01*
X126800000Y-96800000D02*
X126800000Y-95200000D01*
X126100000Y-97600000D02*
X126700000Y-97000000D01*
X126700000Y-97000000D02*
X127000000Y-97000000D01*
X126800000Y-95200000D02*
X127000000Y-95000000D01*
%TO.N,Net-(D3-Pad2)*%
X138200000Y-105100000D02*
X138980000Y-105100000D01*
X142010000Y-105690000D02*
X141619511Y-105690000D01*
X138980000Y-105100000D02*
X139040000Y-105040000D01*
X139040000Y-105040000D02*
X139720489Y-105040000D01*
X142200000Y-104800000D02*
X142200000Y-105500000D01*
X141960000Y-105040000D02*
X141619511Y-105040000D01*
X139040000Y-105440000D02*
X139290000Y-105690000D01*
X139040000Y-105040000D02*
X139040000Y-105440000D01*
X143000000Y-104000000D02*
X142200000Y-104800000D01*
X139290000Y-105690000D02*
X139720489Y-105690000D01*
X142200000Y-105500000D02*
X142010000Y-105690000D01*
X142200000Y-104800000D02*
X141960000Y-105040000D01*
%TO.N,MC_RX*%
X138220000Y-97032500D02*
X138220000Y-94720000D01*
X135400000Y-91900000D02*
X132900000Y-91900000D01*
X132275000Y-91275000D02*
X132275000Y-89000000D01*
X138220000Y-94720000D02*
X135400000Y-91900000D01*
X132900000Y-91900000D02*
X132275000Y-91275000D01*
%TO.N,MC_TX*%
X137720000Y-95220000D02*
X135000000Y-92500000D01*
X132500000Y-92500000D02*
X129735000Y-89735000D01*
X129735000Y-89735000D02*
X129735000Y-89000000D01*
X137720000Y-97032500D02*
X137720000Y-95220000D01*
X135000000Y-92500000D02*
X132500000Y-92500000D01*
%TO.N,Net-(J3-Pad2)*%
X136550000Y-106950000D02*
X136550000Y-105100000D01*
X137270000Y-111000000D02*
X137270000Y-107670000D01*
X137270000Y-107670000D02*
X136550000Y-106950000D01*
%TO.N,Net-(C13-Pad1)*%
X132800000Y-99600000D02*
X134250000Y-99600000D01*
X134250000Y-99600000D02*
X134625000Y-99975000D01*
X134670000Y-100720000D02*
X134625000Y-100675000D01*
X131725000Y-100675000D02*
X132800000Y-99600000D01*
X134625000Y-99975000D02*
X134625000Y-100675000D01*
X136532500Y-100720000D02*
X134670000Y-100720000D01*
X129950000Y-100675000D02*
X129775000Y-100500000D01*
X131500000Y-100675000D02*
X129950000Y-100675000D01*
X131500000Y-100675000D02*
X131725000Y-100675000D01*
%TO.N,SCL_1.8v*%
X150400000Y-93800000D02*
X151800000Y-93800000D01*
X146800000Y-110000000D02*
X147425000Y-110625000D01*
X149937500Y-96041428D02*
X148400000Y-97578928D01*
X148050000Y-105000000D02*
X148050000Y-106750000D01*
X149937500Y-95550000D02*
X149937500Y-96041428D01*
X147425000Y-110625000D02*
X148250000Y-110625000D01*
X149937500Y-94262500D02*
X150400000Y-93800000D01*
X149000000Y-103300000D02*
X148050000Y-104250000D01*
X149000000Y-101000000D02*
X149000000Y-103300000D01*
X148400000Y-97578928D02*
X148400000Y-100400000D01*
X148050000Y-104250000D02*
X148050000Y-105000000D01*
X148400000Y-100400000D02*
X149000000Y-101000000D01*
X151800000Y-93800000D02*
X152500000Y-94500000D01*
X148050000Y-106750000D02*
X146800000Y-108000000D01*
X149937500Y-95550000D02*
X149937500Y-94262500D01*
X146800000Y-108000000D02*
X146800000Y-110000000D01*
%TO.N,SCL_5v*%
X139220000Y-97032500D02*
X139220000Y-93320000D01*
X147400000Y-96500000D02*
X146500000Y-97400000D01*
X144500000Y-93600000D02*
X144500000Y-95325000D01*
X148062500Y-96500000D02*
X147400000Y-96500000D01*
X139220000Y-93320000D02*
X138600000Y-92700000D01*
X145500000Y-97200000D02*
X145500000Y-96325000D01*
X146500000Y-97400000D02*
X145700000Y-97400000D01*
X145700000Y-97400000D02*
X145500000Y-97200000D01*
X144500000Y-95325000D02*
X145500000Y-96325000D01*
X143900000Y-93000000D02*
X144500000Y-93600000D01*
%TO.N,SDA_1.8V*%
X150900000Y-105000000D02*
X152500000Y-106600000D01*
X149875000Y-90550000D02*
X152350000Y-90550000D01*
X149750000Y-111450000D02*
X149750000Y-111525500D01*
X154600000Y-100700000D02*
X154300000Y-100400000D01*
X154600000Y-112600000D02*
X154600000Y-106600000D01*
X152500000Y-106600000D02*
X154600000Y-106600000D01*
X150900000Y-105000000D02*
X149950000Y-105000000D01*
X149750000Y-110625000D02*
X149750000Y-111450000D01*
X154300000Y-91700000D02*
X153150000Y-90550000D01*
X153150000Y-90550000D02*
X152350000Y-90550000D01*
X154300000Y-100400000D02*
X154300000Y-91700000D01*
X149750000Y-111525500D02*
X150000000Y-111775500D01*
X153900000Y-113200000D02*
X154000000Y-113200000D01*
X152350000Y-90550000D02*
X152500000Y-90700000D01*
X152500000Y-90700000D02*
X152500000Y-91175000D01*
X154000000Y-113200000D02*
X154600000Y-112600000D01*
X154600000Y-106600000D02*
X154600000Y-100700000D01*
%TO.N,SDA_5v*%
X146600000Y-91500000D02*
X148000000Y-91500000D01*
X139720000Y-91920000D02*
X139700000Y-91900000D01*
X146275000Y-91175000D02*
X146600000Y-91500000D01*
X139720000Y-97032500D02*
X139720000Y-91920000D01*
X145500000Y-91175000D02*
X146275000Y-91175000D01*
X143900000Y-91900000D02*
X144775000Y-91900000D01*
X144775000Y-91900000D02*
X145500000Y-91175000D01*
%TO.N,Net-(R1-Pad2)*%
X150400000Y-112500000D02*
X149500000Y-112500000D01*
X148750000Y-111750000D02*
X148750000Y-111450000D01*
X148750000Y-111450000D02*
X148750000Y-110625000D01*
X151850000Y-111862500D02*
X151037500Y-111862500D01*
X149500000Y-112500000D02*
X148750000Y-111750000D01*
X151037500Y-111862500D02*
X150400000Y-112500000D01*
%TO.N,Net-(U4-Pad11)*%
X137400480Y-104199520D02*
X137400480Y-105600480D01*
X138220000Y-103380000D02*
X137400480Y-104199520D01*
X138220000Y-101907500D02*
X138220000Y-103380000D01*
X137400480Y-105600480D02*
X138140000Y-106340000D01*
X138140000Y-106340000D02*
X139790000Y-106340000D01*
%TO.N,Net-(C14-Pad1)*%
X132400000Y-103350000D02*
X134300000Y-103350000D01*
X136532500Y-101220000D02*
X135730000Y-101220000D01*
X131500000Y-102450000D02*
X132400000Y-103350000D01*
X134300000Y-103350000D02*
X134625000Y-103025000D01*
X131500000Y-102325000D02*
X131500000Y-102450000D01*
X129775000Y-102500000D02*
X131325000Y-102500000D01*
X131325000Y-102500000D02*
X131500000Y-102325000D01*
X134625000Y-103025000D02*
X134625000Y-102325000D01*
X135730000Y-101220000D02*
X134625000Y-102325000D01*
%TO.N,Net-(J4-Pad1)*%
X141407500Y-101220000D02*
X142470000Y-101220000D01*
X128800000Y-104000000D02*
X127730000Y-105070000D01*
X127730000Y-105070000D02*
X127730000Y-111000000D01*
X142470000Y-101220000D02*
X142850000Y-101600000D01*
%TD*%
%TA.AperFunction,Conductor*%
%TO.N,GND*%
G36*
X130096121Y-96766002D02*
G01*
X130142614Y-96819658D01*
X130154000Y-96872000D01*
X130154000Y-98214884D01*
X130158475Y-98230123D01*
X130159865Y-98231328D01*
X130167548Y-98232999D01*
X130197095Y-98232999D01*
X130203614Y-98232662D01*
X130299206Y-98222743D01*
X130312600Y-98219851D01*
X130466784Y-98168412D01*
X130479962Y-98162239D01*
X130617807Y-98076937D01*
X130629209Y-98067900D01*
X130651328Y-98045743D01*
X130713611Y-98011665D01*
X130784431Y-98016668D01*
X130841303Y-98059166D01*
X130866171Y-98125665D01*
X130866500Y-98134762D01*
X130866500Y-98397476D01*
X130846498Y-98465597D01*
X130834142Y-98481779D01*
X130760960Y-98563056D01*
X130665473Y-98728444D01*
X130606458Y-98910072D01*
X130605768Y-98916633D01*
X130605768Y-98916635D01*
X130596583Y-99004027D01*
X130586496Y-99100000D01*
X130587186Y-99106565D01*
X130603101Y-99257984D01*
X130606458Y-99289928D01*
X130665473Y-99471556D01*
X130668776Y-99477278D01*
X130668777Y-99477279D01*
X130742247Y-99604533D01*
X130756364Y-99662725D01*
X130803455Y-99685209D01*
X130812952Y-99694687D01*
X130828458Y-99711908D01*
X130859173Y-99775915D01*
X130850407Y-99846368D01*
X130800099Y-99903986D01*
X130796575Y-99906120D01*
X130727948Y-99924305D01*
X130660383Y-99902500D01*
X130624153Y-99864654D01*
X130612185Y-99845314D01*
X130595264Y-99783824D01*
X130544111Y-99756707D01*
X130457702Y-99670448D01*
X130440533Y-99659865D01*
X130318331Y-99584538D01*
X130318329Y-99584537D01*
X130312101Y-99580698D01*
X130149757Y-99526851D01*
X130142920Y-99526151D01*
X130142918Y-99526150D01*
X130101599Y-99521917D01*
X130048732Y-99516500D01*
X129501268Y-99516500D01*
X129498022Y-99516837D01*
X129498018Y-99516837D01*
X129468730Y-99519876D01*
X129398981Y-99527113D01*
X129390963Y-99529788D01*
X129243676Y-99578927D01*
X129243674Y-99578928D01*
X129236732Y-99581244D01*
X129230508Y-99585096D01*
X129230507Y-99585096D01*
X129139577Y-99641365D01*
X129091287Y-99671248D01*
X129086114Y-99676430D01*
X129080377Y-99680977D01*
X129078945Y-99679170D01*
X129026425Y-99707902D01*
X128955605Y-99702892D01*
X128919147Y-99679501D01*
X128918317Y-99680552D01*
X128901160Y-99667002D01*
X128768120Y-99584996D01*
X128754939Y-99578849D01*
X128606186Y-99529509D01*
X128592810Y-99526642D01*
X128501903Y-99517328D01*
X128496874Y-99517071D01*
X128481876Y-99521475D01*
X128480671Y-99522865D01*
X128479000Y-99530548D01*
X128479000Y-101483000D01*
X128478895Y-101483000D01*
X128480369Y-101524254D01*
X128479000Y-101530547D01*
X128479000Y-102628000D01*
X128458998Y-102696121D01*
X128405342Y-102742614D01*
X128353000Y-102754000D01*
X127285115Y-102754000D01*
X127269876Y-102758475D01*
X127268671Y-102759865D01*
X127267000Y-102767548D01*
X127267000Y-102795438D01*
X127267337Y-102801953D01*
X127276894Y-102894057D01*
X127279788Y-102907456D01*
X127329381Y-103056107D01*
X127335555Y-103069286D01*
X127417788Y-103202173D01*
X127426824Y-103213574D01*
X127537429Y-103323986D01*
X127548840Y-103332998D01*
X127681880Y-103415004D01*
X127695061Y-103421151D01*
X127843814Y-103470491D01*
X127863915Y-103474800D01*
X127863559Y-103476462D01*
X127921273Y-103500028D01*
X127962057Y-103558142D01*
X127964948Y-103629080D01*
X127962540Y-103637470D01*
X127953766Y-103664473D01*
X127906458Y-103810072D01*
X127905768Y-103816633D01*
X127905768Y-103816635D01*
X127900117Y-103870406D01*
X127889810Y-103968474D01*
X127889093Y-103975292D01*
X127862080Y-104040949D01*
X127852879Y-104051217D01*
X127590312Y-104313783D01*
X127337742Y-104566353D01*
X127329463Y-104573887D01*
X127322982Y-104578000D01*
X127299515Y-104602990D01*
X127276357Y-104627651D01*
X127273602Y-104630493D01*
X127253865Y-104650230D01*
X127251385Y-104653427D01*
X127243682Y-104662447D01*
X127213414Y-104694679D01*
X127209595Y-104701625D01*
X127209593Y-104701628D01*
X127203652Y-104712434D01*
X127192801Y-104728953D01*
X127180386Y-104744959D01*
X127177241Y-104752228D01*
X127177238Y-104752232D01*
X127162826Y-104785537D01*
X127157609Y-104796187D01*
X127136305Y-104834940D01*
X127134334Y-104842615D01*
X127134334Y-104842616D01*
X127131267Y-104854562D01*
X127124863Y-104873266D01*
X127116819Y-104891855D01*
X127115580Y-104899678D01*
X127115577Y-104899688D01*
X127109901Y-104935524D01*
X127107495Y-104947144D01*
X127096500Y-104989970D01*
X127096500Y-105010224D01*
X127094949Y-105029934D01*
X127091780Y-105049943D01*
X127092526Y-105057835D01*
X127095941Y-105093961D01*
X127096500Y-105105819D01*
X127096500Y-109265500D01*
X127076498Y-109333621D01*
X127022842Y-109380114D01*
X126970500Y-109391500D01*
X126581866Y-109391500D01*
X126519684Y-109398255D01*
X126383295Y-109449385D01*
X126266739Y-109536739D01*
X126179385Y-109653295D01*
X126128255Y-109789684D01*
X126121500Y-109851866D01*
X126121500Y-112148134D01*
X126128255Y-112210316D01*
X126179385Y-112346705D01*
X126266739Y-112463261D01*
X126383295Y-112550615D01*
X126519684Y-112601745D01*
X126581866Y-112608500D01*
X126859022Y-112608500D01*
X126927143Y-112628502D01*
X126973636Y-112682158D01*
X126983740Y-112752432D01*
X126956106Y-112814815D01*
X126848217Y-112945230D01*
X126845288Y-112950647D01*
X126845286Y-112950650D01*
X126752416Y-113122410D01*
X126752414Y-113122415D01*
X126749486Y-113127830D01*
X126688102Y-113326129D01*
X126687458Y-113332254D01*
X126687458Y-113332255D01*
X126671790Y-113481333D01*
X126666404Y-113532575D01*
X126670482Y-113577380D01*
X126684645Y-113733003D01*
X126685218Y-113739303D01*
X126686956Y-113745209D01*
X126686957Y-113745213D01*
X126698005Y-113782749D01*
X126743827Y-113938440D01*
X126839999Y-114122400D01*
X126970071Y-114284177D01*
X126973710Y-114287230D01*
X127006851Y-114349464D01*
X127001045Y-114420222D01*
X126957906Y-114476610D01*
X126891130Y-114500723D01*
X126883498Y-114500957D01*
X126813555Y-114500980D01*
X125839949Y-114501299D01*
X125820528Y-114499799D01*
X125811728Y-114498429D01*
X125805827Y-114497510D01*
X125805825Y-114497510D01*
X125796956Y-114496129D01*
X125788056Y-114497293D01*
X125779080Y-114497183D01*
X125779090Y-114496364D01*
X125757599Y-114496074D01*
X125743355Y-114493818D01*
X125720160Y-114490144D01*
X125682670Y-114477962D01*
X125636832Y-114454607D01*
X125604939Y-114431435D01*
X125568565Y-114395061D01*
X125545393Y-114363169D01*
X125542000Y-114356510D01*
X125522036Y-114317326D01*
X125509855Y-114279836D01*
X125509783Y-114279378D01*
X125504062Y-114243258D01*
X125502631Y-114223548D01*
X125503871Y-114215584D01*
X125499749Y-114184062D01*
X125498685Y-114167725D01*
X125498685Y-102227885D01*
X127267000Y-102227885D01*
X127271475Y-102243124D01*
X127272865Y-102244329D01*
X127280548Y-102246000D01*
X127952885Y-102246000D01*
X127968124Y-102241525D01*
X127969329Y-102240135D01*
X127971000Y-102232452D01*
X127971000Y-101517000D01*
X127971105Y-101517000D01*
X127969631Y-101475746D01*
X127971000Y-101469453D01*
X127971000Y-100772115D01*
X127966525Y-100756876D01*
X127965135Y-100755671D01*
X127957452Y-100754000D01*
X127285115Y-100754000D01*
X127269876Y-100758475D01*
X127268671Y-100759865D01*
X127267000Y-100767548D01*
X127267000Y-100795438D01*
X127267337Y-100801953D01*
X127276894Y-100894057D01*
X127279788Y-100907456D01*
X127329381Y-101056107D01*
X127335555Y-101069286D01*
X127417788Y-101202173D01*
X127426824Y-101213574D01*
X127537429Y-101323986D01*
X127548840Y-101332998D01*
X127645700Y-101392703D01*
X127693193Y-101445475D01*
X127704617Y-101515547D01*
X127676343Y-101580671D01*
X127645887Y-101607108D01*
X127547821Y-101667793D01*
X127536426Y-101676824D01*
X127426014Y-101787429D01*
X127417002Y-101798840D01*
X127334996Y-101931880D01*
X127328849Y-101945061D01*
X127279509Y-102093814D01*
X127276642Y-102107190D01*
X127267328Y-102198097D01*
X127267000Y-102204514D01*
X127267000Y-102227885D01*
X125498685Y-102227885D01*
X125498685Y-100227885D01*
X127267000Y-100227885D01*
X127271475Y-100243124D01*
X127272865Y-100244329D01*
X127280548Y-100246000D01*
X127952885Y-100246000D01*
X127968124Y-100241525D01*
X127969329Y-100240135D01*
X127971000Y-100232452D01*
X127971000Y-99535115D01*
X127966525Y-99519876D01*
X127965135Y-99518671D01*
X127957452Y-99517000D01*
X127954562Y-99517000D01*
X127948047Y-99517337D01*
X127855943Y-99526894D01*
X127842544Y-99529788D01*
X127693893Y-99579381D01*
X127680714Y-99585555D01*
X127547827Y-99667788D01*
X127536426Y-99676824D01*
X127426014Y-99787429D01*
X127417002Y-99798840D01*
X127334996Y-99931880D01*
X127328849Y-99945061D01*
X127279509Y-100093814D01*
X127276642Y-100107190D01*
X127267328Y-100198097D01*
X127267000Y-100204514D01*
X127267000Y-100227885D01*
X125498685Y-100227885D01*
X125498685Y-98520778D01*
X125518687Y-98452657D01*
X125572343Y-98406164D01*
X125642617Y-98396060D01*
X125675933Y-98405671D01*
X125811677Y-98466108D01*
X125811685Y-98466111D01*
X125817712Y-98468794D01*
X125896566Y-98485555D01*
X125998056Y-98507128D01*
X125998061Y-98507128D01*
X126004513Y-98508500D01*
X126195487Y-98508500D01*
X126201939Y-98507128D01*
X126201944Y-98507128D01*
X126303434Y-98485555D01*
X126382288Y-98468794D01*
X126417165Y-98453266D01*
X126550722Y-98393803D01*
X126550724Y-98393802D01*
X126556752Y-98391118D01*
X126711253Y-98278866D01*
X126721937Y-98267000D01*
X126834621Y-98141852D01*
X126834622Y-98141851D01*
X126839040Y-98136944D01*
X126930518Y-97978500D01*
X126931227Y-97977272D01*
X126931227Y-97977271D01*
X126934527Y-97971556D01*
X126935232Y-97969387D01*
X126980175Y-97916514D01*
X127048103Y-97895866D01*
X127116410Y-97915220D01*
X127147861Y-97943432D01*
X127151522Y-97949348D01*
X127276697Y-98074305D01*
X127282927Y-98078145D01*
X127282928Y-98078146D01*
X127420288Y-98162816D01*
X127427262Y-98167115D01*
X127502288Y-98192000D01*
X127588611Y-98220632D01*
X127588613Y-98220632D01*
X127595139Y-98222797D01*
X127601975Y-98223497D01*
X127601978Y-98223498D01*
X127645031Y-98227909D01*
X127699600Y-98233500D01*
X128300400Y-98233500D01*
X128303646Y-98233163D01*
X128303650Y-98233163D01*
X128399308Y-98223238D01*
X128399312Y-98223237D01*
X128406166Y-98222526D01*
X128412702Y-98220345D01*
X128412704Y-98220345D01*
X128544806Y-98176272D01*
X128573946Y-98166550D01*
X128724348Y-98073478D01*
X128764761Y-98032995D01*
X128844131Y-97953486D01*
X128849305Y-97948303D01*
X128852102Y-97943765D01*
X128909353Y-97903176D01*
X128980276Y-97899946D01*
X129041687Y-97935572D01*
X129049062Y-97944068D01*
X129057098Y-97954207D01*
X129171829Y-98068739D01*
X129183240Y-98077751D01*
X129321243Y-98162816D01*
X129334424Y-98168963D01*
X129488710Y-98220138D01*
X129502086Y-98223005D01*
X129596438Y-98232672D01*
X129602854Y-98233000D01*
X129627885Y-98233000D01*
X129643124Y-98228525D01*
X129644329Y-98227135D01*
X129646000Y-98219452D01*
X129646000Y-96872000D01*
X129666002Y-96803879D01*
X129719658Y-96757386D01*
X129772000Y-96746000D01*
X130028000Y-96746000D01*
X130096121Y-96766002D01*
G37*
%TD.AperFunction*%
%TA.AperFunction,Conductor*%
G36*
X136528621Y-101873502D02*
G01*
X136575114Y-101927158D01*
X136586500Y-101979500D01*
X136586501Y-102148514D01*
X136586501Y-102319924D01*
X136587039Y-102324008D01*
X136587039Y-102324014D01*
X136600119Y-102423374D01*
X136601197Y-102431561D01*
X136658733Y-102570464D01*
X136663759Y-102577014D01*
X136663760Y-102577015D01*
X136745230Y-102683189D01*
X136750258Y-102689742D01*
X136869537Y-102781267D01*
X137008439Y-102838803D01*
X137016623Y-102839880D01*
X137016625Y-102839881D01*
X137115988Y-102852962D01*
X137120075Y-102853500D01*
X137219987Y-102853500D01*
X137319924Y-102853499D01*
X137324009Y-102852961D01*
X137324013Y-102852961D01*
X137390344Y-102844229D01*
X137431561Y-102838803D01*
X137431663Y-102838761D01*
X137498863Y-102840359D01*
X137557660Y-102880152D01*
X137585609Y-102945416D01*
X137586500Y-102960377D01*
X137586500Y-103065405D01*
X137566498Y-103133526D01*
X137549595Y-103154500D01*
X137008227Y-103695868D01*
X136999941Y-103703408D01*
X136993462Y-103707520D01*
X136988037Y-103713297D01*
X136946837Y-103757171D01*
X136944082Y-103760013D01*
X136924345Y-103779750D01*
X136921865Y-103782947D01*
X136914162Y-103791967D01*
X136883894Y-103824199D01*
X136880075Y-103831145D01*
X136880073Y-103831148D01*
X136874132Y-103841954D01*
X136863281Y-103858473D01*
X136850866Y-103874479D01*
X136847721Y-103881748D01*
X136847718Y-103881752D01*
X136833306Y-103915057D01*
X136828089Y-103925707D01*
X136806785Y-103964460D01*
X136801881Y-103983562D01*
X136801747Y-103984082D01*
X136795343Y-104002786D01*
X136787299Y-104021375D01*
X136786466Y-104026632D01*
X136748872Y-104085493D01*
X136684374Y-104115167D01*
X136666093Y-104116500D01*
X136306449Y-104116501D01*
X136293366Y-104116501D01*
X136290508Y-104116764D01*
X136290499Y-104116764D01*
X136254996Y-104120026D01*
X136219938Y-104123247D01*
X136213560Y-104125246D01*
X136213559Y-104125246D01*
X136063550Y-104172256D01*
X136063548Y-104172257D01*
X136056301Y-104174528D01*
X135909619Y-104263361D01*
X135788361Y-104384619D01*
X135699528Y-104531301D01*
X135648247Y-104694938D01*
X135641500Y-104768365D01*
X135641501Y-105099875D01*
X135641501Y-105259671D01*
X135621499Y-105327792D01*
X135567844Y-105374285D01*
X135497570Y-105384389D01*
X135432989Y-105354896D01*
X135421865Y-105343981D01*
X135315675Y-105226045D01*
X135315674Y-105226044D01*
X135311253Y-105221134D01*
X135156752Y-105108882D01*
X135150724Y-105106198D01*
X135150722Y-105106197D01*
X134988319Y-105033891D01*
X134988318Y-105033891D01*
X134982288Y-105031206D01*
X134881671Y-105009819D01*
X134801944Y-104992872D01*
X134801939Y-104992872D01*
X134795487Y-104991500D01*
X134604513Y-104991500D01*
X134598061Y-104992872D01*
X134598056Y-104992872D01*
X134518329Y-105009819D01*
X134417712Y-105031206D01*
X134411682Y-105033891D01*
X134411681Y-105033891D01*
X134249278Y-105106197D01*
X134249276Y-105106198D01*
X134243248Y-105108882D01*
X134088747Y-105221134D01*
X134084326Y-105226044D01*
X134084325Y-105226045D01*
X134021789Y-105295499D01*
X133960960Y-105363056D01*
X133865473Y-105528444D01*
X133806458Y-105710072D01*
X133805768Y-105716633D01*
X133805768Y-105716635D01*
X133790956Y-105857568D01*
X133786496Y-105900000D01*
X133787186Y-105906565D01*
X133792830Y-105960260D01*
X133806458Y-106089928D01*
X133865473Y-106271556D01*
X133960960Y-106436944D01*
X133965378Y-106441851D01*
X133965379Y-106441852D01*
X134064136Y-106551533D01*
X134094854Y-106615540D01*
X134096500Y-106635843D01*
X134096500Y-109265500D01*
X134076498Y-109333621D01*
X134022842Y-109380114D01*
X133970500Y-109391500D01*
X133581866Y-109391500D01*
X133519684Y-109398255D01*
X133383295Y-109449385D01*
X133266739Y-109536739D01*
X133179385Y-109653295D01*
X133128255Y-109789684D01*
X133121500Y-109851866D01*
X133121500Y-112148134D01*
X133128255Y-112210316D01*
X133179385Y-112346705D01*
X133266739Y-112463261D01*
X133383295Y-112550615D01*
X133519684Y-112601745D01*
X133581866Y-112608500D01*
X133859022Y-112608500D01*
X133927143Y-112628502D01*
X133973636Y-112682158D01*
X133983740Y-112752432D01*
X133956106Y-112814815D01*
X133848217Y-112945230D01*
X133845288Y-112950647D01*
X133845286Y-112950650D01*
X133752416Y-113122410D01*
X133752414Y-113122415D01*
X133749486Y-113127830D01*
X133688102Y-113326129D01*
X133687458Y-113332254D01*
X133687458Y-113332255D01*
X133671790Y-113481333D01*
X133666404Y-113532575D01*
X133670482Y-113577380D01*
X133684645Y-113733003D01*
X133685218Y-113739303D01*
X133686956Y-113745209D01*
X133686957Y-113745213D01*
X133698005Y-113782749D01*
X133743827Y-113938440D01*
X133839999Y-114122400D01*
X133843859Y-114127200D01*
X133843859Y-114127201D01*
X133966212Y-114279378D01*
X133966215Y-114279381D01*
X133970071Y-114284177D01*
X133971858Y-114285676D01*
X134004605Y-114347173D01*
X133998797Y-114417932D01*
X133955656Y-114474318D01*
X133888880Y-114498429D01*
X133881267Y-114498663D01*
X131117797Y-114499569D01*
X131049672Y-114479589D01*
X131003162Y-114425949D01*
X130993035Y-114355678D01*
X131020673Y-114293253D01*
X131151783Y-114134770D01*
X131155876Y-114127201D01*
X131247584Y-113957590D01*
X131247586Y-113957585D01*
X131250514Y-113952170D01*
X131311898Y-113753871D01*
X131313429Y-113739303D01*
X131332952Y-113553554D01*
X131332952Y-113553552D01*
X131333596Y-113547425D01*
X131323016Y-113431174D01*
X131315341Y-113346836D01*
X131315340Y-113346833D01*
X131314782Y-113340697D01*
X131312298Y-113332255D01*
X131257912Y-113147469D01*
X131256173Y-113141560D01*
X131160001Y-112957600D01*
X131029929Y-112795823D01*
X131025209Y-112791862D01*
X130893688Y-112681503D01*
X130854361Y-112622393D01*
X130853235Y-112551405D01*
X130890666Y-112491078D01*
X130926461Y-112468572D01*
X130997700Y-112439064D01*
X131006494Y-112434583D01*
X131201167Y-112315287D01*
X131210627Y-112304830D01*
X131206844Y-112296054D01*
X129999885Y-111089095D01*
X129965859Y-111026783D01*
X129967694Y-111001132D01*
X130634408Y-111001132D01*
X130634539Y-111002965D01*
X130638790Y-111009580D01*
X131563010Y-111933800D01*
X131575390Y-111940560D01*
X131583040Y-111934833D01*
X131704583Y-111736494D01*
X131709064Y-111727700D01*
X131802134Y-111503009D01*
X131805183Y-111493624D01*
X131861959Y-111257137D01*
X131863502Y-111247390D01*
X131882584Y-111004930D01*
X131882584Y-110995070D01*
X131863502Y-110752610D01*
X131861959Y-110742863D01*
X131805183Y-110506376D01*
X131802134Y-110496991D01*
X131709064Y-110272300D01*
X131704583Y-110263506D01*
X131585287Y-110068833D01*
X131574830Y-110059373D01*
X131566054Y-110063156D01*
X130642022Y-110987188D01*
X130634408Y-111001132D01*
X129967694Y-111001132D01*
X129970924Y-110955968D01*
X129999885Y-110910905D01*
X131203800Y-109706990D01*
X131210560Y-109694610D01*
X131204833Y-109686960D01*
X131006494Y-109565417D01*
X130997700Y-109560936D01*
X130773009Y-109467866D01*
X130763624Y-109464817D01*
X130527137Y-109408041D01*
X130517390Y-109406498D01*
X130274930Y-109387416D01*
X130265070Y-109387416D01*
X130022610Y-109406498D01*
X130012863Y-109408041D01*
X129776376Y-109464817D01*
X129766991Y-109467866D01*
X129542300Y-109560936D01*
X129533506Y-109565417D01*
X129412915Y-109639315D01*
X129344381Y-109657853D01*
X129276704Y-109636396D01*
X129246254Y-109607447D01*
X129198643Y-109543920D01*
X129198642Y-109543919D01*
X129193261Y-109536739D01*
X129076705Y-109449385D01*
X128940316Y-109398255D01*
X128878134Y-109391500D01*
X128489500Y-109391500D01*
X128421379Y-109371498D01*
X128374886Y-109317842D01*
X128363500Y-109265500D01*
X128363500Y-105384594D01*
X128383502Y-105316473D01*
X128400405Y-105295499D01*
X128750499Y-104945405D01*
X128812811Y-104911379D01*
X128839594Y-104908500D01*
X128895487Y-104908500D01*
X128901939Y-104907128D01*
X128901944Y-104907128D01*
X129008021Y-104884580D01*
X129082288Y-104868794D01*
X129092683Y-104864166D01*
X129250722Y-104793803D01*
X129250724Y-104793802D01*
X129256752Y-104791118D01*
X129411253Y-104678866D01*
X129454808Y-104630493D01*
X129534621Y-104541852D01*
X129534622Y-104541851D01*
X129539040Y-104536944D01*
X129634527Y-104371556D01*
X129693542Y-104189928D01*
X129695400Y-104172256D01*
X129712814Y-104006565D01*
X129713504Y-104000000D01*
X129707586Y-103943695D01*
X129694232Y-103816635D01*
X129694232Y-103816633D01*
X129693542Y-103810072D01*
X129646234Y-103664473D01*
X129641023Y-103648436D01*
X129638995Y-103577469D01*
X129675658Y-103516671D01*
X129739370Y-103485345D01*
X129760856Y-103483500D01*
X130048732Y-103483500D01*
X130051978Y-103483163D01*
X130051982Y-103483163D01*
X130086083Y-103479625D01*
X130151019Y-103472887D01*
X130226897Y-103447572D01*
X130306324Y-103421073D01*
X130306326Y-103421072D01*
X130313268Y-103418756D01*
X130350483Y-103395727D01*
X130452485Y-103332606D01*
X130458713Y-103328752D01*
X130579552Y-103207702D01*
X130583395Y-103201468D01*
X130588379Y-103193383D01*
X130641152Y-103145890D01*
X130695638Y-103133500D01*
X130826817Y-103133500D01*
X130892088Y-103151724D01*
X130931301Y-103175472D01*
X130938548Y-103177743D01*
X130938550Y-103177744D01*
X130988455Y-103193383D01*
X131094938Y-103226753D01*
X131168365Y-103233500D01*
X131335406Y-103233500D01*
X131403527Y-103253502D01*
X131424501Y-103270405D01*
X131896343Y-103742247D01*
X131903887Y-103750537D01*
X131908000Y-103757018D01*
X131956511Y-103802572D01*
X131957667Y-103803658D01*
X131960509Y-103806413D01*
X131980230Y-103826134D01*
X131983425Y-103828612D01*
X131992447Y-103836318D01*
X132024679Y-103866586D01*
X132031628Y-103870406D01*
X132042432Y-103876346D01*
X132058956Y-103887199D01*
X132074959Y-103899613D01*
X132115543Y-103917176D01*
X132126173Y-103922383D01*
X132164940Y-103943695D01*
X132172617Y-103945666D01*
X132172622Y-103945668D01*
X132184558Y-103948732D01*
X132203266Y-103955137D01*
X132221855Y-103963181D01*
X132229683Y-103964421D01*
X132229690Y-103964423D01*
X132265524Y-103970099D01*
X132277144Y-103972505D01*
X132308959Y-103980673D01*
X132319970Y-103983500D01*
X132340224Y-103983500D01*
X132359934Y-103985051D01*
X132379943Y-103988220D01*
X132387835Y-103987474D01*
X132406580Y-103985702D01*
X132423962Y-103984059D01*
X132435819Y-103983500D01*
X134221233Y-103983500D01*
X134232416Y-103984027D01*
X134239909Y-103985702D01*
X134247835Y-103985453D01*
X134247836Y-103985453D01*
X134307986Y-103983562D01*
X134311945Y-103983500D01*
X134339856Y-103983500D01*
X134343791Y-103983003D01*
X134343856Y-103982995D01*
X134355693Y-103982062D01*
X134387951Y-103981048D01*
X134391970Y-103980922D01*
X134399889Y-103980673D01*
X134419343Y-103975021D01*
X134438700Y-103971013D01*
X134450930Y-103969468D01*
X134450931Y-103969468D01*
X134458797Y-103968474D01*
X134466168Y-103965555D01*
X134466170Y-103965555D01*
X134499912Y-103952196D01*
X134511142Y-103948351D01*
X134545983Y-103938229D01*
X134545984Y-103938229D01*
X134553593Y-103936018D01*
X134560412Y-103931985D01*
X134560417Y-103931983D01*
X134571028Y-103925707D01*
X134588776Y-103917012D01*
X134607617Y-103909552D01*
X134627987Y-103894753D01*
X134643387Y-103883564D01*
X134653307Y-103877048D01*
X134684535Y-103858580D01*
X134684538Y-103858578D01*
X134691362Y-103854542D01*
X134705683Y-103840221D01*
X134720717Y-103827380D01*
X134725095Y-103824199D01*
X134737107Y-103815472D01*
X134765298Y-103781395D01*
X134773288Y-103772616D01*
X135017247Y-103528657D01*
X135025537Y-103521113D01*
X135032018Y-103517000D01*
X135040732Y-103507721D01*
X135078658Y-103467333D01*
X135081413Y-103464491D01*
X135101134Y-103444770D01*
X135103612Y-103441575D01*
X135111318Y-103432553D01*
X135127798Y-103415004D01*
X135141586Y-103400321D01*
X135151346Y-103382568D01*
X135162199Y-103366045D01*
X135169753Y-103356306D01*
X135174613Y-103350041D01*
X135192176Y-103309457D01*
X135197383Y-103298827D01*
X135206410Y-103282407D01*
X135256313Y-103232592D01*
X135263303Y-103228765D01*
X135271705Y-103225615D01*
X135388261Y-103138261D01*
X135475615Y-103021705D01*
X135526745Y-102885316D01*
X135533500Y-102823134D01*
X135533500Y-102364595D01*
X135553502Y-102296474D01*
X135570405Y-102275499D01*
X135955501Y-101890404D01*
X136017813Y-101856379D01*
X136044596Y-101853500D01*
X136460500Y-101853500D01*
X136528621Y-101873502D01*
G37*
%TD.AperFunction*%
%TA.AperFunction,Conductor*%
G36*
X141489600Y-93010473D02*
G01*
X141546435Y-93053020D01*
X141565799Y-93090846D01*
X141574528Y-93118699D01*
X141663361Y-93265381D01*
X141784619Y-93386639D01*
X141931301Y-93475472D01*
X141938548Y-93477743D01*
X141938550Y-93477744D01*
X141949620Y-93481213D01*
X142094938Y-93526753D01*
X142101563Y-93527362D01*
X142165903Y-93561807D01*
X142533929Y-93929834D01*
X142901576Y-94297481D01*
X142932313Y-94347640D01*
X142938260Y-94365941D01*
X142940973Y-94374292D01*
X143036460Y-94539680D01*
X143040878Y-94544587D01*
X143040879Y-94544588D01*
X143159825Y-94676691D01*
X143164247Y-94681602D01*
X143212478Y-94716644D01*
X143304386Y-94783419D01*
X143318748Y-94793854D01*
X143324776Y-94796538D01*
X143324778Y-94796539D01*
X143414400Y-94836441D01*
X143493212Y-94871530D01*
X143586612Y-94891383D01*
X143673556Y-94909864D01*
X143673561Y-94909864D01*
X143680013Y-94911236D01*
X143740500Y-94911236D01*
X143808621Y-94931238D01*
X143855114Y-94984894D01*
X143866500Y-95037236D01*
X143866500Y-95246233D01*
X143865973Y-95257416D01*
X143864298Y-95264909D01*
X143864547Y-95272835D01*
X143864547Y-95272836D01*
X143866438Y-95332986D01*
X143866500Y-95336944D01*
X143866500Y-95364856D01*
X143866997Y-95368790D01*
X143866997Y-95368791D01*
X143867005Y-95368856D01*
X143867938Y-95380693D01*
X143869327Y-95424889D01*
X143874042Y-95441118D01*
X143874978Y-95444339D01*
X143878987Y-95463700D01*
X143881526Y-95483797D01*
X143884445Y-95491168D01*
X143884445Y-95491170D01*
X143897804Y-95524912D01*
X143901649Y-95536142D01*
X143909557Y-95563361D01*
X143913982Y-95578593D01*
X143918015Y-95585412D01*
X143918017Y-95585417D01*
X143924293Y-95596028D01*
X143932988Y-95613776D01*
X143940448Y-95632617D01*
X143945110Y-95639033D01*
X143945110Y-95639034D01*
X143966436Y-95668387D01*
X143972952Y-95678307D01*
X143990808Y-95708499D01*
X143995458Y-95716362D01*
X144009779Y-95730683D01*
X144022619Y-95745716D01*
X144034528Y-95762107D01*
X144055990Y-95779862D01*
X144068605Y-95790298D01*
X144077384Y-95798288D01*
X144479595Y-96200499D01*
X144513621Y-96262811D01*
X144516500Y-96289594D01*
X144516501Y-96452252D01*
X144516501Y-96581634D01*
X144523247Y-96655062D01*
X144525246Y-96661440D01*
X144525246Y-96661441D01*
X144571452Y-96808882D01*
X144574528Y-96818699D01*
X144663361Y-96965381D01*
X144784619Y-97086639D01*
X144805619Y-97099357D01*
X144853526Y-97151752D01*
X144866287Y-97203181D01*
X144866438Y-97207993D01*
X144866500Y-97211945D01*
X144866500Y-97239856D01*
X144866997Y-97243790D01*
X144866997Y-97243791D01*
X144867005Y-97243856D01*
X144867938Y-97255693D01*
X144869327Y-97299889D01*
X144874978Y-97319339D01*
X144878987Y-97338700D01*
X144881526Y-97358797D01*
X144884445Y-97366168D01*
X144884445Y-97366170D01*
X144897804Y-97399912D01*
X144901649Y-97411142D01*
X144910178Y-97440500D01*
X144913982Y-97453593D01*
X144918015Y-97460412D01*
X144918017Y-97460417D01*
X144924293Y-97471028D01*
X144932988Y-97488776D01*
X144940448Y-97507617D01*
X144945110Y-97514033D01*
X144945110Y-97514034D01*
X144966436Y-97543387D01*
X144972952Y-97553307D01*
X144988058Y-97578849D01*
X144995458Y-97591362D01*
X145009779Y-97605683D01*
X145022619Y-97620716D01*
X145034528Y-97637107D01*
X145040634Y-97642158D01*
X145068605Y-97665298D01*
X145077384Y-97673288D01*
X145196343Y-97792247D01*
X145203887Y-97800537D01*
X145208000Y-97807018D01*
X145213777Y-97812443D01*
X145257667Y-97853658D01*
X145260509Y-97856413D01*
X145280231Y-97876135D01*
X145283373Y-97878572D01*
X145283433Y-97878619D01*
X145292445Y-97886317D01*
X145305878Y-97898931D01*
X145324679Y-97916586D01*
X145331622Y-97920403D01*
X145342431Y-97926345D01*
X145358953Y-97937198D01*
X145374959Y-97949614D01*
X145382237Y-97952764D01*
X145382238Y-97952764D01*
X145415537Y-97967174D01*
X145426187Y-97972391D01*
X145464940Y-97993695D01*
X145472615Y-97995666D01*
X145472616Y-97995666D01*
X145484562Y-97998733D01*
X145503266Y-98005137D01*
X145510897Y-98008439D01*
X145521855Y-98013181D01*
X145529678Y-98014420D01*
X145529688Y-98014423D01*
X145565524Y-98020099D01*
X145577144Y-98022505D01*
X145608959Y-98030673D01*
X145619970Y-98033500D01*
X145640224Y-98033500D01*
X145659934Y-98035051D01*
X145679943Y-98038220D01*
X145687835Y-98037474D01*
X145706580Y-98035702D01*
X145723962Y-98034059D01*
X145735819Y-98033500D01*
X146421233Y-98033500D01*
X146432416Y-98034027D01*
X146439909Y-98035702D01*
X146447835Y-98035453D01*
X146447836Y-98035453D01*
X146507986Y-98033562D01*
X146511945Y-98033500D01*
X146539856Y-98033500D01*
X146543791Y-98033003D01*
X146543856Y-98032995D01*
X146555693Y-98032062D01*
X146587951Y-98031048D01*
X146591970Y-98030922D01*
X146599889Y-98030673D01*
X146619343Y-98025021D01*
X146638700Y-98021013D01*
X146650930Y-98019468D01*
X146650931Y-98019468D01*
X146658797Y-98018474D01*
X146666168Y-98015555D01*
X146666170Y-98015555D01*
X146699912Y-98002196D01*
X146711142Y-97998351D01*
X146745983Y-97988229D01*
X146745984Y-97988229D01*
X146753593Y-97986018D01*
X146760412Y-97981985D01*
X146760417Y-97981983D01*
X146771028Y-97975707D01*
X146788776Y-97967012D01*
X146807617Y-97959552D01*
X146843387Y-97933564D01*
X146853307Y-97927048D01*
X146884535Y-97908580D01*
X146884538Y-97908578D01*
X146891362Y-97904542D01*
X146905683Y-97890221D01*
X146920717Y-97877380D01*
X146922431Y-97876135D01*
X146937107Y-97865472D01*
X146965298Y-97831395D01*
X146973288Y-97822616D01*
X147450499Y-97345405D01*
X147512811Y-97311379D01*
X147539594Y-97308500D01*
X147652947Y-97308500D01*
X147721068Y-97328502D01*
X147767561Y-97382158D01*
X147777665Y-97452432D01*
X147774989Y-97465834D01*
X147766500Y-97498898D01*
X147766500Y-97519152D01*
X147764949Y-97538862D01*
X147761780Y-97558871D01*
X147762526Y-97566763D01*
X147765941Y-97602889D01*
X147766500Y-97614747D01*
X147766500Y-100321233D01*
X147765973Y-100332416D01*
X147764298Y-100339909D01*
X147764547Y-100347835D01*
X147764547Y-100347836D01*
X147766438Y-100407986D01*
X147766500Y-100411945D01*
X147766500Y-100439856D01*
X147766997Y-100443790D01*
X147766997Y-100443791D01*
X147767005Y-100443856D01*
X147767938Y-100455693D01*
X147769327Y-100499889D01*
X147774978Y-100519339D01*
X147778987Y-100538700D01*
X147781526Y-100558797D01*
X147784445Y-100566168D01*
X147784445Y-100566170D01*
X147797804Y-100599912D01*
X147801649Y-100611142D01*
X147813982Y-100653593D01*
X147818015Y-100660412D01*
X147818017Y-100660417D01*
X147824293Y-100671028D01*
X147832988Y-100688776D01*
X147840448Y-100707617D01*
X147845110Y-100714033D01*
X147845110Y-100714034D01*
X147866436Y-100743387D01*
X147872952Y-100753307D01*
X147895458Y-100791362D01*
X147909779Y-100805683D01*
X147922619Y-100820716D01*
X147934528Y-100837107D01*
X147962347Y-100860121D01*
X147968605Y-100865298D01*
X147977384Y-100873288D01*
X148329595Y-101225499D01*
X148363621Y-101287811D01*
X148366500Y-101314594D01*
X148366500Y-101454599D01*
X148346498Y-101522720D01*
X148308922Y-101560403D01*
X148308030Y-101560980D01*
X148304000Y-101569871D01*
X148304000Y-102853000D01*
X148283998Y-102921121D01*
X148230342Y-102967614D01*
X148178000Y-102979000D01*
X147260116Y-102979000D01*
X147244877Y-102983475D01*
X147243672Y-102984865D01*
X147242001Y-102992548D01*
X147242001Y-103301484D01*
X147242195Y-103306420D01*
X147244430Y-103334836D01*
X147246730Y-103347431D01*
X147289107Y-103493290D01*
X147295352Y-103507721D01*
X147371911Y-103637178D01*
X147381551Y-103649604D01*
X147490211Y-103758264D01*
X147524237Y-103820576D01*
X147519172Y-103891391D01*
X147508146Y-103911205D01*
X147509278Y-103911874D01*
X147505243Y-103918697D01*
X147500386Y-103924959D01*
X147493931Y-103939876D01*
X147486362Y-103957366D01*
X147459820Y-103996420D01*
X147375547Y-104080693D01*
X147371511Y-104087517D01*
X147371509Y-104087520D01*
X147349198Y-104125246D01*
X147290855Y-104223899D01*
X147244438Y-104383669D01*
X147243934Y-104390074D01*
X147243933Y-104390079D01*
X147242507Y-104408201D01*
X147241500Y-104420998D01*
X147241500Y-105579002D01*
X147244438Y-105616331D01*
X147290855Y-105776101D01*
X147294892Y-105782927D01*
X147371509Y-105912480D01*
X147371511Y-105912483D01*
X147375547Y-105919307D01*
X147381155Y-105924915D01*
X147386011Y-105931175D01*
X147384504Y-105932344D01*
X147413621Y-105985667D01*
X147416500Y-106012450D01*
X147416500Y-106435406D01*
X147396498Y-106503527D01*
X147379599Y-106524497D01*
X146407736Y-107496359D01*
X146399462Y-107503888D01*
X146392982Y-107508000D01*
X146387557Y-107513777D01*
X146346357Y-107557651D01*
X146343602Y-107560493D01*
X146323865Y-107580230D01*
X146321385Y-107583427D01*
X146313682Y-107592447D01*
X146283414Y-107624679D01*
X146279595Y-107631625D01*
X146279593Y-107631628D01*
X146273652Y-107642434D01*
X146262801Y-107658953D01*
X146250386Y-107674959D01*
X146247241Y-107682228D01*
X146247238Y-107682232D01*
X146232826Y-107715537D01*
X146227609Y-107726187D01*
X146206305Y-107764940D01*
X146204334Y-107772615D01*
X146204334Y-107772616D01*
X146201267Y-107784562D01*
X146194863Y-107803266D01*
X146186819Y-107821855D01*
X146185580Y-107829678D01*
X146185577Y-107829688D01*
X146179901Y-107865524D01*
X146177495Y-107877144D01*
X146166500Y-107919970D01*
X146166500Y-107940224D01*
X146164949Y-107959934D01*
X146161780Y-107979943D01*
X146162526Y-107987835D01*
X146165941Y-108023961D01*
X146166500Y-108035819D01*
X146166500Y-109921233D01*
X146165973Y-109932416D01*
X146164298Y-109939909D01*
X146164547Y-109947835D01*
X146164547Y-109947836D01*
X146166438Y-110007986D01*
X146166500Y-110011945D01*
X146166500Y-110039856D01*
X146166997Y-110043790D01*
X146166997Y-110043791D01*
X146167005Y-110043856D01*
X146167938Y-110055693D01*
X146169327Y-110099889D01*
X146174153Y-110116500D01*
X146174978Y-110119339D01*
X146178987Y-110138700D01*
X146181526Y-110158797D01*
X146184445Y-110166168D01*
X146184445Y-110166170D01*
X146197804Y-110199912D01*
X146201649Y-110211142D01*
X146213982Y-110253593D01*
X146218015Y-110260412D01*
X146218017Y-110260417D01*
X146224293Y-110271028D01*
X146232988Y-110288776D01*
X146240448Y-110307617D01*
X146245110Y-110314033D01*
X146245110Y-110314034D01*
X146266436Y-110343387D01*
X146272952Y-110353307D01*
X146295458Y-110391362D01*
X146309779Y-110405683D01*
X146322619Y-110420716D01*
X146334528Y-110437107D01*
X146340634Y-110442158D01*
X146368605Y-110465298D01*
X146377384Y-110473288D01*
X146921343Y-111017247D01*
X146928887Y-111025537D01*
X146933000Y-111032018D01*
X146938777Y-111037443D01*
X146982667Y-111078658D01*
X146985509Y-111081413D01*
X147005230Y-111101134D01*
X147008425Y-111103612D01*
X147017447Y-111111318D01*
X147049679Y-111141586D01*
X147056628Y-111145406D01*
X147067432Y-111151346D01*
X147083956Y-111162199D01*
X147099959Y-111174613D01*
X147140543Y-111192176D01*
X147151173Y-111197383D01*
X147189940Y-111218695D01*
X147197617Y-111220666D01*
X147197622Y-111220668D01*
X147209558Y-111223732D01*
X147228266Y-111230137D01*
X147246855Y-111238181D01*
X147254680Y-111239420D01*
X147254682Y-111239421D01*
X147290519Y-111245097D01*
X147302140Y-111247504D01*
X147337289Y-111256528D01*
X147344970Y-111258500D01*
X147365231Y-111258500D01*
X147384940Y-111260051D01*
X147404943Y-111263219D01*
X147412835Y-111262473D01*
X147418062Y-111261979D01*
X147448954Y-111259059D01*
X147460811Y-111258500D01*
X147793142Y-111258500D01*
X147837371Y-111266518D01*
X147957282Y-111311471D01*
X147957288Y-111311473D01*
X147964684Y-111314245D01*
X147991914Y-111317203D01*
X148004108Y-111318528D01*
X148069670Y-111345770D01*
X148110096Y-111404134D01*
X148116500Y-111443791D01*
X148116500Y-111671233D01*
X148115973Y-111682416D01*
X148114298Y-111689909D01*
X148114547Y-111697835D01*
X148114547Y-111697836D01*
X148116438Y-111757986D01*
X148116500Y-111761945D01*
X148116500Y-111789856D01*
X148116997Y-111793790D01*
X148116997Y-111793791D01*
X148117005Y-111793856D01*
X148117938Y-111805693D01*
X148119327Y-111849889D01*
X148124978Y-111869339D01*
X148128987Y-111888700D01*
X148131526Y-111908797D01*
X148134445Y-111916168D01*
X148134445Y-111916170D01*
X148147804Y-111949912D01*
X148151649Y-111961142D01*
X148163982Y-112003593D01*
X148168015Y-112010412D01*
X148168017Y-112010417D01*
X148174293Y-112021028D01*
X148182988Y-112038776D01*
X148190448Y-112057617D01*
X148195110Y-112064033D01*
X148195110Y-112064034D01*
X148216436Y-112093387D01*
X148222952Y-112103307D01*
X148245458Y-112141362D01*
X148259779Y-112155683D01*
X148272620Y-112170717D01*
X148284528Y-112187107D01*
X148283300Y-112187999D01*
X148311346Y-112243434D01*
X148304059Y-112314056D01*
X148261505Y-112368272D01*
X148194095Y-112417247D01*
X148194087Y-112417254D01*
X148188747Y-112421134D01*
X148184326Y-112426044D01*
X148184325Y-112426045D01*
X148066579Y-112556816D01*
X148060960Y-112563056D01*
X147965473Y-112728444D01*
X147906458Y-112910072D01*
X147886496Y-113100000D01*
X147906458Y-113289928D01*
X147965473Y-113471556D01*
X148060960Y-113636944D01*
X148065378Y-113641851D01*
X148065379Y-113641852D01*
X148166241Y-113753871D01*
X148188747Y-113778866D01*
X148287843Y-113850864D01*
X148326385Y-113878866D01*
X148343248Y-113891118D01*
X148349276Y-113893802D01*
X148349278Y-113893803D01*
X148492547Y-113957590D01*
X148517712Y-113968794D01*
X148604479Y-113987237D01*
X148698056Y-114007128D01*
X148698061Y-114007128D01*
X148704513Y-114008500D01*
X148895487Y-114008500D01*
X148901939Y-114007128D01*
X148901944Y-114007128D01*
X148995521Y-113987237D01*
X149082288Y-113968794D01*
X149107453Y-113957590D01*
X149250722Y-113893803D01*
X149250724Y-113893802D01*
X149256752Y-113891118D01*
X149273616Y-113878866D01*
X149389671Y-113794546D01*
X149411253Y-113778866D01*
X149415668Y-113773963D01*
X149420580Y-113769540D01*
X149421705Y-113770789D01*
X149475014Y-113737949D01*
X149508200Y-113733500D01*
X152183733Y-113733500D01*
X152194916Y-113734027D01*
X152202409Y-113735702D01*
X152210335Y-113735453D01*
X152210336Y-113735453D01*
X152270486Y-113733562D01*
X152274445Y-113733500D01*
X152302356Y-113733500D01*
X152306291Y-113733003D01*
X152306356Y-113732995D01*
X152318193Y-113732062D01*
X152350451Y-113731048D01*
X152354470Y-113730922D01*
X152362389Y-113730673D01*
X152381843Y-113725021D01*
X152401200Y-113721013D01*
X152413430Y-113719468D01*
X152413431Y-113719468D01*
X152421297Y-113718474D01*
X152428668Y-113715555D01*
X152428670Y-113715555D01*
X152462412Y-113702196D01*
X152473642Y-113698351D01*
X152508483Y-113688229D01*
X152508484Y-113688229D01*
X152516093Y-113686018D01*
X152522912Y-113681985D01*
X152522917Y-113681983D01*
X152533528Y-113675707D01*
X152551276Y-113667012D01*
X152570117Y-113659552D01*
X152605887Y-113633564D01*
X152615807Y-113627048D01*
X152647035Y-113608580D01*
X152647038Y-113608578D01*
X152653862Y-113604542D01*
X152668183Y-113590221D01*
X152683217Y-113577380D01*
X152693194Y-113570131D01*
X152699607Y-113565472D01*
X152727798Y-113531395D01*
X152735788Y-113522616D01*
X152827230Y-113431174D01*
X152889542Y-113397148D01*
X152960357Y-113402213D01*
X153017193Y-113444760D01*
X153036157Y-113481331D01*
X153065473Y-113571556D01*
X153068776Y-113577278D01*
X153068777Y-113577279D01*
X153086849Y-113608580D01*
X153160960Y-113736944D01*
X153165378Y-113741851D01*
X153165379Y-113741852D01*
X153191434Y-113770789D01*
X153288747Y-113878866D01*
X153443248Y-113991118D01*
X153449276Y-113993802D01*
X153449278Y-113993803D01*
X153611681Y-114066109D01*
X153617712Y-114068794D01*
X153711113Y-114088647D01*
X153798056Y-114107128D01*
X153798061Y-114107128D01*
X153804513Y-114108500D01*
X153995487Y-114108500D01*
X154001939Y-114107128D01*
X154001944Y-114107128D01*
X154088887Y-114088647D01*
X154182288Y-114068794D01*
X154268319Y-114030491D01*
X154314751Y-114009818D01*
X154385118Y-114000384D01*
X154449415Y-114030491D01*
X154487229Y-114090579D01*
X154492000Y-114124925D01*
X154492000Y-114150671D01*
X154490500Y-114170055D01*
X154486814Y-114193729D01*
X154487978Y-114202629D01*
X154487868Y-114211605D01*
X154487049Y-114211595D01*
X154486759Y-114233087D01*
X154480829Y-114270525D01*
X154468647Y-114308015D01*
X154445292Y-114353853D01*
X154422120Y-114385746D01*
X154385746Y-114422120D01*
X154353856Y-114445291D01*
X154308011Y-114468649D01*
X154270522Y-114480830D01*
X154255030Y-114483283D01*
X154233943Y-114486623D01*
X154214233Y-114488054D01*
X154206269Y-114486814D01*
X154174638Y-114490950D01*
X154158352Y-114492014D01*
X146980708Y-114494367D01*
X145121597Y-114494977D01*
X145053470Y-114474997D01*
X145006960Y-114421357D01*
X144996833Y-114351086D01*
X145024472Y-114288661D01*
X145026013Y-114286799D01*
X145151783Y-114134770D01*
X145155876Y-114127201D01*
X145247584Y-113957590D01*
X145247586Y-113957585D01*
X145250514Y-113952170D01*
X145311898Y-113753871D01*
X145313429Y-113739303D01*
X145332952Y-113553554D01*
X145332952Y-113553552D01*
X145333596Y-113547425D01*
X145323016Y-113431174D01*
X145315341Y-113346836D01*
X145315340Y-113346833D01*
X145314782Y-113340697D01*
X145312298Y-113332255D01*
X145257912Y-113147469D01*
X145256173Y-113141560D01*
X145160001Y-112957600D01*
X145029929Y-112795823D01*
X145025210Y-112791863D01*
X145025209Y-112791862D01*
X144894119Y-112681864D01*
X144854793Y-112622755D01*
X144853667Y-112551767D01*
X144891098Y-112491439D01*
X144926892Y-112468935D01*
X144957919Y-112456083D01*
X144997928Y-112439511D01*
X144997932Y-112439509D01*
X145002502Y-112437616D01*
X145218376Y-112305328D01*
X145410898Y-112140898D01*
X145575328Y-111948376D01*
X145707616Y-111732502D01*
X145732995Y-111671233D01*
X145802611Y-111503164D01*
X145802612Y-111503162D01*
X145804505Y-111498591D01*
X145841194Y-111345770D01*
X145862454Y-111257216D01*
X145862455Y-111257210D01*
X145863609Y-111252403D01*
X145883474Y-111000000D01*
X145863609Y-110747597D01*
X145862152Y-110741525D01*
X145805660Y-110506221D01*
X145804505Y-110501409D01*
X145791113Y-110469077D01*
X145709511Y-110272072D01*
X145709509Y-110272068D01*
X145707616Y-110267498D01*
X145575328Y-110051624D01*
X145410898Y-109859102D01*
X145218376Y-109694672D01*
X145002502Y-109562384D01*
X144997932Y-109560491D01*
X144997928Y-109560489D01*
X144773164Y-109467389D01*
X144773162Y-109467388D01*
X144768591Y-109465495D01*
X144683968Y-109445179D01*
X144527216Y-109407546D01*
X144527210Y-109407545D01*
X144522403Y-109406391D01*
X144270000Y-109386526D01*
X144017597Y-109406391D01*
X144012790Y-109407545D01*
X144012784Y-109407546D01*
X143856032Y-109445179D01*
X143771409Y-109465495D01*
X143766838Y-109467388D01*
X143766836Y-109467389D01*
X143542072Y-109560489D01*
X143542068Y-109560491D01*
X143537498Y-109562384D01*
X143533279Y-109564969D01*
X143533268Y-109564975D01*
X143412186Y-109639175D01*
X143343653Y-109657714D01*
X143275976Y-109636258D01*
X143245525Y-109607308D01*
X143198285Y-109544276D01*
X143185724Y-109531715D01*
X143083649Y-109455214D01*
X143068054Y-109446676D01*
X142947606Y-109401522D01*
X142932351Y-109397895D01*
X142881486Y-109392369D01*
X142874672Y-109392000D01*
X142002115Y-109392000D01*
X141986876Y-109396475D01*
X141985671Y-109397865D01*
X141984000Y-109405548D01*
X141984000Y-111128000D01*
X141963998Y-111196121D01*
X141910342Y-111242614D01*
X141858000Y-111254000D01*
X140140116Y-111254000D01*
X140124877Y-111258475D01*
X140123672Y-111259865D01*
X140122001Y-111267548D01*
X140122001Y-112144669D01*
X140122371Y-112151490D01*
X140127895Y-112202352D01*
X140131521Y-112217604D01*
X140176676Y-112338054D01*
X140185214Y-112353649D01*
X140261715Y-112455724D01*
X140274276Y-112468285D01*
X140376351Y-112544786D01*
X140391946Y-112553324D01*
X140512394Y-112598478D01*
X140527649Y-112602105D01*
X140578514Y-112607631D01*
X140585328Y-112608000D01*
X140859435Y-112608000D01*
X140927556Y-112628002D01*
X140974049Y-112681658D01*
X140984153Y-112751932D01*
X140956519Y-112814316D01*
X140882496Y-112903794D01*
X140848217Y-112945230D01*
X140845288Y-112950647D01*
X140845286Y-112950650D01*
X140752416Y-113122410D01*
X140752414Y-113122415D01*
X140749486Y-113127830D01*
X140688102Y-113326129D01*
X140687458Y-113332254D01*
X140687458Y-113332255D01*
X140671790Y-113481333D01*
X140666404Y-113532575D01*
X140670482Y-113577380D01*
X140684645Y-113733003D01*
X140685218Y-113739303D01*
X140686956Y-113745209D01*
X140686957Y-113745213D01*
X140698005Y-113782749D01*
X140743827Y-113938440D01*
X140839999Y-114122400D01*
X140969960Y-114284039D01*
X140970071Y-114284177D01*
X140970045Y-114284198D01*
X141002357Y-114344875D01*
X140996551Y-114415634D01*
X140953412Y-114472021D01*
X140886636Y-114496134D01*
X140879009Y-114496368D01*
X140074965Y-114496631D01*
X138119698Y-114497272D01*
X138051571Y-114477292D01*
X138005061Y-114423652D01*
X137994934Y-114353381D01*
X138022572Y-114290958D01*
X138151783Y-114134770D01*
X138155876Y-114127201D01*
X138247584Y-113957590D01*
X138247586Y-113957585D01*
X138250514Y-113952170D01*
X138311898Y-113753871D01*
X138313429Y-113739303D01*
X138332952Y-113553554D01*
X138332952Y-113553552D01*
X138333596Y-113547425D01*
X138323016Y-113431174D01*
X138315341Y-113346836D01*
X138315340Y-113346833D01*
X138314782Y-113340697D01*
X138312298Y-113332255D01*
X138257912Y-113147469D01*
X138256173Y-113141560D01*
X138160001Y-112957600D01*
X138029929Y-112795823D01*
X138025210Y-112791863D01*
X138025209Y-112791862D01*
X137894119Y-112681864D01*
X137854793Y-112622755D01*
X137853667Y-112551767D01*
X137891098Y-112491439D01*
X137926892Y-112468935D01*
X137957919Y-112456083D01*
X137997928Y-112439511D01*
X137997932Y-112439509D01*
X138002502Y-112437616D01*
X138218376Y-112305328D01*
X138410898Y-112140898D01*
X138575328Y-111948376D01*
X138707616Y-111732502D01*
X138732995Y-111671233D01*
X138802611Y-111503164D01*
X138802612Y-111503162D01*
X138804505Y-111498591D01*
X138841194Y-111345770D01*
X138862454Y-111257216D01*
X138862455Y-111257210D01*
X138863609Y-111252403D01*
X138883474Y-111000000D01*
X138863609Y-110747597D01*
X138862152Y-110741525D01*
X138858877Y-110727885D01*
X140122000Y-110727885D01*
X140126475Y-110743124D01*
X140127865Y-110744329D01*
X140135548Y-110746000D01*
X141457885Y-110746000D01*
X141473124Y-110741525D01*
X141474329Y-110740135D01*
X141476000Y-110732452D01*
X141476000Y-109410116D01*
X141471525Y-109394877D01*
X141470135Y-109393672D01*
X141462452Y-109392001D01*
X140585331Y-109392001D01*
X140578510Y-109392371D01*
X140527648Y-109397895D01*
X140512396Y-109401521D01*
X140391946Y-109446676D01*
X140376351Y-109455214D01*
X140274276Y-109531715D01*
X140261715Y-109544276D01*
X140185214Y-109646351D01*
X140176676Y-109661946D01*
X140131522Y-109782394D01*
X140127895Y-109797649D01*
X140122369Y-109848514D01*
X140122000Y-109855328D01*
X140122000Y-110727885D01*
X138858877Y-110727885D01*
X138805660Y-110506221D01*
X138804505Y-110501409D01*
X138791113Y-110469077D01*
X138709511Y-110272072D01*
X138709509Y-110272068D01*
X138707616Y-110267498D01*
X138575328Y-110051624D01*
X138410898Y-109859102D01*
X138218376Y-109694672D01*
X138002502Y-109562384D01*
X137997925Y-109560488D01*
X137981280Y-109553593D01*
X137926000Y-109509044D01*
X137903500Y-109437185D01*
X137903500Y-107748768D01*
X137904027Y-107737585D01*
X137905702Y-107730092D01*
X137903562Y-107662001D01*
X137903500Y-107658044D01*
X137903500Y-107630144D01*
X137902996Y-107626153D01*
X137902063Y-107614311D01*
X137900923Y-107578036D01*
X137900674Y-107570111D01*
X137898462Y-107562497D01*
X137898461Y-107562492D01*
X137895023Y-107550659D01*
X137891012Y-107531295D01*
X137889467Y-107519064D01*
X137888474Y-107511203D01*
X137885557Y-107503836D01*
X137885556Y-107503831D01*
X137872198Y-107470092D01*
X137868354Y-107458865D01*
X137858230Y-107424022D01*
X137856018Y-107416407D01*
X137845707Y-107398972D01*
X137837012Y-107381224D01*
X137829552Y-107362383D01*
X137803564Y-107326613D01*
X137797048Y-107316693D01*
X137778580Y-107285465D01*
X137778578Y-107285462D01*
X137774542Y-107278638D01*
X137760221Y-107264317D01*
X137747380Y-107249283D01*
X137740132Y-107239307D01*
X137735472Y-107232893D01*
X137701407Y-107204712D01*
X137692626Y-107196722D01*
X137220404Y-106724499D01*
X137186379Y-106662187D01*
X137183500Y-106635404D01*
X137183500Y-106583594D01*
X137203502Y-106515473D01*
X137257158Y-106468980D01*
X137327432Y-106458876D01*
X137392012Y-106488370D01*
X137398595Y-106494499D01*
X137636343Y-106732247D01*
X137643887Y-106740537D01*
X137648000Y-106747018D01*
X137653777Y-106752443D01*
X137697667Y-106793658D01*
X137700509Y-106796413D01*
X137720230Y-106816134D01*
X137723425Y-106818612D01*
X137732447Y-106826318D01*
X137764679Y-106856586D01*
X137771628Y-106860406D01*
X137782432Y-106866346D01*
X137798956Y-106877199D01*
X137814959Y-106889613D01*
X137855543Y-106907176D01*
X137866173Y-106912383D01*
X137904940Y-106933695D01*
X137912617Y-106935666D01*
X137912622Y-106935668D01*
X137924558Y-106938732D01*
X137943266Y-106945137D01*
X137961855Y-106953181D01*
X137969683Y-106954421D01*
X137969690Y-106954423D01*
X138005524Y-106960099D01*
X138017144Y-106962505D01*
X138047553Y-106970312D01*
X138059970Y-106973500D01*
X138080224Y-106973500D01*
X138099934Y-106975051D01*
X138119943Y-106978220D01*
X138127835Y-106977474D01*
X138163961Y-106974059D01*
X138175819Y-106973500D01*
X139391487Y-106973500D01*
X139435716Y-106981518D01*
X139522289Y-107013973D01*
X139522291Y-107013973D01*
X139529684Y-107016745D01*
X139537532Y-107017598D01*
X139537534Y-107017598D01*
X139586775Y-107022947D01*
X139591866Y-107023500D01*
X139988134Y-107023500D01*
X139991529Y-107023131D01*
X139994929Y-107022947D01*
X139994978Y-107023856D01*
X140048127Y-107030547D01*
X140144684Y-107066745D01*
X140206866Y-107073500D01*
X141133134Y-107073500D01*
X141195316Y-107066745D01*
X141202712Y-107063973D01*
X141202718Y-107063971D01*
X141291510Y-107030684D01*
X141342548Y-107022850D01*
X141345320Y-107023000D01*
X141371885Y-107023000D01*
X141387124Y-107018525D01*
X141388330Y-107017133D01*
X141389774Y-107010496D01*
X141423799Y-106948184D01*
X141437320Y-106936461D01*
X141448261Y-106928261D01*
X141463175Y-106908361D01*
X141520034Y-106865847D01*
X141590853Y-106860823D01*
X141653146Y-106894883D01*
X141687136Y-106957214D01*
X141690000Y-106983928D01*
X141690000Y-107004884D01*
X141694475Y-107020123D01*
X141695865Y-107021328D01*
X141703548Y-107022999D01*
X141734669Y-107022999D01*
X141741490Y-107022629D01*
X141792352Y-107017105D01*
X141807604Y-107013479D01*
X141928054Y-106968324D01*
X141943649Y-106959786D01*
X142045724Y-106883285D01*
X142058285Y-106870724D01*
X142134786Y-106768649D01*
X142143324Y-106753054D01*
X142188478Y-106632606D01*
X142192105Y-106617351D01*
X142197631Y-106566486D01*
X142198000Y-106559672D01*
X142198000Y-106508115D01*
X142191605Y-106486336D01*
X142160293Y-106437614D01*
X142160293Y-106366617D01*
X142198676Y-106306891D01*
X142246036Y-106281119D01*
X142263593Y-106276018D01*
X142270412Y-106271985D01*
X142270417Y-106271983D01*
X142281028Y-106265707D01*
X142298776Y-106257012D01*
X142317617Y-106249552D01*
X142353387Y-106223564D01*
X142363307Y-106217048D01*
X142394535Y-106198580D01*
X142394538Y-106198578D01*
X142401362Y-106194542D01*
X142415683Y-106180221D01*
X142430717Y-106167380D01*
X142432249Y-106166267D01*
X142447107Y-106155472D01*
X142475298Y-106121395D01*
X142483288Y-106112616D01*
X142592247Y-106003657D01*
X142600537Y-105996113D01*
X142607018Y-105992000D01*
X142653659Y-105942332D01*
X142656413Y-105939491D01*
X142676135Y-105919769D01*
X142678612Y-105916576D01*
X142686317Y-105907555D01*
X142711159Y-105881100D01*
X142716586Y-105875321D01*
X142723765Y-105862262D01*
X142726346Y-105857568D01*
X142737202Y-105841041D01*
X142744757Y-105831302D01*
X142744758Y-105831300D01*
X142749614Y-105825040D01*
X142767174Y-105784460D01*
X142772391Y-105773812D01*
X142789875Y-105742009D01*
X142789876Y-105742007D01*
X142793695Y-105735060D01*
X142798733Y-105715437D01*
X142805137Y-105696734D01*
X142810033Y-105685420D01*
X142810033Y-105685419D01*
X142813181Y-105678145D01*
X142814420Y-105670322D01*
X142814423Y-105670312D01*
X142820099Y-105634476D01*
X142822505Y-105622856D01*
X142831528Y-105587711D01*
X142831528Y-105587710D01*
X142833500Y-105580030D01*
X142833500Y-105559776D01*
X142835051Y-105540065D01*
X142836980Y-105527886D01*
X142838220Y-105520057D01*
X142834059Y-105476038D01*
X142833500Y-105464181D01*
X142833500Y-105334500D01*
X142853502Y-105266379D01*
X142907158Y-105219886D01*
X142959500Y-105208500D01*
X143282095Y-105208499D01*
X143293730Y-105208499D01*
X143398629Y-105197616D01*
X143405160Y-105195437D01*
X143405165Y-105195436D01*
X143558078Y-105144420D01*
X143565026Y-105142102D01*
X143714189Y-105049797D01*
X143838117Y-104925653D01*
X143839919Y-104922730D01*
X143896529Y-104882592D01*
X143967452Y-104879358D01*
X144028864Y-104914982D01*
X144034416Y-104921377D01*
X144037703Y-104926689D01*
X144039898Y-104928880D01*
X144065883Y-104993083D01*
X144066500Y-105005535D01*
X144066500Y-105197476D01*
X144046498Y-105265597D01*
X144034142Y-105281779D01*
X143960960Y-105363056D01*
X143865473Y-105528444D01*
X143806458Y-105710072D01*
X143805768Y-105716633D01*
X143805768Y-105716635D01*
X143790956Y-105857568D01*
X143786496Y-105900000D01*
X143787186Y-105906565D01*
X143792830Y-105960260D01*
X143806458Y-106089928D01*
X143865473Y-106271556D01*
X143960960Y-106436944D01*
X143965378Y-106441851D01*
X143965379Y-106441852D01*
X144084325Y-106573955D01*
X144088747Y-106578866D01*
X144165359Y-106634528D01*
X144221499Y-106675316D01*
X144243248Y-106691118D01*
X144249276Y-106693802D01*
X144249278Y-106693803D01*
X144382359Y-106753054D01*
X144417712Y-106768794D01*
X144511113Y-106788647D01*
X144598056Y-106807128D01*
X144598061Y-106807128D01*
X144604513Y-106808500D01*
X144795487Y-106808500D01*
X144801939Y-106807128D01*
X144801944Y-106807128D01*
X144888888Y-106788647D01*
X144982288Y-106768794D01*
X145017641Y-106753054D01*
X145150722Y-106693803D01*
X145150724Y-106693802D01*
X145156752Y-106691118D01*
X145178502Y-106675316D01*
X145234641Y-106634528D01*
X145311253Y-106578866D01*
X145315675Y-106573955D01*
X145434621Y-106441852D01*
X145434622Y-106441851D01*
X145439040Y-106436944D01*
X145534527Y-106271556D01*
X145593542Y-106089928D01*
X145607171Y-105960260D01*
X145612814Y-105906565D01*
X145613504Y-105900000D01*
X145609044Y-105857568D01*
X145594232Y-105716635D01*
X145594232Y-105716633D01*
X145593542Y-105710072D01*
X145534527Y-105528444D01*
X145439040Y-105363056D01*
X145412542Y-105333627D01*
X145381825Y-105269620D01*
X145390589Y-105199166D01*
X145436052Y-105144635D01*
X145440156Y-105142313D01*
X145440026Y-105142102D01*
X145582961Y-105053651D01*
X145589189Y-105049797D01*
X145713117Y-104925653D01*
X145805161Y-104776329D01*
X145808586Y-104766002D01*
X145858219Y-104616366D01*
X145858219Y-104616364D01*
X145860385Y-104609835D01*
X145871000Y-104506231D01*
X145870999Y-103493770D01*
X145860116Y-103388871D01*
X145857937Y-103382340D01*
X145857936Y-103382335D01*
X145806920Y-103229422D01*
X145804602Y-103222474D01*
X145712297Y-103073311D01*
X145702237Y-103063268D01*
X145593333Y-102954554D01*
X145588153Y-102949383D01*
X145581718Y-102945416D01*
X145520134Y-102907456D01*
X145438829Y-102857339D01*
X145427252Y-102853499D01*
X145278866Y-102804281D01*
X145278864Y-102804281D01*
X145272335Y-102802115D01*
X145168731Y-102791500D01*
X144877266Y-102791500D01*
X144581270Y-102791501D01*
X144476371Y-102802384D01*
X144469840Y-102804563D01*
X144469835Y-102804564D01*
X144321689Y-102853990D01*
X144309974Y-102857898D01*
X144160811Y-102950203D01*
X144036883Y-103074347D01*
X144035081Y-103077270D01*
X143978471Y-103117408D01*
X143907548Y-103120642D01*
X143846136Y-103085018D01*
X143840584Y-103078622D01*
X143837297Y-103073311D01*
X143827237Y-103063268D01*
X143718333Y-102954554D01*
X143713153Y-102949383D01*
X143706718Y-102945416D01*
X143645134Y-102907456D01*
X143563829Y-102857339D01*
X143552252Y-102853499D01*
X143403866Y-102804281D01*
X143403864Y-102804281D01*
X143397335Y-102802115D01*
X143293731Y-102791500D01*
X143002266Y-102791500D01*
X142706270Y-102791501D01*
X142601371Y-102802384D01*
X142594840Y-102804563D01*
X142594835Y-102804564D01*
X142446689Y-102853990D01*
X142434974Y-102857898D01*
X142285811Y-102950203D01*
X142161883Y-103074347D01*
X142069839Y-103223671D01*
X142067534Y-103230619D01*
X142067534Y-103230620D01*
X142025846Y-103356306D01*
X142014615Y-103390165D01*
X142004000Y-103493769D01*
X142004001Y-103796647D01*
X142004001Y-104047904D01*
X141983999Y-104116025D01*
X141967096Y-104137000D01*
X141808637Y-104295458D01*
X141807741Y-104296354D01*
X141799463Y-104303887D01*
X141792982Y-104308000D01*
X141787553Y-104313781D01*
X141787551Y-104313783D01*
X141784760Y-104316755D01*
X141781995Y-104318380D01*
X141781448Y-104318832D01*
X141781375Y-104318744D01*
X141723547Y-104352719D01*
X141692912Y-104356500D01*
X141341866Y-104356500D01*
X141338469Y-104356869D01*
X141287534Y-104362402D01*
X141287532Y-104362402D01*
X141279684Y-104363255D01*
X141272291Y-104366027D01*
X141272289Y-104366027D01*
X141265741Y-104368482D01*
X141221512Y-104376500D01*
X140108488Y-104376500D01*
X140064259Y-104368482D01*
X140057711Y-104366027D01*
X140057709Y-104366027D01*
X140050316Y-104363255D01*
X140042468Y-104362402D01*
X140042466Y-104362402D01*
X139991531Y-104356869D01*
X139988134Y-104356500D01*
X139591866Y-104356500D01*
X139588469Y-104356869D01*
X139537534Y-104362402D01*
X139537532Y-104362402D01*
X139529684Y-104363255D01*
X139522291Y-104366027D01*
X139522289Y-104366027D01*
X139435716Y-104398482D01*
X139391487Y-104406500D01*
X139118768Y-104406500D01*
X139107579Y-104405972D01*
X139100091Y-104404298D01*
X139092421Y-104404539D01*
X139091838Y-104404456D01*
X139088211Y-104404171D01*
X139087626Y-104404162D01*
X139080094Y-104402725D01*
X139042463Y-104405093D01*
X138973223Y-104389409D01*
X138945457Y-104368437D01*
X138840381Y-104263361D01*
X138693699Y-104174528D01*
X138686452Y-104172257D01*
X138686450Y-104172256D01*
X138654985Y-104162396D01*
X138608743Y-104147904D01*
X138549722Y-104108448D01*
X138521402Y-104043344D01*
X138532775Y-103973265D01*
X138557328Y-103938576D01*
X138612247Y-103883657D01*
X138620537Y-103876113D01*
X138627018Y-103872000D01*
X138673659Y-103822332D01*
X138676413Y-103819491D01*
X138696134Y-103799770D01*
X138698612Y-103796575D01*
X138706318Y-103787553D01*
X138712101Y-103781395D01*
X138736586Y-103755321D01*
X138742732Y-103744142D01*
X138746346Y-103737568D01*
X138757199Y-103721045D01*
X138758356Y-103719553D01*
X138769613Y-103705041D01*
X138787176Y-103664457D01*
X138792383Y-103653827D01*
X138813695Y-103615060D01*
X138815666Y-103607383D01*
X138815668Y-103607378D01*
X138818732Y-103595442D01*
X138825138Y-103576730D01*
X138830033Y-103565419D01*
X138833181Y-103558145D01*
X138834421Y-103550317D01*
X138834423Y-103550310D01*
X138840099Y-103514476D01*
X138842505Y-103502856D01*
X138851528Y-103467711D01*
X138851528Y-103467710D01*
X138853500Y-103460030D01*
X138853500Y-103439776D01*
X138855051Y-103420065D01*
X138856980Y-103407886D01*
X138858220Y-103400057D01*
X138854059Y-103356038D01*
X138853500Y-103344181D01*
X138853500Y-102960378D01*
X138873502Y-102892257D01*
X138927158Y-102845764D01*
X138997432Y-102835660D01*
X139004205Y-102837049D01*
X139008439Y-102838803D01*
X139016627Y-102839881D01*
X139115981Y-102852961D01*
X139120075Y-102853500D01*
X139219987Y-102853500D01*
X139319924Y-102853499D01*
X139324009Y-102852961D01*
X139324013Y-102852961D01*
X139390344Y-102844229D01*
X139431561Y-102838803D01*
X139438026Y-102836125D01*
X139501974Y-102836125D01*
X139508439Y-102838803D01*
X139602008Y-102851121D01*
X139615981Y-102852961D01*
X139620075Y-102853500D01*
X139719987Y-102853500D01*
X139819924Y-102853499D01*
X139824009Y-102852961D01*
X139824013Y-102852961D01*
X139890344Y-102844229D01*
X139931561Y-102838803D01*
X139938026Y-102836125D01*
X140001974Y-102836125D01*
X140008439Y-102838803D01*
X140102008Y-102851121D01*
X140115981Y-102852961D01*
X140120075Y-102853500D01*
X140219987Y-102853500D01*
X140319924Y-102853499D01*
X140324009Y-102852961D01*
X140324013Y-102852961D01*
X140390344Y-102844229D01*
X140431561Y-102838803D01*
X140438026Y-102836125D01*
X140501974Y-102836125D01*
X140508439Y-102838803D01*
X140602008Y-102851121D01*
X140615981Y-102852961D01*
X140620075Y-102853500D01*
X140719987Y-102853500D01*
X140819924Y-102853499D01*
X140824009Y-102852961D01*
X140824013Y-102852961D01*
X140923374Y-102839881D01*
X140923376Y-102839880D01*
X140931561Y-102838803D01*
X141070464Y-102781267D01*
X141181429Y-102696121D01*
X141183191Y-102694769D01*
X141183192Y-102694768D01*
X141189742Y-102689742D01*
X141281267Y-102570463D01*
X141338803Y-102431561D01*
X141344128Y-102391118D01*
X141352962Y-102324012D01*
X141352962Y-102324011D01*
X141353500Y-102319925D01*
X141353499Y-101979499D01*
X141373501Y-101911380D01*
X141427156Y-101864887D01*
X141479499Y-101853500D01*
X141885570Y-101853500D01*
X141953691Y-101873502D01*
X142000184Y-101927158D01*
X142005403Y-101940564D01*
X142015473Y-101971556D01*
X142018776Y-101977278D01*
X142018777Y-101977279D01*
X142022453Y-101983646D01*
X142110960Y-102136944D01*
X142115378Y-102141851D01*
X142115379Y-102141852D01*
X142196956Y-102232452D01*
X142238747Y-102278866D01*
X142393248Y-102391118D01*
X142399276Y-102393802D01*
X142399278Y-102393803D01*
X142561681Y-102466109D01*
X142567712Y-102468794D01*
X142661113Y-102488647D01*
X142748056Y-102507128D01*
X142748061Y-102507128D01*
X142754513Y-102508500D01*
X142945487Y-102508500D01*
X142951939Y-102507128D01*
X142951944Y-102507128D01*
X143038888Y-102488647D01*
X143132288Y-102468794D01*
X143138319Y-102466109D01*
X143300722Y-102393803D01*
X143300724Y-102393802D01*
X143306752Y-102391118D01*
X143343258Y-102364595D01*
X143350939Y-102359014D01*
X143417806Y-102335156D01*
X143486958Y-102351236D01*
X143499061Y-102359014D01*
X143506743Y-102364595D01*
X143543248Y-102391118D01*
X143549276Y-102393802D01*
X143549278Y-102393803D01*
X143711681Y-102466109D01*
X143717712Y-102468794D01*
X143811113Y-102488647D01*
X143898056Y-102507128D01*
X143898061Y-102507128D01*
X143904513Y-102508500D01*
X144095487Y-102508500D01*
X144101939Y-102507128D01*
X144101944Y-102507128D01*
X144188888Y-102488647D01*
X144282288Y-102468794D01*
X144288319Y-102466109D01*
X144318021Y-102452885D01*
X147242000Y-102452885D01*
X147246475Y-102468124D01*
X147247865Y-102469329D01*
X147255548Y-102471000D01*
X147777885Y-102471000D01*
X147793124Y-102466525D01*
X147794329Y-102465135D01*
X147796000Y-102457452D01*
X147796000Y-101575622D01*
X147792027Y-101562091D01*
X147784129Y-101560956D01*
X147644210Y-101601607D01*
X147629779Y-101607852D01*
X147500322Y-101684411D01*
X147487896Y-101694051D01*
X147381551Y-101800396D01*
X147371911Y-101812822D01*
X147295352Y-101942279D01*
X147289107Y-101956710D01*
X147246731Y-102102565D01*
X147244430Y-102115167D01*
X147242193Y-102143584D01*
X147242000Y-102148514D01*
X147242000Y-102452885D01*
X144318021Y-102452885D01*
X144450722Y-102393803D01*
X144450724Y-102393802D01*
X144456752Y-102391118D01*
X144611253Y-102278866D01*
X144653044Y-102232452D01*
X144734621Y-102141852D01*
X144734622Y-102141851D01*
X144739040Y-102136944D01*
X144827547Y-101983646D01*
X144831223Y-101977279D01*
X144831224Y-101977278D01*
X144834527Y-101971556D01*
X144893542Y-101789928D01*
X144894716Y-101778763D01*
X144912814Y-101606565D01*
X144913504Y-101600000D01*
X144905382Y-101522720D01*
X144894232Y-101416635D01*
X144894232Y-101416633D01*
X144893542Y-101410072D01*
X144834527Y-101228444D01*
X144827179Y-101215716D01*
X144742341Y-101068774D01*
X144739040Y-101063056D01*
X144676504Y-100993602D01*
X144615675Y-100926045D01*
X144615674Y-100926044D01*
X144611253Y-100921134D01*
X144484405Y-100828973D01*
X144462094Y-100812763D01*
X144462093Y-100812762D01*
X144456752Y-100808882D01*
X144450724Y-100806198D01*
X144450722Y-100806197D01*
X144288319Y-100733891D01*
X144288318Y-100733891D01*
X144282288Y-100731206D01*
X144188888Y-100711353D01*
X144101944Y-100692872D01*
X144101939Y-100692872D01*
X144095487Y-100691500D01*
X144039595Y-100691500D01*
X143971474Y-100671498D01*
X143950500Y-100654595D01*
X143894500Y-100598595D01*
X143860474Y-100536283D01*
X143865539Y-100465468D01*
X143908086Y-100408632D01*
X143974606Y-100383821D01*
X143983595Y-100383500D01*
X144298732Y-100383500D01*
X144301978Y-100383163D01*
X144301982Y-100383163D01*
X144336083Y-100379625D01*
X144401019Y-100372887D01*
X144435737Y-100361304D01*
X144556324Y-100321073D01*
X144556326Y-100321072D01*
X144563268Y-100318756D01*
X144708713Y-100228752D01*
X144713886Y-100223570D01*
X144719623Y-100219023D01*
X144721055Y-100220830D01*
X144773575Y-100192098D01*
X144844395Y-100197108D01*
X144880853Y-100220499D01*
X144881683Y-100219448D01*
X144898840Y-100232998D01*
X145031880Y-100315004D01*
X145045061Y-100321151D01*
X145193814Y-100370491D01*
X145207190Y-100373358D01*
X145298097Y-100382672D01*
X145303126Y-100382929D01*
X145318124Y-100378525D01*
X145319329Y-100377135D01*
X145321000Y-100369452D01*
X145321000Y-100364885D01*
X145829000Y-100364885D01*
X145833475Y-100380124D01*
X145834865Y-100381329D01*
X145842548Y-100383000D01*
X145845438Y-100383000D01*
X145851953Y-100382663D01*
X145944057Y-100373106D01*
X145957456Y-100370212D01*
X146106107Y-100320619D01*
X146119286Y-100314445D01*
X146252173Y-100232212D01*
X146263574Y-100223176D01*
X146373986Y-100112571D01*
X146382998Y-100101160D01*
X146465004Y-99968120D01*
X146471151Y-99954939D01*
X146520491Y-99806186D01*
X146523358Y-99792810D01*
X146532672Y-99701903D01*
X146533000Y-99695487D01*
X146533000Y-99672115D01*
X146528525Y-99656876D01*
X146527135Y-99655671D01*
X146519452Y-99654000D01*
X145847115Y-99654000D01*
X145831876Y-99658475D01*
X145830671Y-99659865D01*
X145829000Y-99667548D01*
X145829000Y-100364885D01*
X145321000Y-100364885D01*
X145321000Y-99127885D01*
X145829000Y-99127885D01*
X145833475Y-99143124D01*
X145834865Y-99144329D01*
X145842548Y-99146000D01*
X146514885Y-99146000D01*
X146530124Y-99141525D01*
X146531329Y-99140135D01*
X146533000Y-99132452D01*
X146533000Y-99104562D01*
X146532663Y-99098047D01*
X146523106Y-99005943D01*
X146520212Y-98992544D01*
X146470619Y-98843893D01*
X146464445Y-98830714D01*
X146382212Y-98697827D01*
X146373176Y-98686426D01*
X146262571Y-98576014D01*
X146251160Y-98567002D01*
X146118120Y-98484996D01*
X146104939Y-98478849D01*
X145956186Y-98429509D01*
X145942810Y-98426642D01*
X145851903Y-98417328D01*
X145846874Y-98417071D01*
X145831876Y-98421475D01*
X145830671Y-98422865D01*
X145829000Y-98430548D01*
X145829000Y-99127885D01*
X145321000Y-99127885D01*
X145321000Y-98435115D01*
X145316525Y-98419876D01*
X145315135Y-98418671D01*
X145307452Y-98417000D01*
X145304562Y-98417000D01*
X145298047Y-98417337D01*
X145205943Y-98426894D01*
X145192544Y-98429788D01*
X145043893Y-98479381D01*
X145030714Y-98485555D01*
X144897827Y-98567788D01*
X144880689Y-98581371D01*
X144879159Y-98579441D01*
X144827120Y-98607903D01*
X144756301Y-98602887D01*
X144719383Y-98579201D01*
X144718628Y-98580157D01*
X144712882Y-98575619D01*
X144707702Y-98570448D01*
X144607105Y-98508439D01*
X144568331Y-98484538D01*
X144568329Y-98484537D01*
X144562101Y-98480698D01*
X144399757Y-98426851D01*
X144392920Y-98426151D01*
X144392918Y-98426150D01*
X144351599Y-98421917D01*
X144298732Y-98416500D01*
X143751268Y-98416500D01*
X143748022Y-98416837D01*
X143748018Y-98416837D01*
X143718730Y-98419876D01*
X143648981Y-98427113D01*
X143640963Y-98429788D01*
X143493676Y-98478927D01*
X143493674Y-98478928D01*
X143486732Y-98481244D01*
X143341287Y-98571248D01*
X143336114Y-98576430D01*
X143331182Y-98581371D01*
X143220448Y-98692298D01*
X143216606Y-98698530D01*
X143216605Y-98698532D01*
X143211621Y-98706617D01*
X143158848Y-98754110D01*
X143104362Y-98766500D01*
X142978763Y-98766500D01*
X142967579Y-98765973D01*
X142960091Y-98764299D01*
X142896265Y-98766305D01*
X142892033Y-98766438D01*
X142888075Y-98766500D01*
X142860144Y-98766500D01*
X142856229Y-98766995D01*
X142856225Y-98766995D01*
X142856167Y-98767003D01*
X142856138Y-98767006D01*
X142844296Y-98767939D01*
X142800110Y-98769327D01*
X142782744Y-98774372D01*
X142780658Y-98774978D01*
X142761306Y-98778986D01*
X142754235Y-98779880D01*
X142741203Y-98781526D01*
X142733834Y-98784443D01*
X142733832Y-98784444D01*
X142700097Y-98797800D01*
X142688869Y-98801645D01*
X142646407Y-98813982D01*
X142639585Y-98818016D01*
X142639579Y-98818019D01*
X142628968Y-98824294D01*
X142611218Y-98832990D01*
X142599756Y-98837528D01*
X142599751Y-98837531D01*
X142592383Y-98840448D01*
X142585968Y-98845109D01*
X142556625Y-98866427D01*
X142546725Y-98872932D01*
X142543659Y-98874746D01*
X142474846Y-98892218D01*
X142407511Y-98869714D01*
X142363031Y-98814378D01*
X142353500Y-98766305D01*
X142353499Y-98624199D01*
X142353499Y-98620076D01*
X142347754Y-98576430D01*
X142339881Y-98516629D01*
X142338803Y-98508439D01*
X142336125Y-98501974D01*
X142336125Y-98438026D01*
X142338803Y-98431561D01*
X142353500Y-98319925D01*
X142353499Y-98120076D01*
X142347608Y-98075321D01*
X142341842Y-98031528D01*
X142338803Y-98008439D01*
X142336125Y-98001974D01*
X142336125Y-97938026D01*
X142338803Y-97931561D01*
X142351990Y-97831395D01*
X142352962Y-97824012D01*
X142352962Y-97824011D01*
X142353500Y-97819925D01*
X142353499Y-97620076D01*
X142352798Y-97614747D01*
X142339881Y-97516626D01*
X142339880Y-97516624D01*
X142338803Y-97508439D01*
X142281267Y-97369536D01*
X142189742Y-97250258D01*
X142070463Y-97158733D01*
X141931561Y-97101197D01*
X141923377Y-97100120D01*
X141923375Y-97100119D01*
X141824012Y-97087038D01*
X141824011Y-97087038D01*
X141819925Y-97086500D01*
X141805150Y-97086500D01*
X141479499Y-97086501D01*
X141411380Y-97066499D01*
X141364887Y-97012844D01*
X141353500Y-96960501D01*
X141353499Y-96624199D01*
X141353499Y-96620076D01*
X141351721Y-96606565D01*
X141339881Y-96516626D01*
X141339880Y-96516624D01*
X141338803Y-96508439D01*
X141281267Y-96369536D01*
X141232131Y-96305501D01*
X141194769Y-96256809D01*
X141194768Y-96256808D01*
X141189742Y-96250258D01*
X141070463Y-96158733D01*
X140931561Y-96101197D01*
X140923377Y-96100120D01*
X140923375Y-96100119D01*
X140824012Y-96087038D01*
X140824011Y-96087038D01*
X140819925Y-96086500D01*
X140720013Y-96086500D01*
X140620076Y-96086501D01*
X140615991Y-96087039D01*
X140615987Y-96087039D01*
X140555605Y-96094988D01*
X140508439Y-96101197D01*
X140508337Y-96101239D01*
X140441137Y-96099641D01*
X140382340Y-96059848D01*
X140354391Y-95994584D01*
X140353500Y-95979623D01*
X140353500Y-95684500D01*
X140373502Y-95616379D01*
X140427158Y-95569886D01*
X140479500Y-95558500D01*
X140595487Y-95558500D01*
X140601939Y-95557128D01*
X140601944Y-95557128D01*
X140688887Y-95538647D01*
X140782288Y-95518794D01*
X140788319Y-95516109D01*
X140950722Y-95443803D01*
X140950724Y-95443802D01*
X140956752Y-95441118D01*
X140974947Y-95427899D01*
X141029365Y-95388361D01*
X141111253Y-95328866D01*
X141130717Y-95307249D01*
X141234621Y-95191852D01*
X141234622Y-95191851D01*
X141239040Y-95186944D01*
X141312863Y-95059079D01*
X141331223Y-95027279D01*
X141331224Y-95027278D01*
X141334527Y-95021556D01*
X141393542Y-94839928D01*
X141394415Y-94831628D01*
X141412814Y-94656565D01*
X141413504Y-94650000D01*
X141405871Y-94577375D01*
X141394232Y-94466635D01*
X141394232Y-94466633D01*
X141393542Y-94460072D01*
X141334527Y-94278444D01*
X141239040Y-94113056D01*
X141165863Y-94031785D01*
X141135147Y-93967779D01*
X141133500Y-93947476D01*
X141133500Y-93314595D01*
X141153502Y-93246474D01*
X141170405Y-93225499D01*
X141356472Y-93039433D01*
X141418784Y-93005408D01*
X141489600Y-93010473D01*
G37*
%TD.AperFunction*%
%TA.AperFunction,Conductor*%
G36*
X151800191Y-106809562D02*
G01*
X151840904Y-106836808D01*
X151996343Y-106992247D01*
X152003887Y-107000537D01*
X152008000Y-107007018D01*
X152013777Y-107012443D01*
X152057667Y-107053658D01*
X152060509Y-107056413D01*
X152080231Y-107076135D01*
X152083373Y-107078572D01*
X152083433Y-107078619D01*
X152092445Y-107086317D01*
X152094983Y-107088700D01*
X152124679Y-107116586D01*
X152131622Y-107120403D01*
X152142431Y-107126345D01*
X152158953Y-107137198D01*
X152174959Y-107149614D01*
X152182237Y-107152764D01*
X152182238Y-107152764D01*
X152215537Y-107167174D01*
X152226187Y-107172391D01*
X152264940Y-107193695D01*
X152272615Y-107195666D01*
X152272616Y-107195666D01*
X152284562Y-107198733D01*
X152303266Y-107205137D01*
X152308845Y-107207551D01*
X152321855Y-107213181D01*
X152329678Y-107214420D01*
X152329688Y-107214423D01*
X152365524Y-107220099D01*
X152377144Y-107222505D01*
X152412289Y-107231528D01*
X152419970Y-107233500D01*
X152440224Y-107233500D01*
X152459934Y-107235051D01*
X152479943Y-107238220D01*
X152487835Y-107237474D01*
X152523961Y-107234059D01*
X152535819Y-107233500D01*
X153840500Y-107233500D01*
X153908621Y-107253502D01*
X153955114Y-107307158D01*
X153966500Y-107359500D01*
X153966500Y-108506953D01*
X153946498Y-108575074D01*
X153892842Y-108621567D01*
X153827656Y-108632297D01*
X153803557Y-108629828D01*
X153797145Y-108629500D01*
X153772115Y-108629500D01*
X153756876Y-108633975D01*
X153755671Y-108635365D01*
X153754000Y-108643048D01*
X153754000Y-109990500D01*
X153733998Y-110058621D01*
X153680342Y-110105114D01*
X153628000Y-110116500D01*
X153372000Y-110116500D01*
X153303879Y-110096498D01*
X153257386Y-110042842D01*
X153246000Y-109990500D01*
X153246000Y-108647616D01*
X153241525Y-108632377D01*
X153240135Y-108631172D01*
X153232452Y-108629501D01*
X153202905Y-108629501D01*
X153196386Y-108629838D01*
X153100794Y-108639757D01*
X153087400Y-108642649D01*
X152933216Y-108694088D01*
X152920038Y-108700261D01*
X152782193Y-108785563D01*
X152770792Y-108794599D01*
X152656262Y-108909328D01*
X152649206Y-108918262D01*
X152591288Y-108959323D01*
X152520365Y-108962553D01*
X152458954Y-108926926D01*
X152452154Y-108919093D01*
X152448478Y-108913152D01*
X152323303Y-108788195D01*
X152317072Y-108784354D01*
X152178968Y-108699225D01*
X152178966Y-108699224D01*
X152172738Y-108695385D01*
X152061861Y-108658609D01*
X152011389Y-108641868D01*
X152011387Y-108641868D01*
X152004861Y-108639703D01*
X151998025Y-108639003D01*
X151998022Y-108639002D01*
X151954969Y-108634591D01*
X151900400Y-108629000D01*
X151299600Y-108629000D01*
X151296354Y-108629337D01*
X151296350Y-108629337D01*
X151200692Y-108639262D01*
X151200688Y-108639263D01*
X151193834Y-108639974D01*
X151187298Y-108642155D01*
X151187296Y-108642155D01*
X151074236Y-108679875D01*
X151026054Y-108695950D01*
X150875652Y-108789022D01*
X150750695Y-108914197D01*
X150746855Y-108920427D01*
X150746854Y-108920428D01*
X150666760Y-109050364D01*
X150613988Y-109097857D01*
X150543916Y-109109281D01*
X150478792Y-109081007D01*
X150439293Y-109022013D01*
X150433500Y-108984248D01*
X150433500Y-108864366D01*
X150426745Y-108802184D01*
X150375615Y-108665795D01*
X150288261Y-108549239D01*
X150171705Y-108461885D01*
X150035316Y-108410755D01*
X149973134Y-108404000D01*
X149896094Y-108404000D01*
X149827973Y-108383998D01*
X149781480Y-108330342D01*
X149771376Y-108260068D01*
X149800870Y-108195488D01*
X149806999Y-108188905D01*
X150225499Y-107770405D01*
X150287811Y-107736379D01*
X150314594Y-107733500D01*
X150621233Y-107733500D01*
X150632416Y-107734027D01*
X150639909Y-107735702D01*
X150647835Y-107735453D01*
X150647836Y-107735453D01*
X150707986Y-107733562D01*
X150711945Y-107733500D01*
X150739856Y-107733500D01*
X150743791Y-107733003D01*
X150743856Y-107732995D01*
X150755693Y-107732062D01*
X150787951Y-107731048D01*
X150791970Y-107730922D01*
X150799889Y-107730673D01*
X150819343Y-107725021D01*
X150838700Y-107721013D01*
X150850930Y-107719468D01*
X150850931Y-107719468D01*
X150858797Y-107718474D01*
X150866168Y-107715555D01*
X150866170Y-107715555D01*
X150899912Y-107702196D01*
X150911142Y-107698351D01*
X150945983Y-107688229D01*
X150945984Y-107688229D01*
X150953593Y-107686018D01*
X150960412Y-107681985D01*
X150960417Y-107681983D01*
X150971028Y-107675707D01*
X150988776Y-107667012D01*
X151007617Y-107659552D01*
X151043387Y-107633564D01*
X151053307Y-107627048D01*
X151057313Y-107624679D01*
X151091362Y-107604542D01*
X151096969Y-107598936D01*
X151105685Y-107590220D01*
X151120719Y-107577379D01*
X151130695Y-107570131D01*
X151130696Y-107570130D01*
X151137107Y-107565472D01*
X151165288Y-107531407D01*
X151173278Y-107522626D01*
X151392258Y-107303647D01*
X151400537Y-107296113D01*
X151407018Y-107292000D01*
X151453645Y-107242347D01*
X151456399Y-107239506D01*
X151476135Y-107219770D01*
X151478615Y-107216573D01*
X151486320Y-107207551D01*
X151511159Y-107181100D01*
X151516586Y-107175321D01*
X151520405Y-107168375D01*
X151520407Y-107168372D01*
X151526348Y-107157566D01*
X151537199Y-107141047D01*
X151537559Y-107140583D01*
X151549614Y-107125041D01*
X151552759Y-107117772D01*
X151552762Y-107117768D01*
X151567174Y-107084463D01*
X151572391Y-107073813D01*
X151593695Y-107035060D01*
X151596792Y-107023000D01*
X151597940Y-107018525D01*
X151598733Y-107015437D01*
X151605137Y-106996734D01*
X151610033Y-106985420D01*
X151610033Y-106985419D01*
X151613181Y-106978145D01*
X151614420Y-106970322D01*
X151614423Y-106970312D01*
X151620099Y-106934476D01*
X151622505Y-106922857D01*
X151629767Y-106894571D01*
X151666080Y-106833564D01*
X151729612Y-106801874D01*
X151800191Y-106809562D01*
G37*
%TD.AperFunction*%
%TA.AperFunction,Conductor*%
G36*
X149083621Y-104766002D02*
G01*
X149130114Y-104819658D01*
X149141500Y-104872000D01*
X149141500Y-105579002D01*
X149144438Y-105616331D01*
X149190855Y-105776101D01*
X149194892Y-105782927D01*
X149236453Y-105853203D01*
X149254000Y-105917342D01*
X149254000Y-106149378D01*
X149257973Y-106162909D01*
X149265871Y-106164044D01*
X149405790Y-106123393D01*
X149424326Y-106115372D01*
X149494788Y-106106676D01*
X149524404Y-106115372D01*
X149529577Y-106117611D01*
X149536399Y-106121645D01*
X149544010Y-106123856D01*
X149544012Y-106123857D01*
X149596231Y-106139028D01*
X149696169Y-106168062D01*
X149702574Y-106168566D01*
X149702579Y-106168567D01*
X149731042Y-106170807D01*
X149731050Y-106170807D01*
X149733498Y-106171000D01*
X149977922Y-106171000D01*
X150046043Y-106191002D01*
X150092536Y-106244658D01*
X150103232Y-106283831D01*
X150105656Y-106306891D01*
X150106458Y-106314526D01*
X150106977Y-106316123D01*
X150101716Y-106385090D01*
X150058901Y-106441724D01*
X149992264Y-106466220D01*
X149983870Y-106466500D01*
X149960144Y-106466500D01*
X149956229Y-106466995D01*
X149956225Y-106466995D01*
X149956167Y-106467003D01*
X149956138Y-106467006D01*
X149944296Y-106467939D01*
X149900110Y-106469327D01*
X149882744Y-106474372D01*
X149880658Y-106474978D01*
X149861306Y-106478986D01*
X149849068Y-106480532D01*
X149849066Y-106480533D01*
X149841203Y-106481526D01*
X149833833Y-106484444D01*
X149831116Y-106485520D01*
X149800086Y-106497806D01*
X149788885Y-106501641D01*
X149746406Y-106513982D01*
X149739587Y-106518015D01*
X149739582Y-106518017D01*
X149728971Y-106524293D01*
X149711221Y-106532990D01*
X149692383Y-106540448D01*
X149685967Y-106545109D01*
X149685966Y-106545110D01*
X149656625Y-106566428D01*
X149646701Y-106572947D01*
X149615460Y-106591422D01*
X149615455Y-106591426D01*
X149608637Y-106595458D01*
X149594313Y-106609782D01*
X149579281Y-106622621D01*
X149562893Y-106634528D01*
X149534712Y-106668593D01*
X149526722Y-106677373D01*
X149304721Y-106899374D01*
X149242409Y-106933400D01*
X149182459Y-106930401D01*
X149182288Y-106931206D01*
X149175841Y-106929836D01*
X149175839Y-106929835D01*
X149001944Y-106892872D01*
X149001939Y-106892872D01*
X148995487Y-106891500D01*
X148813432Y-106891500D01*
X148745311Y-106871498D01*
X148698818Y-106817842D01*
X148689187Y-106769966D01*
X148688220Y-106770057D01*
X148684059Y-106726039D01*
X148683500Y-106714181D01*
X148683500Y-106270401D01*
X148703502Y-106202280D01*
X148741078Y-106164597D01*
X148741970Y-106164020D01*
X148746000Y-106155129D01*
X148746000Y-105917342D01*
X148763547Y-105853203D01*
X148805108Y-105782927D01*
X148809145Y-105776101D01*
X148855562Y-105616331D01*
X148858500Y-105579002D01*
X148858500Y-104872000D01*
X148878502Y-104803879D01*
X148932158Y-104757386D01*
X148984500Y-104746000D01*
X149015500Y-104746000D01*
X149083621Y-104766002D01*
G37*
%TD.AperFunction*%
%TA.AperFunction,Conductor*%
G36*
X151915881Y-104703358D02*
G01*
X151972514Y-104746174D01*
X151997008Y-104812812D01*
X151996809Y-104832184D01*
X151990696Y-104902061D01*
X151964833Y-104968179D01*
X151907330Y-105009819D01*
X151836442Y-105013760D01*
X151776079Y-104980175D01*
X151718253Y-104922348D01*
X151684228Y-104860035D01*
X151689294Y-104789219D01*
X151731841Y-104732384D01*
X151792763Y-104708500D01*
X151795487Y-104708500D01*
X151801944Y-104707128D01*
X151801949Y-104707127D01*
X151845090Y-104697957D01*
X151915881Y-104703358D01*
G37*
%TD.AperFunction*%
%TA.AperFunction,Conductor*%
G36*
X150705343Y-103667583D02*
G01*
X150762179Y-103710130D01*
X150786990Y-103776650D01*
X150786821Y-103786830D01*
X150787186Y-103786830D01*
X150787186Y-103793435D01*
X150786496Y-103800000D01*
X150787186Y-103806565D01*
X150801302Y-103940872D01*
X150788530Y-104010710D01*
X150740028Y-104062557D01*
X150671195Y-104079951D01*
X150603885Y-104057370D01*
X150586897Y-104043137D01*
X150506807Y-103963047D01*
X150502998Y-103960794D01*
X150462345Y-103904504D01*
X150458494Y-103833612D01*
X150493582Y-103771891D01*
X150501276Y-103765224D01*
X150506807Y-103761953D01*
X150572216Y-103696544D01*
X150634528Y-103662518D01*
X150705343Y-103667583D01*
G37*
%TD.AperFunction*%
%TA.AperFunction,Conductor*%
G36*
X153186538Y-98344087D02*
G01*
X153231601Y-98373048D01*
X153629595Y-98771042D01*
X153663621Y-98833354D01*
X153666500Y-98860137D01*
X153666500Y-99189863D01*
X153646498Y-99257984D01*
X153629595Y-99278958D01*
X153231601Y-99676952D01*
X153169289Y-99710978D01*
X153098474Y-99705913D01*
X153053411Y-99676952D01*
X153027811Y-99651352D01*
X153013870Y-99643740D01*
X153012034Y-99643871D01*
X153005418Y-99648123D01*
X152976589Y-99676952D01*
X152914277Y-99710978D01*
X152843462Y-99705913D01*
X152798399Y-99676952D01*
X152762812Y-99641365D01*
X152752723Y-99635856D01*
X152750000Y-99643157D01*
X152750000Y-99764884D01*
X152754475Y-99780123D01*
X152755865Y-99781328D01*
X152763548Y-99782999D01*
X153470957Y-99782999D01*
X153487622Y-99784106D01*
X153507044Y-99786698D01*
X153521033Y-99786990D01*
X153529081Y-99786258D01*
X153598734Y-99800005D01*
X153649898Y-99849226D01*
X153666500Y-99911740D01*
X153666500Y-100321233D01*
X153665973Y-100332416D01*
X153664298Y-100339909D01*
X153664547Y-100347835D01*
X153664547Y-100347836D01*
X153666438Y-100407986D01*
X153666500Y-100411945D01*
X153666500Y-100439856D01*
X153666997Y-100443790D01*
X153666997Y-100443791D01*
X153667005Y-100443856D01*
X153667938Y-100455693D01*
X153669327Y-100499889D01*
X153674978Y-100519339D01*
X153678987Y-100538700D01*
X153681526Y-100558797D01*
X153684445Y-100566168D01*
X153684445Y-100566170D01*
X153697804Y-100599912D01*
X153701649Y-100611142D01*
X153713982Y-100653593D01*
X153718015Y-100660412D01*
X153718017Y-100660417D01*
X153724293Y-100671028D01*
X153732988Y-100688776D01*
X153740448Y-100707617D01*
X153745110Y-100714033D01*
X153745110Y-100714034D01*
X153766436Y-100743387D01*
X153772952Y-100753307D01*
X153795458Y-100791362D01*
X153801064Y-100796969D01*
X153809780Y-100805685D01*
X153822619Y-100820717D01*
X153834528Y-100837107D01*
X153862347Y-100860121D01*
X153868598Y-100865292D01*
X153877378Y-100873282D01*
X153929595Y-100925499D01*
X153963621Y-100987811D01*
X153966500Y-101014594D01*
X153966500Y-101119244D01*
X153946498Y-101187365D01*
X153892842Y-101233858D01*
X153822568Y-101243962D01*
X153787250Y-101233439D01*
X153754225Y-101218039D01*
X153754224Y-101218039D01*
X153749243Y-101215716D01*
X153743935Y-101214294D01*
X153743933Y-101214293D01*
X153533402Y-101157881D01*
X153533400Y-101157881D01*
X153528087Y-101156457D01*
X153300000Y-101136502D01*
X153071913Y-101156457D01*
X153066600Y-101157881D01*
X153066598Y-101157881D01*
X152856067Y-101214293D01*
X152856065Y-101214294D01*
X152850757Y-101215716D01*
X152845776Y-101218039D01*
X152845775Y-101218039D01*
X152648238Y-101310151D01*
X152648233Y-101310154D01*
X152643251Y-101312477D01*
X152574650Y-101360512D01*
X152460211Y-101440643D01*
X152460208Y-101440645D01*
X152455700Y-101443802D01*
X152293802Y-101605700D01*
X152290645Y-101610208D01*
X152290643Y-101610211D01*
X152262617Y-101650237D01*
X152162477Y-101793251D01*
X152160154Y-101798233D01*
X152160151Y-101798238D01*
X152073695Y-101983646D01*
X152026778Y-102036931D01*
X151958501Y-102056392D01*
X151890541Y-102035850D01*
X151844475Y-101981828D01*
X151833500Y-101930396D01*
X151833500Y-101778763D01*
X151834027Y-101767579D01*
X151835701Y-101760091D01*
X151833562Y-101692032D01*
X151833500Y-101688075D01*
X151833500Y-101660144D01*
X151832994Y-101656138D01*
X151832061Y-101644292D01*
X151831559Y-101628295D01*
X151830673Y-101600110D01*
X151825022Y-101580658D01*
X151821014Y-101561306D01*
X151819468Y-101549068D01*
X151819467Y-101549066D01*
X151818474Y-101541203D01*
X151802194Y-101500086D01*
X151798359Y-101488885D01*
X151786018Y-101446406D01*
X151781985Y-101439587D01*
X151781983Y-101439582D01*
X151775707Y-101428971D01*
X151767010Y-101411221D01*
X151759552Y-101392383D01*
X151744529Y-101371705D01*
X151733572Y-101356625D01*
X151727053Y-101346701D01*
X151708578Y-101315460D01*
X151708574Y-101315455D01*
X151704542Y-101308637D01*
X151690218Y-101294313D01*
X151677376Y-101279278D01*
X151665472Y-101262893D01*
X151631406Y-101234711D01*
X151622627Y-101226722D01*
X151453652Y-101057747D01*
X151446112Y-101049461D01*
X151442000Y-101042982D01*
X151392348Y-100996356D01*
X151389507Y-100993602D01*
X151369770Y-100973865D01*
X151366573Y-100971385D01*
X151357551Y-100963680D01*
X151331100Y-100938841D01*
X151325321Y-100933414D01*
X151318375Y-100929595D01*
X151318372Y-100929593D01*
X151307566Y-100923652D01*
X151291047Y-100912801D01*
X151284156Y-100907456D01*
X151275041Y-100900386D01*
X151267772Y-100897241D01*
X151267768Y-100897238D01*
X151234463Y-100882826D01*
X151223813Y-100877609D01*
X151185060Y-100856305D01*
X151165437Y-100851267D01*
X151146734Y-100844863D01*
X151135420Y-100839967D01*
X151135419Y-100839967D01*
X151128145Y-100836819D01*
X151120322Y-100835580D01*
X151120312Y-100835577D01*
X151084476Y-100829901D01*
X151072856Y-100827495D01*
X151037711Y-100818472D01*
X151037710Y-100818472D01*
X151030030Y-100816500D01*
X151009776Y-100816500D01*
X150990065Y-100814949D01*
X150977886Y-100813020D01*
X150970057Y-100811780D01*
X150962165Y-100812526D01*
X150926039Y-100815941D01*
X150914181Y-100816500D01*
X150709500Y-100816500D01*
X150641379Y-100796498D01*
X150594886Y-100742842D01*
X150583500Y-100690500D01*
X150583500Y-99651064D01*
X150603502Y-99582943D01*
X150657158Y-99536450D01*
X150727432Y-99526346D01*
X150792012Y-99555840D01*
X150810326Y-99575499D01*
X150851715Y-99630724D01*
X150864276Y-99643285D01*
X150966351Y-99719786D01*
X150981946Y-99728324D01*
X151102394Y-99773478D01*
X151117649Y-99777105D01*
X151168514Y-99782631D01*
X151175328Y-99783000D01*
X151410965Y-99783000D01*
X151427629Y-99784107D01*
X151447044Y-99786697D01*
X151461040Y-99786991D01*
X151499186Y-99783519D01*
X151510606Y-99783000D01*
X152231885Y-99783000D01*
X152247124Y-99778525D01*
X152248329Y-99777135D01*
X152250000Y-99769452D01*
X152250000Y-99646668D01*
X152246763Y-99635643D01*
X152239672Y-99638881D01*
X152201601Y-99676952D01*
X152139289Y-99710978D01*
X152068474Y-99705913D01*
X152023411Y-99676952D01*
X151997811Y-99651352D01*
X151983870Y-99643740D01*
X151982034Y-99643871D01*
X151975418Y-99648123D01*
X151946589Y-99676952D01*
X151884277Y-99710978D01*
X151813462Y-99705913D01*
X151768399Y-99676952D01*
X151205542Y-99114095D01*
X151171516Y-99051783D01*
X151176581Y-98980968D01*
X151205542Y-98935905D01*
X151271042Y-98870405D01*
X151333354Y-98836379D01*
X151360137Y-98833500D01*
X151721574Y-98833500D01*
X151789695Y-98853502D01*
X151836188Y-98907158D01*
X151846292Y-98977432D01*
X151832160Y-99019887D01*
X151828750Y-99026131D01*
X151828882Y-99027965D01*
X151833133Y-99034580D01*
X151972188Y-99173635D01*
X151986132Y-99181249D01*
X151987965Y-99181118D01*
X151994580Y-99176867D01*
X152133635Y-99037812D01*
X152140013Y-99026132D01*
X152858751Y-99026132D01*
X152858882Y-99027965D01*
X152863133Y-99034580D01*
X153002188Y-99173635D01*
X153016132Y-99181249D01*
X153017965Y-99181118D01*
X153024580Y-99176867D01*
X153163635Y-99037812D01*
X153171249Y-99023868D01*
X153171118Y-99022035D01*
X153166867Y-99015420D01*
X153027812Y-98876365D01*
X153013868Y-98868751D01*
X153012035Y-98868882D01*
X153005420Y-98873133D01*
X152866365Y-99012188D01*
X152858751Y-99026132D01*
X152140013Y-99026132D01*
X152141249Y-99023868D01*
X152141118Y-99022035D01*
X152129545Y-99004027D01*
X152130618Y-99003337D01*
X152103610Y-98953877D01*
X152108675Y-98883062D01*
X152151222Y-98826226D01*
X152180347Y-98809942D01*
X152199911Y-98802196D01*
X152211142Y-98798351D01*
X152245983Y-98788229D01*
X152245984Y-98788229D01*
X152253593Y-98786018D01*
X152260412Y-98781985D01*
X152260417Y-98781983D01*
X152271028Y-98775707D01*
X152288776Y-98767012D01*
X152307617Y-98759552D01*
X152315108Y-98754110D01*
X152343387Y-98733564D01*
X152353307Y-98727048D01*
X152384540Y-98708577D01*
X152384542Y-98708575D01*
X152391362Y-98704542D01*
X152396969Y-98698935D01*
X152402641Y-98694535D01*
X152470881Y-98668413D01*
X152502965Y-98666118D01*
X152509580Y-98661867D01*
X152798399Y-98373048D01*
X152860711Y-98339022D01*
X152931526Y-98344087D01*
X152976589Y-98373048D01*
X153002189Y-98398648D01*
X153016130Y-98406260D01*
X153017966Y-98406129D01*
X153024582Y-98401877D01*
X153053411Y-98373048D01*
X153115723Y-98339022D01*
X153186538Y-98344087D01*
G37*
%TD.AperFunction*%
%TA.AperFunction,Conductor*%
G36*
X133453526Y-87053502D02*
G01*
X133474500Y-87070405D01*
X133610072Y-87205977D01*
X133644098Y-87268289D01*
X133639033Y-87339104D01*
X133596486Y-87395940D01*
X133565207Y-87413054D01*
X133482972Y-87443883D01*
X133468295Y-87449385D01*
X133351739Y-87536739D01*
X133330246Y-87565417D01*
X133299047Y-87607046D01*
X133242187Y-87649560D01*
X133171369Y-87654585D01*
X133132386Y-87638913D01*
X133011722Y-87564970D01*
X133007502Y-87562384D01*
X133002932Y-87560491D01*
X133002928Y-87560489D01*
X132778164Y-87467389D01*
X132778162Y-87467388D01*
X132773591Y-87465495D01*
X132688968Y-87445179D01*
X132532216Y-87407546D01*
X132532210Y-87407545D01*
X132527403Y-87406391D01*
X132275000Y-87386526D01*
X132022597Y-87406391D01*
X132017790Y-87407545D01*
X132017784Y-87407546D01*
X131861032Y-87445179D01*
X131776409Y-87465495D01*
X131771838Y-87467388D01*
X131771836Y-87467389D01*
X131547072Y-87560489D01*
X131547068Y-87560491D01*
X131542498Y-87562384D01*
X131326624Y-87694672D01*
X131134102Y-87859102D01*
X131130894Y-87862858D01*
X131130887Y-87862865D01*
X131100810Y-87898080D01*
X131041359Y-87936889D01*
X130970365Y-87937395D01*
X130909190Y-87898080D01*
X130879113Y-87862865D01*
X130879106Y-87862858D01*
X130875898Y-87859102D01*
X130683376Y-87694672D01*
X130467502Y-87562384D01*
X130462932Y-87560491D01*
X130462928Y-87560489D01*
X130238164Y-87467389D01*
X130238162Y-87467388D01*
X130233591Y-87465495D01*
X130148968Y-87445179D01*
X129992216Y-87407546D01*
X129992210Y-87407545D01*
X129987403Y-87406391D01*
X129735000Y-87386526D01*
X129482597Y-87406391D01*
X129477790Y-87407545D01*
X129477784Y-87407546D01*
X129321032Y-87445179D01*
X129236409Y-87465495D01*
X129231838Y-87467388D01*
X129231836Y-87467389D01*
X129007072Y-87560489D01*
X129007068Y-87560491D01*
X129002498Y-87562384D01*
X128786624Y-87694672D01*
X128594102Y-87859102D01*
X128429672Y-88051624D01*
X128365279Y-88156704D01*
X128322064Y-88227224D01*
X128303726Y-88250484D01*
X127567022Y-88987188D01*
X127559408Y-89001132D01*
X127559539Y-89002965D01*
X127563790Y-89009580D01*
X128303726Y-89749516D01*
X128322064Y-89772776D01*
X128429672Y-89948376D01*
X128594102Y-90140898D01*
X128786624Y-90305328D01*
X129002498Y-90437616D01*
X129007068Y-90439509D01*
X129007072Y-90439511D01*
X129231836Y-90532611D01*
X129236409Y-90534505D01*
X129316642Y-90553767D01*
X129477784Y-90592454D01*
X129477790Y-90592455D01*
X129482597Y-90593609D01*
X129633264Y-90605467D01*
X129669742Y-90608338D01*
X129736083Y-90633624D01*
X129748951Y-90644855D01*
X131996343Y-92892247D01*
X132003887Y-92900537D01*
X132008000Y-92907018D01*
X132013777Y-92912443D01*
X132057667Y-92953658D01*
X132060509Y-92956413D01*
X132080230Y-92976134D01*
X132083425Y-92978612D01*
X132092447Y-92986318D01*
X132124679Y-93016586D01*
X132131628Y-93020406D01*
X132142432Y-93026346D01*
X132158956Y-93037199D01*
X132174959Y-93049613D01*
X132215543Y-93067176D01*
X132226173Y-93072383D01*
X132264940Y-93093695D01*
X132272617Y-93095666D01*
X132272622Y-93095668D01*
X132284558Y-93098732D01*
X132303266Y-93105137D01*
X132321855Y-93113181D01*
X132329680Y-93114420D01*
X132329682Y-93114421D01*
X132365519Y-93120097D01*
X132377140Y-93122504D01*
X132412289Y-93131528D01*
X132419970Y-93133500D01*
X132440231Y-93133500D01*
X132459940Y-93135051D01*
X132479943Y-93138219D01*
X132487835Y-93137473D01*
X132493062Y-93136979D01*
X132523954Y-93134059D01*
X132535811Y-93133500D01*
X134685406Y-93133500D01*
X134753527Y-93153502D01*
X134774501Y-93170405D01*
X137049595Y-95445500D01*
X137083621Y-95507812D01*
X137086500Y-95534595D01*
X137086500Y-95984713D01*
X137066498Y-96052834D01*
X137012842Y-96099327D01*
X137008336Y-96100949D01*
X137008439Y-96101197D01*
X136869536Y-96158733D01*
X136862985Y-96163760D01*
X136756811Y-96245230D01*
X136750258Y-96250258D01*
X136658733Y-96369537D01*
X136601197Y-96508439D01*
X136600120Y-96516623D01*
X136600119Y-96516625D01*
X136593685Y-96565500D01*
X136586500Y-96620075D01*
X136586501Y-96838386D01*
X136586501Y-96960500D01*
X136566499Y-97028620D01*
X136512844Y-97075113D01*
X136460501Y-97086500D01*
X136134855Y-97086501D01*
X136120076Y-97086501D01*
X136115992Y-97087039D01*
X136115986Y-97087039D01*
X136016626Y-97100119D01*
X136016624Y-97100120D01*
X136008439Y-97101197D01*
X135869536Y-97158733D01*
X135805339Y-97207993D01*
X135756129Y-97245753D01*
X135689908Y-97271353D01*
X135620360Y-97257088D01*
X135569564Y-97207487D01*
X135553648Y-97138297D01*
X135570306Y-97082790D01*
X135631223Y-96977279D01*
X135631224Y-96977278D01*
X135634527Y-96971556D01*
X135693542Y-96789928D01*
X135695400Y-96772256D01*
X135712814Y-96606565D01*
X135713504Y-96600000D01*
X135693542Y-96410072D01*
X135634527Y-96228444D01*
X135539040Y-96063056D01*
X135532473Y-96055762D01*
X135415675Y-95926045D01*
X135415674Y-95926044D01*
X135411253Y-95921134D01*
X135287609Y-95831301D01*
X135262094Y-95812763D01*
X135262093Y-95812762D01*
X135256752Y-95808882D01*
X135250724Y-95806198D01*
X135250722Y-95806197D01*
X135088319Y-95733891D01*
X135088318Y-95733891D01*
X135082288Y-95731206D01*
X134980335Y-95709535D01*
X134901944Y-95692872D01*
X134901939Y-95692872D01*
X134895487Y-95691500D01*
X134704513Y-95691500D01*
X134698061Y-95692872D01*
X134698056Y-95692872D01*
X134619665Y-95709535D01*
X134517712Y-95731206D01*
X134511682Y-95733891D01*
X134511681Y-95733891D01*
X134349278Y-95806197D01*
X134349276Y-95806198D01*
X134343248Y-95808882D01*
X134337907Y-95812762D01*
X134337906Y-95812763D01*
X134312391Y-95831301D01*
X134188747Y-95921134D01*
X134184326Y-95926044D01*
X134184325Y-95926045D01*
X134067528Y-96055762D01*
X134060960Y-96063056D01*
X133965473Y-96228444D01*
X133906458Y-96410072D01*
X133886496Y-96600000D01*
X133887186Y-96606565D01*
X133904601Y-96772256D01*
X133906458Y-96789928D01*
X133965473Y-96971556D01*
X134060960Y-97136944D01*
X134134137Y-97218215D01*
X134164853Y-97282221D01*
X134166500Y-97302524D01*
X134166500Y-97554501D01*
X134146498Y-97622622D01*
X134106805Y-97661644D01*
X134097512Y-97667395D01*
X134097507Y-97667399D01*
X134091287Y-97671248D01*
X134086118Y-97676426D01*
X134080380Y-97680974D01*
X134078949Y-97679168D01*
X134026425Y-97707902D01*
X133955605Y-97702892D01*
X133919147Y-97679501D01*
X133918317Y-97680552D01*
X133901160Y-97667002D01*
X133768120Y-97584996D01*
X133754939Y-97578849D01*
X133606186Y-97529509D01*
X133592810Y-97526642D01*
X133501903Y-97517328D01*
X133496874Y-97517071D01*
X133481876Y-97521475D01*
X133480671Y-97522865D01*
X133479000Y-97530548D01*
X133479000Y-98628000D01*
X133458998Y-98696121D01*
X133405342Y-98742614D01*
X133353000Y-98754000D01*
X133097000Y-98754000D01*
X133028879Y-98733998D01*
X132982386Y-98680342D01*
X132971000Y-98628000D01*
X132971000Y-97535115D01*
X132966525Y-97519876D01*
X132965135Y-97518671D01*
X132957452Y-97517000D01*
X132954562Y-97517000D01*
X132948047Y-97517337D01*
X132855943Y-97526894D01*
X132842544Y-97529788D01*
X132693893Y-97579381D01*
X132680714Y-97585555D01*
X132547827Y-97667788D01*
X132536426Y-97676824D01*
X132426014Y-97787429D01*
X132417002Y-97798840D01*
X132366760Y-97880348D01*
X132313988Y-97927841D01*
X132243916Y-97939265D01*
X132178792Y-97910991D01*
X132139293Y-97851997D01*
X132133500Y-97814232D01*
X132133500Y-95814594D01*
X132153502Y-95746473D01*
X132170405Y-95725499D01*
X132350499Y-95545405D01*
X132412811Y-95511379D01*
X132439594Y-95508500D01*
X132495487Y-95508500D01*
X132501939Y-95507128D01*
X132501944Y-95507128D01*
X132592708Y-95487835D01*
X132682288Y-95468794D01*
X132688319Y-95466109D01*
X132850722Y-95393803D01*
X132850724Y-95393802D01*
X132856752Y-95391118D01*
X132871093Y-95380699D01*
X132919670Y-95345405D01*
X133011253Y-95278866D01*
X133016219Y-95273351D01*
X133134621Y-95141852D01*
X133134622Y-95141851D01*
X133139040Y-95136944D01*
X133234527Y-94971556D01*
X133293542Y-94789928D01*
X133297345Y-94753750D01*
X133312814Y-94606565D01*
X133313504Y-94600000D01*
X133303106Y-94501069D01*
X133294232Y-94416635D01*
X133294232Y-94416633D01*
X133293542Y-94410072D01*
X133234527Y-94228444D01*
X133139040Y-94063056D01*
X133134318Y-94057811D01*
X133015675Y-93926045D01*
X133015674Y-93926044D01*
X133011253Y-93921134D01*
X132876174Y-93822993D01*
X132862094Y-93812763D01*
X132862093Y-93812762D01*
X132856752Y-93808882D01*
X132850724Y-93806198D01*
X132850722Y-93806197D01*
X132688319Y-93733891D01*
X132688318Y-93733891D01*
X132682288Y-93731206D01*
X132569467Y-93707225D01*
X132501944Y-93692872D01*
X132501939Y-93692872D01*
X132495487Y-93691500D01*
X132304513Y-93691500D01*
X132298061Y-93692872D01*
X132298056Y-93692872D01*
X132230533Y-93707225D01*
X132117712Y-93731206D01*
X132111682Y-93733891D01*
X132111681Y-93733891D01*
X131949278Y-93806197D01*
X131949276Y-93806198D01*
X131943248Y-93808882D01*
X131937907Y-93812762D01*
X131937906Y-93812763D01*
X131923826Y-93822993D01*
X131788747Y-93921134D01*
X131784326Y-93926044D01*
X131784325Y-93926045D01*
X131665683Y-94057811D01*
X131660960Y-94063056D01*
X131565473Y-94228444D01*
X131506458Y-94410072D01*
X131505768Y-94416633D01*
X131505768Y-94416635D01*
X131500117Y-94470402D01*
X131489250Y-94573802D01*
X131489093Y-94575292D01*
X131462080Y-94640949D01*
X131452878Y-94651217D01*
X131107747Y-94996348D01*
X131099461Y-95003888D01*
X131092982Y-95008000D01*
X131087557Y-95013777D01*
X131046357Y-95057651D01*
X131043602Y-95060493D01*
X131023865Y-95080230D01*
X131021385Y-95083427D01*
X131013682Y-95092447D01*
X130983414Y-95124679D01*
X130979595Y-95131625D01*
X130979593Y-95131628D01*
X130973652Y-95142434D01*
X130962801Y-95158953D01*
X130950386Y-95174959D01*
X130947241Y-95182228D01*
X130947238Y-95182232D01*
X130932826Y-95215537D01*
X130927609Y-95226187D01*
X130906305Y-95264940D01*
X130904334Y-95272615D01*
X130904334Y-95272616D01*
X130901267Y-95284562D01*
X130894863Y-95303266D01*
X130893140Y-95307249D01*
X130886819Y-95321855D01*
X130885580Y-95329678D01*
X130885577Y-95329688D01*
X130879901Y-95365524D01*
X130877495Y-95377144D01*
X130873218Y-95393803D01*
X130866500Y-95419970D01*
X130866500Y-95440224D01*
X130864949Y-95459934D01*
X130861780Y-95479943D01*
X130862526Y-95487835D01*
X130865941Y-95523961D01*
X130866500Y-95535819D01*
X130866500Y-95865359D01*
X130846498Y-95933480D01*
X130792842Y-95979973D01*
X130722568Y-95990077D01*
X130657988Y-95960583D01*
X130651481Y-95954531D01*
X130628171Y-95931261D01*
X130616760Y-95922249D01*
X130478757Y-95837184D01*
X130465576Y-95831037D01*
X130311290Y-95779862D01*
X130297914Y-95776995D01*
X130203562Y-95767328D01*
X130197145Y-95767000D01*
X130102459Y-95767000D01*
X130034338Y-95746998D01*
X129987845Y-95693342D01*
X129977741Y-95623068D01*
X130007235Y-95558488D01*
X130028398Y-95539064D01*
X130059977Y-95516120D01*
X130111253Y-95478866D01*
X130120322Y-95468794D01*
X130234621Y-95341852D01*
X130234622Y-95341851D01*
X130239040Y-95336944D01*
X130315176Y-95205073D01*
X130331223Y-95177279D01*
X130331224Y-95177278D01*
X130334527Y-95171556D01*
X130393542Y-94989928D01*
X130394872Y-94977279D01*
X130412814Y-94806565D01*
X130413504Y-94800000D01*
X130407445Y-94742348D01*
X130394232Y-94616635D01*
X130394232Y-94616633D01*
X130393542Y-94610072D01*
X130334527Y-94428444D01*
X130239040Y-94263056D01*
X130173620Y-94190399D01*
X130115675Y-94126045D01*
X130115674Y-94126044D01*
X130111253Y-94121134D01*
X129982295Y-94027440D01*
X129962094Y-94012763D01*
X129962093Y-94012762D01*
X129956752Y-94008882D01*
X129950724Y-94006198D01*
X129950722Y-94006197D01*
X129788319Y-93933891D01*
X129788318Y-93933891D01*
X129782288Y-93931206D01*
X129688888Y-93911353D01*
X129601944Y-93892872D01*
X129601939Y-93892872D01*
X129595487Y-93891500D01*
X129404513Y-93891500D01*
X129398061Y-93892872D01*
X129398056Y-93892872D01*
X129311113Y-93911353D01*
X129217712Y-93931206D01*
X129080748Y-93992186D01*
X129010382Y-94001620D01*
X128946085Y-93971514D01*
X128908271Y-93911425D01*
X128903500Y-93877079D01*
X128903500Y-93848768D01*
X128904027Y-93837585D01*
X128905702Y-93830092D01*
X128905435Y-93821579D01*
X128903562Y-93762002D01*
X128903500Y-93758044D01*
X128903500Y-93730144D01*
X128902996Y-93726153D01*
X128902063Y-93714311D01*
X128901841Y-93707225D01*
X128900674Y-93670111D01*
X128895021Y-93650652D01*
X128891012Y-93631293D01*
X128890846Y-93629983D01*
X128888474Y-93611203D01*
X128885558Y-93603837D01*
X128885556Y-93603831D01*
X128872200Y-93570098D01*
X128868355Y-93558868D01*
X128858230Y-93524017D01*
X128858230Y-93524016D01*
X128856019Y-93516407D01*
X128845705Y-93498966D01*
X128837008Y-93481213D01*
X128833981Y-93473568D01*
X128829552Y-93462383D01*
X128811746Y-93437875D01*
X128803563Y-93426612D01*
X128797047Y-93416692D01*
X128781602Y-93390576D01*
X128774542Y-93378638D01*
X128760221Y-93364317D01*
X128747380Y-93349283D01*
X128740131Y-93339306D01*
X128735472Y-93332893D01*
X128701395Y-93304702D01*
X128692616Y-93296712D01*
X126170405Y-90774500D01*
X126136379Y-90712188D01*
X126133500Y-90685405D01*
X126133500Y-90460408D01*
X126153502Y-90392287D01*
X126207158Y-90345794D01*
X126277432Y-90335690D01*
X126325335Y-90352976D01*
X126458496Y-90434578D01*
X126467300Y-90439064D01*
X126691991Y-90532134D01*
X126701376Y-90535183D01*
X126937863Y-90591959D01*
X126947610Y-90593502D01*
X127190070Y-90612584D01*
X127199930Y-90612584D01*
X127442390Y-90593502D01*
X127452137Y-90591959D01*
X127688624Y-90535183D01*
X127698009Y-90532134D01*
X127922700Y-90439064D01*
X127931494Y-90434583D01*
X128126167Y-90315287D01*
X128135627Y-90304830D01*
X128131844Y-90296054D01*
X126924885Y-89089095D01*
X126890859Y-89026783D01*
X126895924Y-88955968D01*
X126924885Y-88910905D01*
X128128800Y-87706990D01*
X128135560Y-87694610D01*
X128129833Y-87686960D01*
X127931494Y-87565417D01*
X127922700Y-87560936D01*
X127698009Y-87467866D01*
X127688624Y-87464817D01*
X127452137Y-87408041D01*
X127442390Y-87406498D01*
X127199930Y-87387416D01*
X127190070Y-87387416D01*
X127116377Y-87393216D01*
X127046897Y-87378620D01*
X126996338Y-87328778D01*
X126980751Y-87259513D01*
X127005086Y-87192817D01*
X127017396Y-87178509D01*
X127125500Y-87070405D01*
X127187812Y-87036379D01*
X127214595Y-87033500D01*
X133385405Y-87033500D01*
X133453526Y-87053502D01*
G37*
%TD.AperFunction*%
%TA.AperFunction,Conductor*%
G36*
X137555932Y-85502543D02*
G01*
X137624046Y-85522567D01*
X137670522Y-85576238D01*
X137680603Y-85646516D01*
X137673873Y-85672773D01*
X137651522Y-85732394D01*
X137647895Y-85747649D01*
X137642369Y-85798514D01*
X137642000Y-85805328D01*
X137642000Y-86027885D01*
X137646475Y-86043124D01*
X137647865Y-86044329D01*
X137655548Y-86046000D01*
X140339884Y-86046000D01*
X140355123Y-86041525D01*
X140356328Y-86040135D01*
X140357999Y-86032452D01*
X140357999Y-85805331D01*
X140357629Y-85798510D01*
X140352105Y-85747648D01*
X140348479Y-85732397D01*
X140326482Y-85673720D01*
X140321299Y-85602913D01*
X140355220Y-85540544D01*
X140417475Y-85506414D01*
X140444505Y-85503490D01*
X140761122Y-85503594D01*
X150808229Y-85506888D01*
X150876342Y-85526912D01*
X150922818Y-85580583D01*
X150932899Y-85650861D01*
X150903384Y-85715432D01*
X150882248Y-85734824D01*
X150752157Y-85829341D01*
X150736729Y-85840550D01*
X150515808Y-86048008D01*
X150420876Y-86162761D01*
X150336449Y-86264816D01*
X150322630Y-86281520D01*
X150320508Y-86284864D01*
X150162899Y-86533216D01*
X150160242Y-86537402D01*
X150094681Y-86676728D01*
X150038350Y-86796438D01*
X150031206Y-86811619D01*
X150029980Y-86815391D01*
X150029980Y-86815392D01*
X150021489Y-86841525D01*
X149937555Y-87099846D01*
X149880767Y-87397538D01*
X149861738Y-87700000D01*
X149880767Y-88002462D01*
X149937555Y-88300154D01*
X150031206Y-88588381D01*
X150160242Y-88862598D01*
X150322630Y-89118480D01*
X150325149Y-89121525D01*
X150325152Y-89121529D01*
X150364324Y-89168879D01*
X150515808Y-89351992D01*
X150649307Y-89477355D01*
X150715719Y-89539720D01*
X150751684Y-89600932D01*
X150748847Y-89671872D01*
X150708106Y-89730016D01*
X150642398Y-89756905D01*
X150594315Y-89752568D01*
X150592962Y-89752175D01*
X150566331Y-89744438D01*
X150559926Y-89743934D01*
X150559921Y-89743933D01*
X150531458Y-89741693D01*
X150531450Y-89741693D01*
X150529002Y-89741500D01*
X149220998Y-89741500D01*
X149218550Y-89741693D01*
X149218542Y-89741693D01*
X149190079Y-89743933D01*
X149190074Y-89743934D01*
X149183669Y-89744438D01*
X149086128Y-89772776D01*
X149031512Y-89788643D01*
X149031510Y-89788644D01*
X149023899Y-89790855D01*
X149017072Y-89794892D01*
X149017073Y-89794892D01*
X148887520Y-89871509D01*
X148887517Y-89871511D01*
X148880693Y-89875547D01*
X148763047Y-89993193D01*
X148759011Y-90000017D01*
X148759009Y-90000020D01*
X148713679Y-90076669D01*
X148678355Y-90136399D01*
X148676144Y-90144010D01*
X148676143Y-90144012D01*
X148673967Y-90151502D01*
X148631938Y-90296169D01*
X148631434Y-90302574D01*
X148631433Y-90302579D01*
X148629706Y-90324528D01*
X148629000Y-90333498D01*
X148629000Y-90565500D01*
X148608998Y-90633621D01*
X148555342Y-90680114D01*
X148503000Y-90691500D01*
X147345998Y-90691500D01*
X147343550Y-90691693D01*
X147343542Y-90691693D01*
X147315079Y-90693933D01*
X147315074Y-90693934D01*
X147308669Y-90694438D01*
X147225495Y-90718602D01*
X147156512Y-90738643D01*
X147156510Y-90738644D01*
X147148899Y-90740855D01*
X147142072Y-90744892D01*
X147142073Y-90744892D01*
X147012520Y-90821509D01*
X147012517Y-90821511D01*
X147005693Y-90825547D01*
X147000085Y-90831155D01*
X146993825Y-90836011D01*
X146992401Y-90834175D01*
X146940377Y-90862594D01*
X146869560Y-90857541D01*
X146824478Y-90828573D01*
X146778652Y-90782747D01*
X146771112Y-90774461D01*
X146767000Y-90767982D01*
X146717348Y-90721356D01*
X146714507Y-90718602D01*
X146694770Y-90698865D01*
X146691573Y-90696385D01*
X146682551Y-90688680D01*
X146681238Y-90687447D01*
X146650321Y-90658414D01*
X146643375Y-90654595D01*
X146643372Y-90654593D01*
X146632566Y-90648652D01*
X146616047Y-90637801D01*
X146615271Y-90637199D01*
X146600041Y-90625386D01*
X146592772Y-90622241D01*
X146592768Y-90622238D01*
X146559463Y-90607826D01*
X146548813Y-90602609D01*
X146510060Y-90581305D01*
X146490437Y-90576267D01*
X146471734Y-90569863D01*
X146460420Y-90564967D01*
X146460419Y-90564967D01*
X146453145Y-90561819D01*
X146445322Y-90560580D01*
X146445312Y-90560577D01*
X146409476Y-90554901D01*
X146397857Y-90552495D01*
X146372932Y-90546096D01*
X146315169Y-90513149D01*
X146215381Y-90413361D01*
X146068699Y-90324528D01*
X146061452Y-90322257D01*
X146061450Y-90322256D01*
X145958495Y-90289992D01*
X145905062Y-90273247D01*
X145831635Y-90266500D01*
X145828737Y-90266500D01*
X145499140Y-90266501D01*
X145168366Y-90266501D01*
X145165508Y-90266764D01*
X145165499Y-90266764D01*
X145129996Y-90270026D01*
X145094938Y-90273247D01*
X145088560Y-90275246D01*
X145088559Y-90275246D01*
X144938550Y-90322256D01*
X144938548Y-90322257D01*
X144931301Y-90324528D01*
X144784619Y-90413361D01*
X144663361Y-90534619D01*
X144574528Y-90681301D01*
X144572257Y-90688548D01*
X144572256Y-90688550D01*
X144557684Y-90735051D01*
X144523247Y-90844938D01*
X144516500Y-90918365D01*
X144516500Y-90985983D01*
X144496498Y-91054104D01*
X144442842Y-91100597D01*
X144372568Y-91110701D01*
X144339251Y-91101090D01*
X144188319Y-91033891D01*
X144188318Y-91033891D01*
X144182288Y-91031206D01*
X144032823Y-90999436D01*
X143970350Y-90965707D01*
X143936028Y-90903558D01*
X143933020Y-90876189D01*
X143933020Y-90838481D01*
X143953022Y-90770360D01*
X143965384Y-90754171D01*
X144015895Y-90698073D01*
X144015896Y-90698072D01*
X144020314Y-90693165D01*
X144084897Y-90581305D01*
X144112497Y-90533500D01*
X144112498Y-90533499D01*
X144115801Y-90527777D01*
X144174816Y-90346149D01*
X144177089Y-90324528D01*
X144194088Y-90162786D01*
X144194778Y-90156221D01*
X144178566Y-90001968D01*
X144175506Y-89972856D01*
X144175506Y-89972854D01*
X144174816Y-89966293D01*
X144115801Y-89784665D01*
X144020314Y-89619277D01*
X143892527Y-89477355D01*
X143877587Y-89466500D01*
X143785439Y-89399551D01*
X143742085Y-89343329D01*
X143733500Y-89297615D01*
X143733500Y-88699600D01*
X143722526Y-88593834D01*
X143691691Y-88501409D01*
X143668868Y-88433002D01*
X143666550Y-88426054D01*
X143573478Y-88275652D01*
X143448303Y-88150695D01*
X143443765Y-88147898D01*
X143403176Y-88090647D01*
X143399946Y-88019724D01*
X143435572Y-87958313D01*
X143444068Y-87950938D01*
X143454207Y-87942902D01*
X143568739Y-87828171D01*
X143577751Y-87816760D01*
X143662816Y-87678757D01*
X143668963Y-87665576D01*
X143720138Y-87511290D01*
X143723005Y-87497914D01*
X143732672Y-87403562D01*
X143733000Y-87397146D01*
X143733000Y-87372115D01*
X143728525Y-87356876D01*
X143727135Y-87355671D01*
X143719452Y-87354000D01*
X141285116Y-87354000D01*
X141269877Y-87358475D01*
X141268672Y-87359865D01*
X141267001Y-87367548D01*
X141267001Y-87397095D01*
X141267338Y-87403614D01*
X141277257Y-87499206D01*
X141280149Y-87512600D01*
X141331588Y-87666784D01*
X141337761Y-87679962D01*
X141423063Y-87817807D01*
X141432099Y-87829208D01*
X141546828Y-87943738D01*
X141555762Y-87950794D01*
X141596823Y-88008712D01*
X141600053Y-88079635D01*
X141564426Y-88141046D01*
X141556593Y-88147846D01*
X141550652Y-88151522D01*
X141425695Y-88276697D01*
X141332885Y-88427262D01*
X141330581Y-88434209D01*
X141279445Y-88588381D01*
X141277203Y-88595139D01*
X141266500Y-88699600D01*
X141266500Y-89300400D01*
X141266836Y-89303641D01*
X141266837Y-89303655D01*
X141269311Y-89327498D01*
X141256445Y-89397319D01*
X141207874Y-89449101D01*
X141143984Y-89466500D01*
X140914595Y-89466500D01*
X140846474Y-89446498D01*
X140825500Y-89429595D01*
X140703652Y-89307747D01*
X140696112Y-89299461D01*
X140692000Y-89292982D01*
X140642348Y-89246356D01*
X140639507Y-89243602D01*
X140619770Y-89223865D01*
X140616573Y-89221385D01*
X140607551Y-89213680D01*
X140581100Y-89188841D01*
X140575321Y-89183414D01*
X140568375Y-89179595D01*
X140568372Y-89179593D01*
X140557566Y-89173652D01*
X140541047Y-89162801D01*
X140540583Y-89162441D01*
X140525041Y-89150386D01*
X140517772Y-89147241D01*
X140517768Y-89147238D01*
X140484463Y-89132826D01*
X140473813Y-89127609D01*
X140435060Y-89106305D01*
X140415437Y-89101267D01*
X140396734Y-89094863D01*
X140378145Y-89086819D01*
X140378883Y-89085113D01*
X140327537Y-89052325D01*
X140304539Y-89013763D01*
X140303765Y-89011698D01*
X140300615Y-89003295D01*
X140295235Y-88996116D01*
X140295233Y-88996113D01*
X140218642Y-88893919D01*
X140213261Y-88886739D01*
X140096705Y-88799385D01*
X139960316Y-88748255D01*
X139898134Y-88741500D01*
X138101866Y-88741500D01*
X138039684Y-88748255D01*
X137903295Y-88799385D01*
X137786739Y-88886739D01*
X137699385Y-89003295D01*
X137648255Y-89139684D01*
X137641500Y-89201866D01*
X137641500Y-89910405D01*
X137621498Y-89978526D01*
X137604595Y-89999500D01*
X136907747Y-90696348D01*
X136899461Y-90703888D01*
X136892982Y-90708000D01*
X136887557Y-90713777D01*
X136846357Y-90757651D01*
X136843602Y-90760493D01*
X136823865Y-90780230D01*
X136821385Y-90783427D01*
X136813682Y-90792447D01*
X136783414Y-90824679D01*
X136779595Y-90831625D01*
X136779593Y-90831628D01*
X136773652Y-90842434D01*
X136762801Y-90858953D01*
X136750386Y-90874959D01*
X136747241Y-90882228D01*
X136747238Y-90882232D01*
X136732826Y-90915537D01*
X136727609Y-90926187D01*
X136706305Y-90964940D01*
X136704334Y-90972615D01*
X136704334Y-90972616D01*
X136701267Y-90984562D01*
X136694863Y-91003266D01*
X136686819Y-91021855D01*
X136685580Y-91029678D01*
X136685577Y-91029688D01*
X136679901Y-91065524D01*
X136677495Y-91077144D01*
X136666500Y-91119970D01*
X136666500Y-91140224D01*
X136664949Y-91159934D01*
X136661780Y-91179943D01*
X136662526Y-91187835D01*
X136665941Y-91223961D01*
X136666500Y-91235819D01*
X136666500Y-91966405D01*
X136646498Y-92034526D01*
X136592842Y-92081019D01*
X136522568Y-92091123D01*
X136457988Y-92061629D01*
X136451405Y-92055500D01*
X135903652Y-91507747D01*
X135896112Y-91499461D01*
X135892000Y-91492982D01*
X135842348Y-91446356D01*
X135839507Y-91443602D01*
X135819770Y-91423865D01*
X135816573Y-91421385D01*
X135807551Y-91413680D01*
X135781100Y-91388841D01*
X135775321Y-91383414D01*
X135768375Y-91379595D01*
X135768372Y-91379593D01*
X135757566Y-91373652D01*
X135741047Y-91362801D01*
X135731714Y-91355562D01*
X135725041Y-91350386D01*
X135717772Y-91347241D01*
X135717768Y-91347238D01*
X135684463Y-91332826D01*
X135673813Y-91327609D01*
X135635060Y-91306305D01*
X135615437Y-91301267D01*
X135596734Y-91294863D01*
X135585420Y-91289967D01*
X135585419Y-91289967D01*
X135578145Y-91286819D01*
X135570322Y-91285580D01*
X135570312Y-91285577D01*
X135534476Y-91279901D01*
X135522856Y-91277495D01*
X135487711Y-91268472D01*
X135487710Y-91268472D01*
X135480030Y-91266500D01*
X135459776Y-91266500D01*
X135440065Y-91264949D01*
X135427886Y-91263020D01*
X135420057Y-91261780D01*
X135412165Y-91262526D01*
X135376039Y-91265941D01*
X135364181Y-91266500D01*
X133214595Y-91266500D01*
X133146474Y-91246498D01*
X133125500Y-91229595D01*
X132945405Y-91049500D01*
X132911379Y-90987188D01*
X132908500Y-90960405D01*
X132908500Y-90562815D01*
X132928502Y-90494694D01*
X132986280Y-90446407D01*
X133002925Y-90439512D01*
X133002927Y-90439511D01*
X133007502Y-90437616D01*
X133038310Y-90418737D01*
X133132386Y-90361087D01*
X133200920Y-90342549D01*
X133268596Y-90364005D01*
X133299046Y-90392953D01*
X133351739Y-90463261D01*
X133468295Y-90550615D01*
X133604684Y-90601745D01*
X133666866Y-90608500D01*
X135963134Y-90608500D01*
X136025316Y-90601745D01*
X136161705Y-90550615D01*
X136278261Y-90463261D01*
X136365615Y-90346705D01*
X136416745Y-90210316D01*
X136423500Y-90148134D01*
X136423500Y-87851866D01*
X136416745Y-87789684D01*
X136365615Y-87653295D01*
X136278261Y-87536739D01*
X136161705Y-87449385D01*
X136025316Y-87398255D01*
X135963134Y-87391500D01*
X135533418Y-87391500D01*
X135465297Y-87371498D01*
X135418804Y-87317842D01*
X135412422Y-87300655D01*
X135403231Y-87269023D01*
X135403230Y-87269021D01*
X135401018Y-87261407D01*
X135396357Y-87253525D01*
X135390707Y-87243972D01*
X135382012Y-87226224D01*
X135374552Y-87207383D01*
X135348564Y-87171613D01*
X135342048Y-87161693D01*
X135323580Y-87130465D01*
X135323578Y-87130462D01*
X135319542Y-87123638D01*
X135305221Y-87109317D01*
X135292380Y-87094283D01*
X135285131Y-87084306D01*
X135280472Y-87077893D01*
X135246395Y-87049702D01*
X135237616Y-87041712D01*
X134990573Y-86794669D01*
X137642001Y-86794669D01*
X137642371Y-86801490D01*
X137647895Y-86852352D01*
X137651521Y-86867604D01*
X137696676Y-86988054D01*
X137705214Y-87003649D01*
X137781715Y-87105724D01*
X137794276Y-87118285D01*
X137896351Y-87194786D01*
X137911946Y-87203324D01*
X138032394Y-87248478D01*
X138047649Y-87252105D01*
X138098514Y-87257631D01*
X138105328Y-87258000D01*
X138727885Y-87258000D01*
X138743124Y-87253525D01*
X138744329Y-87252135D01*
X138746000Y-87244452D01*
X138746000Y-87239884D01*
X139254000Y-87239884D01*
X139258475Y-87255123D01*
X139259865Y-87256328D01*
X139267548Y-87257999D01*
X139894669Y-87257999D01*
X139901490Y-87257629D01*
X139952352Y-87252105D01*
X139967604Y-87248479D01*
X140088054Y-87203324D01*
X140103649Y-87194786D01*
X140205724Y-87118285D01*
X140218285Y-87105724D01*
X140294786Y-87003649D01*
X140303324Y-86988054D01*
X140348478Y-86867606D01*
X140352105Y-86852351D01*
X140354763Y-86827885D01*
X141267000Y-86827885D01*
X141271475Y-86843124D01*
X141272865Y-86844329D01*
X141280548Y-86846000D01*
X142227885Y-86846000D01*
X142243124Y-86841525D01*
X142244329Y-86840135D01*
X142246000Y-86832452D01*
X142246000Y-86827885D01*
X142754000Y-86827885D01*
X142758475Y-86843124D01*
X142759865Y-86844329D01*
X142767548Y-86846000D01*
X143714884Y-86846000D01*
X143730123Y-86841525D01*
X143731328Y-86840135D01*
X143732999Y-86832452D01*
X143732999Y-86802905D01*
X143732662Y-86796386D01*
X143722743Y-86700794D01*
X143719851Y-86687400D01*
X143668412Y-86533216D01*
X143662239Y-86520038D01*
X143576937Y-86382193D01*
X143567901Y-86370792D01*
X143453171Y-86256261D01*
X143441760Y-86247249D01*
X143303757Y-86162184D01*
X143290576Y-86156037D01*
X143136290Y-86104862D01*
X143122914Y-86101995D01*
X143028562Y-86092328D01*
X143022145Y-86092000D01*
X142772115Y-86092000D01*
X142756876Y-86096475D01*
X142755671Y-86097865D01*
X142754000Y-86105548D01*
X142754000Y-86827885D01*
X142246000Y-86827885D01*
X142246000Y-86110116D01*
X142241525Y-86094877D01*
X142240135Y-86093672D01*
X142232452Y-86092001D01*
X141977905Y-86092001D01*
X141971386Y-86092338D01*
X141875794Y-86102257D01*
X141862400Y-86105149D01*
X141708216Y-86156588D01*
X141695038Y-86162761D01*
X141557193Y-86248063D01*
X141545792Y-86257099D01*
X141431261Y-86371829D01*
X141422249Y-86383240D01*
X141337184Y-86521243D01*
X141331037Y-86534424D01*
X141279862Y-86688710D01*
X141276995Y-86702086D01*
X141267328Y-86796438D01*
X141267000Y-86802855D01*
X141267000Y-86827885D01*
X140354763Y-86827885D01*
X140357631Y-86801486D01*
X140358000Y-86794672D01*
X140358000Y-86572115D01*
X140353525Y-86556876D01*
X140352135Y-86555671D01*
X140344452Y-86554000D01*
X139272115Y-86554000D01*
X139256876Y-86558475D01*
X139255671Y-86559865D01*
X139254000Y-86567548D01*
X139254000Y-87239884D01*
X138746000Y-87239884D01*
X138746000Y-86572115D01*
X138741525Y-86556876D01*
X138740135Y-86555671D01*
X138732452Y-86554000D01*
X137660116Y-86554000D01*
X137644877Y-86558475D01*
X137643672Y-86559865D01*
X137642001Y-86567548D01*
X137642001Y-86794669D01*
X134990573Y-86794669D01*
X134203652Y-86007747D01*
X134196112Y-85999461D01*
X134192000Y-85992982D01*
X134166034Y-85968598D01*
X134142349Y-85946357D01*
X134139507Y-85943602D01*
X134119770Y-85923865D01*
X134116573Y-85921385D01*
X134107551Y-85913680D01*
X134094122Y-85901069D01*
X134075321Y-85883414D01*
X134068375Y-85879595D01*
X134068372Y-85879593D01*
X134057566Y-85873652D01*
X134041047Y-85862801D01*
X134040583Y-85862441D01*
X134025041Y-85850386D01*
X134017772Y-85847241D01*
X134017768Y-85847238D01*
X133984463Y-85832826D01*
X133973813Y-85827609D01*
X133935060Y-85806305D01*
X133915437Y-85801267D01*
X133896734Y-85794863D01*
X133885420Y-85789967D01*
X133885419Y-85789967D01*
X133878145Y-85786819D01*
X133870322Y-85785580D01*
X133870312Y-85785577D01*
X133834476Y-85779901D01*
X133822856Y-85777495D01*
X133787711Y-85768472D01*
X133787710Y-85768472D01*
X133780030Y-85766500D01*
X133759776Y-85766500D01*
X133740065Y-85764949D01*
X133727886Y-85763020D01*
X133720057Y-85761780D01*
X133690786Y-85764547D01*
X133676039Y-85765941D01*
X133664181Y-85766500D01*
X126978767Y-85766500D01*
X126967584Y-85765973D01*
X126960091Y-85764298D01*
X126952165Y-85764547D01*
X126952164Y-85764547D01*
X126892014Y-85766438D01*
X126888055Y-85766500D01*
X126860144Y-85766500D01*
X126856210Y-85766997D01*
X126856209Y-85766997D01*
X126856144Y-85767005D01*
X126844307Y-85767938D01*
X126812049Y-85768952D01*
X126808030Y-85769078D01*
X126800111Y-85769327D01*
X126780657Y-85774979D01*
X126761300Y-85778987D01*
X126749070Y-85780532D01*
X126749069Y-85780532D01*
X126741203Y-85781526D01*
X126733832Y-85784445D01*
X126733830Y-85784445D01*
X126700088Y-85797804D01*
X126688858Y-85801649D01*
X126654017Y-85811771D01*
X126654016Y-85811771D01*
X126646407Y-85813982D01*
X126639588Y-85818015D01*
X126639583Y-85818017D01*
X126628972Y-85824293D01*
X126611224Y-85832988D01*
X126592383Y-85840448D01*
X126585967Y-85845110D01*
X126585966Y-85845110D01*
X126556613Y-85866436D01*
X126546693Y-85872952D01*
X126515465Y-85891420D01*
X126515462Y-85891422D01*
X126508638Y-85895458D01*
X126494317Y-85909779D01*
X126479284Y-85922619D01*
X126462893Y-85934528D01*
X126457843Y-85940632D01*
X126457838Y-85940637D01*
X126434707Y-85968598D01*
X126426717Y-85977379D01*
X125713780Y-86690315D01*
X125651468Y-86724340D01*
X125580652Y-86719275D01*
X125523817Y-86676728D01*
X125499006Y-86610208D01*
X125498685Y-86601219D01*
X125498685Y-85840014D01*
X125500185Y-85820629D01*
X125502490Y-85805827D01*
X125502490Y-85805825D01*
X125503871Y-85796956D01*
X125502707Y-85788056D01*
X125502817Y-85779080D01*
X125503636Y-85779090D01*
X125503926Y-85757598D01*
X125509856Y-85720160D01*
X125522038Y-85682670D01*
X125545393Y-85636832D01*
X125568565Y-85604939D01*
X125604939Y-85568565D01*
X125636829Y-85545394D01*
X125682674Y-85522036D01*
X125720163Y-85509855D01*
X125741891Y-85506414D01*
X125756742Y-85504062D01*
X125776452Y-85502631D01*
X125784416Y-85503871D01*
X125793318Y-85502707D01*
X125793322Y-85502707D01*
X125815835Y-85499763D01*
X125832212Y-85498699D01*
X137555932Y-85502543D01*
G37*
%TD.AperFunction*%
%TD*%
M02*
