%TF.GenerationSoftware,KiCad,Pcbnew,6.0.2+dfsg-1*%
%TF.CreationDate,2023-10-20T16:05:59+09:00*%
%TF.ProjectId,Hibot_agostiniLuca,4869626f-745f-4616-976f-7374696e694c,rev?*%
%TF.SameCoordinates,Original*%
%TF.FileFunction,Soldermask,Bot*%
%TF.FilePolarity,Negative*%
%FSLAX46Y46*%
G04 Gerber Fmt 4.6, Leading zero omitted, Abs format (unit mm)*
G04 Created by KiCad (PCBNEW 6.0.2+dfsg-1) date 2023-10-20 16:05:59*
%MOMM*%
%LPD*%
G01*
G04 APERTURE LIST*
G04 Aperture macros list*
%AMRoundRect*
0 Rectangle with rounded corners*
0 $1 Rounding radius*
0 $2 $3 $4 $5 $6 $7 $8 $9 X,Y pos of 4 corners*
0 Add a 4 corners polygon primitive as box body*
4,1,4,$2,$3,$4,$5,$6,$7,$8,$9,$2,$3,0*
0 Add four circle primitives for the rounded corners*
1,1,$1+$1,$2,$3*
1,1,$1+$1,$4,$5*
1,1,$1+$1,$6,$7*
1,1,$1+$1,$8,$9*
0 Add four rect primitives between the rounded corners*
20,1,$1+$1,$2,$3,$4,$5,0*
20,1,$1+$1,$4,$5,$6,$7,0*
20,1,$1+$1,$6,$7,$8,$9,0*
20,1,$1+$1,$8,$9,$2,$3,0*%
G04 Aperture macros list end*
%ADD10C,1.800000*%
%ADD11C,1.300000*%
%ADD12RoundRect,0.100000X-1.100000X-1.100000X1.100000X-1.100000X1.100000X1.100000X-1.100000X1.100000X0*%
%ADD13C,2.400000*%
%ADD14RoundRect,0.100000X1.100000X1.100000X-1.100000X1.100000X-1.100000X-1.100000X1.100000X-1.100000X0*%
%ADD15C,4.000000*%
%ADD16C,1.200000*%
%ADD17RoundRect,0.350000X0.425000X1.425000X-0.425000X1.425000X-0.425000X-1.425000X0.425000X-1.425000X0*%
%ADD18RoundRect,0.325000X-0.225000X-0.250000X0.225000X-0.250000X0.225000X0.250000X-0.225000X0.250000X0*%
%ADD19RoundRect,0.100000X-0.750000X1.000000X-0.750000X-1.000000X0.750000X-1.000000X0.750000X1.000000X0*%
%ADD20RoundRect,0.100000X-1.900000X1.000000X-1.900000X-1.000000X1.900000X-1.000000X1.900000X1.000000X0*%
%ADD21RoundRect,0.350000X1.075000X-0.400000X1.075000X0.400000X-1.075000X0.400000X-1.075000X-0.400000X0*%
%ADD22RoundRect,0.350000X0.325000X0.650000X-0.325000X0.650000X-0.325000X-0.650000X0.325000X-0.650000X0*%
%ADD23RoundRect,0.100000X0.650000X0.850000X-0.650000X0.850000X-0.650000X-0.850000X0.650000X-0.850000X0*%
%ADD24RoundRect,0.350000X0.250000X0.475000X-0.250000X0.475000X-0.250000X-0.475000X0.250000X-0.475000X0*%
%ADD25RoundRect,0.212500X0.112500X-0.287500X0.112500X0.287500X-0.112500X0.287500X-0.112500X-0.287500X0*%
%ADD26RoundRect,0.100000X1.450000X-0.350000X1.450000X0.350000X-1.450000X0.350000X-1.450000X-0.350000X0*%
G04 APERTURE END LIST*
D10*
%TO.C,F1*%
X153300000Y-104950000D03*
X153300000Y-102450000D03*
%TD*%
D11*
%TO.C,J3*%
X137270000Y-113540000D03*
X134730000Y-113540000D03*
D12*
X134730000Y-111000000D03*
D13*
X137270000Y-111000000D03*
%TD*%
D14*
%TO.C,J2*%
X134815000Y-89000000D03*
D13*
X132275000Y-89000000D03*
X129735000Y-89000000D03*
X127195000Y-89000000D03*
%TD*%
D11*
%TO.C,J4*%
X127730000Y-113540000D03*
X130270000Y-113540000D03*
D12*
X127730000Y-111000000D03*
D13*
X130270000Y-111000000D03*
%TD*%
D11*
%TO.C,J1*%
X141730000Y-113540000D03*
X144270000Y-113540000D03*
D12*
X141730000Y-111000000D03*
D13*
X144270000Y-111000000D03*
%TD*%
D15*
%TO.C,H1*%
X152275000Y-87700000D03*
%TD*%
D16*
%TO.C,TP3*%
X127400000Y-99600000D03*
%TD*%
D17*
%TO.C,D1*%
X153400000Y-109000000D03*
X147600000Y-109000000D03*
%TD*%
D18*
%TO.C,C8*%
X151725000Y-90850000D03*
X153275000Y-90850000D03*
%TD*%
D19*
%TO.C,U5*%
X138200000Y-88350000D03*
D20*
X140500000Y-94650000D03*
D19*
X140500000Y-88350000D03*
X142800000Y-88350000D03*
%TD*%
D21*
%TO.C,FB1*%
X148000000Y-94550000D03*
X148000000Y-91450000D03*
%TD*%
D22*
%TO.C,C2*%
X148975000Y-98250000D03*
X146025000Y-98250000D03*
%TD*%
D18*
%TO.C,C4*%
X151725000Y-94850000D03*
X153275000Y-94850000D03*
%TD*%
D23*
%TO.C,D2*%
X149750000Y-103850000D03*
X146250000Y-103850000D03*
%TD*%
D22*
%TO.C,C1*%
X149000000Y-100850000D03*
X146050000Y-100850000D03*
%TD*%
D16*
%TO.C,TP5*%
X127400000Y-102600000D03*
%TD*%
D24*
%TO.C,C11*%
X143950000Y-97850000D03*
X142050000Y-97850000D03*
%TD*%
D16*
%TO.C,TP4*%
X127400000Y-96600000D03*
%TD*%
D18*
%TO.C,C7*%
X151725000Y-92850000D03*
X153275000Y-92850000D03*
%TD*%
D25*
%TO.C,U3*%
X153700000Y-100375000D03*
X153100000Y-100375000D03*
X152500000Y-100375000D03*
X151900000Y-100375000D03*
X151300000Y-100375000D03*
X151300000Y-97325000D03*
X151900000Y-97325000D03*
X152500000Y-97325000D03*
X153100000Y-97325000D03*
X153700000Y-97325000D03*
D26*
X152500000Y-99025000D03*
%TD*%
D24*
%TO.C,C9*%
X148950000Y-88600000D03*
X147050000Y-88600000D03*
%TD*%
M02*
